SplineFontDB: 3.2
FontName: AporBoldItalic
FullName: aPor Bold Italic:
FamilyName: aPor
Weight: 
Copyright: Copyright  c  1989 Adobe Systems Incorporated.  All Rights Reserved. Adobe Garamond is a trademark of Adobe Systems Incorporated.
Version: p
ItalicAngle: 0
UnderlinePosition: 0
UnderlineWidth: 0
Ascent: 800
Descent: 200
InvalidEm: 0
sfntRevision: 0x00010000
LayerCount: 2
Layer: 0 0 "Back" 1
Layer: 1 0 "Fore" 0
XUID: [1021 1001 -774976532 11957168]
StyleMap: 0x0000
FSType: 0
OS2Version: 3
OS2_WeightWidthSlopeOnly: 0
OS2_UseTypoMetrics: 0
CreationTime: -2082844800
ModificationTime: 1709997262
PfmFamily: 17
TTFWeight: 700
TTFWidth: 5
LineGap: 0
VLineGap: 0
Panose: 2 0 8 3 0 0 0 0 0 0
OS2TypoAscent: 800
OS2TypoAOffset: 0
OS2TypoDescent: -200
OS2TypoDOffset: 0
OS2TypoLinegap: 90
OS2WinAscent: 947
OS2WinAOffset: 0
OS2WinDescent: 366
OS2WinDOffset: 0
HheadAscent: 947
HheadAOffset: 0
HheadDescent: -500
HheadDOffset: 0
OS2SubXSize: 650
OS2SubYSize: 700
OS2SubXOff: 0
OS2SubYOff: 140
OS2SupXSize: 650
OS2SupYSize: 700
OS2SupXOff: 0
OS2SupYOff: 480
OS2StrikeYSize: 49
OS2StrikeYPos: 258
OS2CapHeight: 548
OS2XHeight: 947
OS2Vendor: 'PfEd'
OS2CodePages: 00000001.00000000
OS2UnicodeRanges: 800000af.5000204a.00000000.00000000
DEI: 91125
LangName: 1033 "" "" "" "FontForge 2.0 : aPor Bold Italic: : 1-5-2021"
LangName: 1024 "Copyright  c  1989 Adobe Systems Incorporated.  All Rights Reserved. Adobe Garamond is a trademark of Adobe Systems Incorporated." "aPor+AH8A" "Bold Italic" "aPor Bold Italic+AH8A" "aPor Bold Italic:" "p"
Encoding: UnicodeBmp
Compacted: 1
UnicodeInterp: none
NameList: AGL For New Fonts
DisplaySize: -48
AntiAlias: 1
FitToEm: 1
WinInfo: 45 15 12
BeginPrivate: 3
BlueValues 17 [-227 -2 528 674]
BlueScale 10 0.00416667
BlueShift 2 15
EndPrivate
BeginChars: 65537 203

StartChar: .notdef
Encoding: 65536 -1 0
Width: 500
GlyphClass: 1
Flags: W
LayerCount: 2
Fore
SplineSet
40 667 m 1
 460 667 l 1
 460 0 l 1
 40 0 l 1
 40 667 l 1
60 647 m 1
 60 20 l 1
 440 20 l 1
 440 647 l 1
 60 647 l 1
EndSplineSet
EndChar

StartChar: exclam
Encoding: 33 33 3
Width: 320
GlyphClass: 2
Flags: W
LayerCount: 2
Fore
SplineSet
141 167 m 1
 25 287 l 1
 60 324 l 1
 177 204 l 1
 256 286 l 1
 291 250 l 1
 97 49 l 1
 62 84 l 1
 141 167 l 1
EndSplineSet
EndChar

StartChar: quotedbl
Encoding: 34 34 4
Width: 568
GlyphClass: 2
Flags: W
LayerCount: 2
Fore
SplineSet
210 265 m 2
 210.000976562 -114.00390625 l 1
 234.000976562 -132.670898438 254.66796875 -156.00390625 272.000976562 -184.00390625 c 0
 289.333984375 -212.00390625 298.333984375 -237.670898438 299.000976562 -261.00390625 c 0
 299.000976562 -267.670898438 297.000976562 -272.337890625 293.000976562 -275.004882812 c 0
 289.000976562 -277.671875 284.500976562 -278.671875 279.500976562 -278.004882812 c 0
 274.500976562 -277.337890625 270.333984375 -274.337890625 267.000976562 -269.004882812 c 0
 265.66796875 -266.337890625 262.500976562 -259.004882812 257.500976562 -247.004882812 c 0
 252.500976562 -235.004882812 245.66796875 -222.337890625 237.000976562 -209.004882812 c 0
 228.333984375 -195.671875 217.666992188 -183.338867188 205 -172.005859375 c 1
 201.666992188 -192.005859375 196 -209.005859375 188 -223.005859375 c 0
 178 -238.338867188 165.5 -250.338867188 150.5 -259.005859375 c 0
 135.5 -267.672851562 118.333007812 -272.005859375 99 -272.005859375 c 0
 86.3330078125 -272.005859375 74 -270.672851562 62 -268.005859375 c 0
 40.6669921875 -260.672851562 23.1669921875 -248.172851562 9.5 -230.505859375 c 0
 -4.1669921875 -212.838867188 -11 -192.671875 -11 -170.004882812 c 0
 -11 -141.337890625 -1 -117.004882812 19 -97.0048828125 c 0
 39 -77.0048828125 63.3330078125 -67.0048828125 92 -67.0048828125 c 0
 110 -67.0048828125 124.666992188 -70.337890625 136 -77.0048828125 c 1
 136 -63.0048828125 l 1
 136 286.995117188 l 2
 136 313.662109375 134 330.162109375 130 336.495117188 c 0
 126 342.828125 112.666992188 348.661132812 90 353.994140625 c 2
 81 355.994140625 l 2
 79 357.994140625 78 360.827148438 78 364.494140625 c 0
 78 368.161132812 79.3330078125 370.661132812 82 371.994140625 c 0
 136 380.661132812 176.333007812 400.328125 203 430.995117188 c 1
 208.333007812 429.662109375 211 427.329101562 211 423.99609375 c 2
 211 366.99609375 l 2
 211 357.663085938 214.333007812 353.99609375 221 355.99609375 c 0
 247.666992188 372.663085938 271.666992188 385.330078125 293 393.997070312 c 0
 314.333007812 402.6640625 337 406.997070312 361 406.997070312 c 0
 400.333007812 406.997070312 429.666015625 395.6640625 448.999023438 372.997070312 c 0
 468.33203125 350.330078125 477.999023438 320.663085938 477.999023438 283.99609375 c 2
 477.999023438 110.99609375 l 1
 477.999023438 62.49609375 l 2
 477.999023438 47.49609375 480.33203125 37.8291015625 484.999023438 33.49609375 c 0
 489.666015625 29.1630859375 500.333007812 26.330078125 517 24.9970703125 c 2
 545 21.9970703125 l 2
 549 19.9970703125 550.666992188 15.830078125 550 9.4970703125 c 0
 549.333007812 3.1640625 547 -1.0029296875 543 -3.0029296875 c 0
 506.333007812 -1.0029296875 472.666015625 -0.0029296875 441.999023438 -0.0029296875 c 0
 409.999023438 -0.0029296875 376.33203125 -1.0029296875 340.999023438 -3.0029296875 c 0
 336.999023438 -0.3359375 334.666015625 3.8310546875 333.999023438 9.498046875 c 0
 333.33203125 15.1650390625 334.999023438 19.33203125 338.999023438 21.9990234375 c 2
 365.999023438 24.9990234375 l 2
 383.999023438 27.666015625 394.83203125 33.3330078125 398.499023438 42 c 0
 402.166015625 50.6669921875 403.999023438 73.6669921875 403.999023438 111 c 2
 403.999023438 260 l 2
 403.999023438 326 372.666015625 359 309.999023438 359 c 0
 270.666015625 359 242.333007812 347.333007812 225 324 c 0
 215 312 210 292.333007812 210 265 c 2
89.0009765625 -225.00390625 m 0
 102.333984375 -225.00390625 114.668945312 -220.337890625 126.001953125 -211.004882812 c 0
 137.334960938 -201.671875 142.66796875 -188.671875 142.000976562 -172.004882812 c 0
 140.66796875 -133.337890625 123.66796875 -114.004882812 91.0009765625 -114.004882812 c 0
 71.66796875 -114.004882812 56.66796875 -123.004882812 46.0009765625 -141.004882812 c 0
 42.0009765625 -147.671875 40.0009765625 -156.671875 40.0009765625 -168.004882812 c 0
 40.0009765625 -183.337890625 44.833984375 -196.670898438 54.5009765625 -208.00390625 c 0
 64.16796875 -219.336914062 75.66796875 -225.00390625 89.0009765625 -225.00390625 c 0
EndSplineSet
EndChar

StartChar: numbersign
Encoding: 35 35 5
Width: 239
GlyphClass: 2
Flags: W
LayerCount: 2
Fore
SplineSet
143 242 m 1
 61 242 l 1
 61 293 l 1
 143 293 l 1
 143 437 l 1
 198 437 l 1
 198 98 l 1
 143 98 l 1
 143 242 l 1
EndSplineSet
EndChar

StartChar: dollar
Encoding: 36 36 6
Width: 606
GlyphClass: 2
Flags: W
LayerCount: 2
Fore
SplineSet
114 149 m 2
 113.998046875 507.99609375 l 2
 113.998046875 547.99609375 112.998046875 575.49609375 110.998046875 590.49609375 c 0
 108.998046875 605.49609375 104.331054688 615.99609375 96.998046875 621.99609375 c 0
 89.6650390625 627.99609375 77.6650390625 631.99609375 60.998046875 633.99609375 c 2
 38.998046875 635.99609375 l 2
 36.3310546875 638.663085938 35.3310546875 643.163085938 35.998046875 649.49609375 c 0
 36.6650390625 655.829101562 37.998046875 659.99609375 39.998046875 661.99609375 c 0
 79.3310546875 659.329101562 116.331054688 657.99609375 150.998046875 657.99609375 c 0
 186.331054688 657.99609375 220.331054688 659.329101562 252.998046875 661.99609375 c 0
 256.331054688 659.99609375 258.331054688 655.99609375 258.998046875 649.99609375 c 0
 259.665039062 643.99609375 258.33203125 639.329101562 254.999023438 635.99609375 c 2
 237.999023438 633.99609375 l 2
 213.33203125 631.329101562 198.499023438 623.49609375 193.499023438 610.49609375 c 0
 188.499023438 597.49609375 185.999023438 563.329101562 185.999023438 507.99609375 c 2
 185.999023438 393.99609375 l 2
 185.999023438 368.663085938 189.666015625 355.99609375 196.999023438 355.99609375 c 0
 204.999023438 355.99609375 213.33203125 359.663085938 221.999023438 366.99609375 c 0
 243.33203125 388.329101562 258.33203125 404.329101562 266.999023438 414.99609375 c 2
 361.999023438 521.99609375 l 2
 401.33203125 566.663085938 423.999023438 594.330078125 429.999023438 604.997070312 c 0
 433.999023438 609.6640625 435.999023438 614.997070312 435.999023438 620.997070312 c 0
 435.999023438 624.997070312 431.33203125 627.997070312 421.999023438 629.997070312 c 2
 397.999023438 635.997070312 l 1
 389.999023438 646.6640625 390.666015625 655.331054688 399.999023438 661.998046875 c 1
 426.666015625 659.331054688 458.666015625 657.998046875 495.999023438 657.998046875 c 0
 530.666015625 657.998046875 559.666015625 659.331054688 582.999023438 661.998046875 c 0
 586.33203125 659.331054688 588.33203125 655.331054688 588.999023438 649.998046875 c 0
 589.666015625 644.665039062 588.333007812 639.998046875 585 635.998046875 c 0
 554.333007812 633.331054688 527 624.331054688 503 608.998046875 c 0
 471.666992188 586.998046875 430.666992188 547.998046875 380 491.998046875 c 2
 301 407.998046875 l 2
 287.666992188 392.665039062 281 382.33203125 281 376.999023438 c 0
 281 371.666015625 286.333007812 361.333007812 297 346 c 0
 403.666992188 207.333007812 477 114 517 66 c 0
 539 42 562.666992188 28.3330078125 588 25 c 2
 612 22 l 2
 614.666992188 20 615.666992188 15.8330078125 615 9.5 c 0
 614.333007812 3.1669921875 612.666015625 -1 609.999023438 -3 c 0
 587.33203125 -1 554.33203125 0 510.999023438 0 c 0
 479.666015625 0 443.999023438 -1 403.999023438 -3 c 0
 401.33203125 -2.3330078125 399.33203125 1 397.999023438 7 c 0
 396.666015625 13 397.333007812 18 400 22 c 2
 421 26 l 2
 435 28.6669921875 442 32 442 36 c 0
 442 40 437.666992188 47.6669921875 429 59 c 0
 427 61.6669921875 402.666992188 92.6669921875 356 152 c 2
 286 243 l 2
 256.666992188 280.333007812 237.5 303.666015625 228.5 312.999023438 c 0
 219.5 322.33203125 210.333007812 326.999023438 201 326.999023438 c 0
 194.333007812 326.999023438 190.166015625 323.83203125 188.499023438 317.499023438 c 0
 186.83203125 311.166015625 185.999023438 297.999023438 185.999023438 277.999023438 c 2
 185.999023438 148.999023438 l 2
 185.999023438 109.666015625 186.83203125 82.666015625 188.499023438 67.9990234375 c 0
 190.166015625 53.33203125 194.166015625 42.9990234375 200.499023438 36.9990234375 c 0
 206.83203125 30.9990234375 218.999023438 26.9990234375 236.999023438 24.9990234375 c 2
 259.999023438 21.9990234375 l 2
 262.666015625 19.9990234375 263.666015625 15.666015625 262.999023438 8.9990234375 c 0
 262.33203125 2.33203125 260.999023438 -1.66796875 258.999023438 -3.0009765625 c 0
 216.33203125 -1.0009765625 180.33203125 -0.0009765625 150.999023438 -0.0009765625 c 0
 118.999023438 -0.0009765625 84.9990234375 -1.0009765625 48.9990234375 -3.0009765625 c 0
 46.9990234375 -0.333984375 45.666015625 3.8330078125 44.9990234375 9.5 c 0
 44.33203125 15.1669921875 45.33203125 19.333984375 47.9990234375 22.0009765625 c 2
 64.9990234375 25.0009765625 l 2
 80.9990234375 28.333984375 92.33203125 32.833984375 98.9990234375 38.5009765625 c 0
 105.666015625 44.16796875 109.833007812 54.16796875 111.5 68.5009765625 c 0
 113.166992188 82.833984375 114 109.666992188 114 149 c 2
EndSplineSet
EndChar

StartChar: percent
Encoding: 37 37 7
Width: 348
GlyphClass: 2
Flags: W
LayerCount: 2
Fore
SplineSet
198 225 m 1
 198 59 l 1
 148 59 l 1
 148 225 l 1
 33 225 l 1
 33 274 l 1
 313 274 l 1
 313 225 l 1
 198 225 l 1
EndSplineSet
EndChar

StartChar: ampersand
Encoding: 38 38 8
Width: 90
GlyphClass: 2
Flags: W
LayerCount: 2
Fore
SplineSet
21 -130 m 1
 21 149 l 1
 71 149 l 1
 71 -130 l 1
 21 -130 l 1
EndSplineSet
EndChar

StartChar: quotesingle
Encoding: 39 39 9
Width: 92
GlyphClass: 2
Flags: W
LayerCount: 2
Fore
SplineSet
21 285 m 1
 21 564 l 1
 71 564 l 1
 71 285 l 1
 21 285 l 1
EndSplineSet
EndChar

StartChar: parenleft
Encoding: 40 40 10
Width: 335
GlyphClass: 2
Flags: W
LayerCount: 2
Fore
SplineSet
217 374 m 0
 217 316.666992188 192 281.665039062 142 268.998046875 c 1
 142 265.998046875 l 1
 192 252.665039062 217 217.665039062 217 160.998046875 c 0
 217 141.665039062 214 107.33203125 208 57.9990234375 c 0
 201.333007812 1.33203125 198 -32.0009765625 198 -42.0009765625 c 0
 198 -96.66796875 226 -128.66796875 282 -138.000976562 c 1
 288.666992188 -143.333984375 288.666992188 -150.000976562 282 -158.000976562 c 1
 187.333007812 -158.000976562 140 -115.66796875 140 -31.0009765625 c 0
 140 -8.333984375 142.666992188 26.9990234375 148 74.9990234375 c 0
 152.666992188 114.999023438 155 147.666015625 155 172.999023438 c 0
 155 196.999023438 149.666992188 216.166015625 139 230.499023438 c 0
 128.333007812 244.83203125 104.666015625 253.33203125 67.9990234375 255.999023438 c 1
 62.666015625 263.999023438 62.666015625 271.33203125 67.9990234375 277.999023438 c 1
 104.666015625 281.33203125 128.333007812 290.33203125 139 304.999023438 c 0
 149.666992188 319.666015625 155 338.333007812 155 361 c 0
 155 371.666992188 152.666992188 405 148 461 c 0
 142.666992188 523 140 558.333007812 140 567 c 0
 140 650.333007812 187.333007812 692 282 692 c 0
 284.666992188 690 286 686.833007812 286 682.5 c 0
 286 678.166992188 284.666992188 674.666992188 282 672 c 0
 226 662.666992188 198 630.666992188 198 576 c 0
 198 554 201.333007812 521 208 477 c 0
 214 436.333007812 217 402 217 374 c 0
EndSplineSet
EndChar

StartChar: parenright
Encoding: 41 41 11
Width: 328
GlyphClass: 2
Flags: W
LayerCount: 2
Fore
SplineSet
294 82 m 1
 293.002929688 99.9970703125 l 1
 293.669921875 71.330078125 284.669921875 47.4970703125 266.002929688 28.4970703125 c 0
 247.3359375 9.4970703125 222.668945312 -3.669921875 192.001953125 -11.0029296875 c 1
 172.001953125 -38.0029296875 l 2
 167.334960938 -47.3359375 170.66796875 -55.0029296875 182.000976562 -61.0029296875 c 0
 214.000976562 -82.3359375 230.333984375 -106.002929688 231.000976562 -132.002929688 c 0
 231.66796875 -156.669921875 222.000976562 -177.502929688 202.000976562 -194.502929688 c 0
 182.000976562 -211.502929688 158.000976562 -220.002929688 130.000976562 -220.002929688 c 0
 91.333984375 -220.002929688 71.333984375 -208.669921875 70.0009765625 -186.002929688 c 0
 70.0009765625 -179.3359375 72.333984375 -173.3359375 77.0009765625 -168.002929688 c 0
 81.66796875 -162.669921875 87.66796875 -160.002929688 95.0009765625 -160.002929688 c 0
 103.000976562 -160.002929688 113.16796875 -164.8359375 125.500976562 -174.502929688 c 0
 137.833984375 -184.169921875 145.666992188 -189.002929688 149 -189.002929688 c 0
 166.333007812 -189.002929688 174.666015625 -178.669921875 173.999023438 -158.002929688 c 0
 173.999023438 -144.002929688 167.499023438 -130.8359375 154.499023438 -118.502929688 c 0
 141.499023438 -106.169921875 126.33203125 -96.669921875 108.999023438 -90.0029296875 c 1
 108.999023438 -85.0029296875 l 1
 151.999023438 -14.0029296875 l 1
 105.999023438 -14.0029296875 69.9990234375 -4.0029296875 43.9990234375 15.9970703125 c 1
 32.666015625 42.6640625 27.666015625 76.3310546875 28.9990234375 116.998046875 c 0
 32.33203125 120.331054688 36.4990234375 121.998046875 41.4990234375 121.998046875 c 0
 46.4990234375 121.998046875 49.9990234375 120.665039062 51.9990234375 117.998046875 c 0
 75.9990234375 49.3310546875 113.33203125 14.998046875 163.999023438 14.998046875 c 0
 183.999023438 14.998046875 199.999023438 20.8310546875 211.999023438 32.498046875 c 0
 223.999023438 44.1650390625 229.666015625 59.6650390625 228.999023438 78.998046875 c 0
 228.33203125 98.3310546875 221.165039062 115.498046875 207.498046875 130.498046875 c 0
 193.831054688 145.498046875 173.6640625 161.998046875 146.997070312 179.998046875 c 1
 80.9970703125 139.998046875 l 1
 65.9970703125 184.998046875 l 1
 131.997070312 192.998046875 l 1
 97.330078125 210.331054688 73.6630859375 228.998046875 60.99609375 248.998046875 c 0
 48.3291015625 268.998046875 41.99609375 290.331054688 41.99609375 312.998046875 c 0
 41.99609375 341.665039062 55.49609375 364.498046875 82.49609375 381.498046875 c 0
 109.49609375 398.498046875 138.99609375 406.998046875 170.99609375 406.998046875 c 0
 217.663085938 406.998046875 247.330078125 400.665039062 259.997070312 387.998046875 c 1
 271.997070312 364.665039062 278.6640625 338.33203125 279.997070312 308.999023438 c 0
 277.997070312 305.666015625 274.497070312 303.333007812 269.497070312 302 c 0
 264.497070312 300.666992188 259.997070312 302 255.997070312 306 c 0
 247.997070312 328 236.1640625 345.5 220.497070312 358.5 c 0
 204.830078125 371.5 186.663085938 378 165.99609375 378 c 0
 146.663085938 378 131.330078125 372.333007812 119.997070312 361 c 0
 108.6640625 349.666992188 102.997070312 335 102.997070312 317 c 0
 103.6640625 304.333007812 108.331054688 292.5 116.998046875 281.5 c 0
 125.665039062 270.5 135.83203125 260.833007812 147.499023438 252.5 c 2
 192.999023438 220 l 1
 261.999023438 256 l 1
 278.999023438 213 l 1
 207.999023438 205 l 1
 270.666015625 165 299.333007812 124 294 82 c 1
EndSplineSet
EndChar

StartChar: plus
Encoding: 43 43 12
Width: 621
GlyphClass: 2
Flags: W
LayerCount: 2
Fore
SplineSet
45 326 m 0
 45 378.666992188 54.66796875 428.333984375 74.0009765625 475.000976562 c 0
 93.333984375 521.66796875 119.333984375 559.66796875 152.000976562 589.000976562 c 0
 213.333984375 645.66796875 290.000976562 674.000976562 382.000976562 674.000976562 c 0
 436.000976562 674.000976562 486.000976562 666.000976562 532.000976562 650.000976562 c 0
 545.333984375 647.333984375 553.333984375 646.333984375 556.000976562 647.000976562 c 1
 558.000976562 601.66796875 562.000976562 552.66796875 568.000976562 500.000976562 c 0
 566.000976562 496.66796875 562.500976562 494.66796875 557.500976562 494.000976562 c 0
 552.500976562 493.333984375 548.333984375 494.666992188 545.000976562 498 c 0
 526.333984375 595.333007812 468.333984375 644 371.000976562 644 c 0
 301.66796875 644 244.16796875 618 198.500976562 566 c 0
 152.833984375 514 130.000976562 438.666992188 130.000976562 340 c 0
 130.000976562 238 154.000976562 158.333007812 202.000976562 101 c 0
 250.000976562 43.6669921875 310.333984375 15 383.000976562 15 c 0
 431.66796875 15 470.334960938 29.3330078125 499.001953125 58 c 0
 527.668945312 86.6669921875 548.001953125 120 560.001953125 158 c 0
 562.668945312 160.666992188 566.668945312 161.666992188 572.001953125 161 c 0
 577.334960938 160.333007812 581.001953125 157.666015625 583.001953125 152.999023438 c 0
 579.668945312 127.666015625 573.501953125 100.833007812 564.501953125 72.5 c 0
 555.501953125 44.1669921875 548.001953125 25.6669921875 542.001953125 17 c 1
 532.668945312 15 522.668945312 11.6669921875 512.001953125 7 c 0
 475.334960938 -8.3330078125 430.66796875 -16 378.000976562 -16 c 0
 293.333984375 -16 222.666992188 6 166 50 c 0
 85.3330078125 116.666992188 45 208.666992188 45 326 c 0
470.000976562 -72 m 1
 478.66796875 -72 484.002929688 -76 486.002929688 -84 c 1
 384.002929688 -265 l 2
 378.669921875 -274.333007812 372.669921875 -279 366.002929688 -279 c 0
 359.3359375 -279 353.002929688 -274.333007812 347.002929688 -265 c 2
 245.002929688 -84 l 1
 247.002929688 -76 252.3359375 -72 261.002929688 -72 c 1
 351.002929688 -178 l 2
 358.3359375 -186.666992188 363.168945312 -191 365.501953125 -191 c 0
 367.834960938 -191 372.66796875 -186.666992188 380.000976562 -178 c 2
 470.000976562 -72 l 1
EndSplineSet
EndChar

StartChar: comma
Encoding: 44 44 13
Width: 532
GlyphClass: 2
Flags: W
LayerCount: 2
Fore
SplineSet
443 9 m 1
 506.000976562 8.9970703125 l 1
 506.000976562 -27.0029296875 l 1
 443.000976562 -27.0029296875 l 1
 443.000976562 -114.002929688 l 1
 467.000976562 -132.669921875 487.66796875 -156.002929688 505.000976562 -184.002929688 c 0
 522.333984375 -212.002929688 531.333984375 -237.669921875 532.000976562 -261.002929688 c 0
 532.000976562 -267.669921875 530.000976562 -272.336914062 526.000976562 -275.00390625 c 0
 522.000976562 -277.670898438 517.500976562 -278.670898438 512.500976562 -278.00390625 c 0
 507.500976562 -277.336914062 503.333984375 -274.336914062 500.000976562 -269.00390625 c 0
 498.66796875 -266.336914062 495.500976562 -259.00390625 490.500976562 -247.00390625 c 0
 485.500976562 -235.00390625 478.66796875 -222.336914062 470.000976562 -209.00390625 c 0
 461.333984375 -195.670898438 450.666992188 -183.337890625 438 -172.004882812 c 1
 434.666992188 -192.004882812 429 -209.004882812 421 -223.004882812 c 0
 411 -238.337890625 398.5 -250.337890625 383.5 -259.004882812 c 0
 368.5 -267.671875 351.333007812 -272.004882812 332 -272.004882812 c 0
 319.333007812 -272.004882812 307 -270.671875 295 -268.004882812 c 0
 273.666992188 -260.671875 256.166992188 -248.171875 242.5 -230.504882812 c 0
 228.833007812 -212.837890625 222 -192.670898438 222 -170.00390625 c 0
 222 -141.336914062 232 -117.00390625 252 -97.00390625 c 0
 272 -77.00390625 296.333007812 -67.00390625 325 -67.00390625 c 0
 343 -67.00390625 357.666992188 -70.3369140625 369 -77.00390625 c 1
 369 -63.00390625 l 1
 369 -27.00390625 l 1
 284 -27.00390625 l 1
 284 8.99609375 l 1
 369 8.99609375 l 1
 369 142.99609375 l 1
 369 259.99609375 l 2
 369 325.99609375 337.666992188 358.99609375 275 358.99609375 c 0
 235.666992188 358.99609375 207.333984375 347.329101562 190.000976562 323.99609375 c 0
 180.000976562 311.99609375 175.000976562 292.329101562 175.000976562 264.99609375 c 2
 175.000976562 110.99609375 l 2
 175.000976562 84.3291015625 175.66796875 65.8291015625 177.000976562 55.49609375 c 0
 178.333984375 45.1630859375 181.500976562 37.99609375 186.500976562 33.99609375 c 0
 191.500976562 29.99609375 200.333984375 26.99609375 213.000976562 24.99609375 c 2
 239.000976562 21.99609375 l 2
 243.000976562 19.99609375 244.66796875 15.8291015625 244.000976562 9.49609375 c 0
 243.333984375 3.1630859375 241.000976562 -1.00390625 237.000976562 -3.00390625 c 0
 202.333984375 -1.00390625 169.333984375 -0.00390625 138.000976562 -0.00390625 c 0
 106.000976562 -0.00390625 72.0009765625 -1.00390625 36.0009765625 -3.00390625 c 0
 32.0009765625 -0.3369140625 29.66796875 3.830078125 29.0009765625 9.4970703125 c 0
 28.333984375 15.1640625 30.0009765625 19.3310546875 34.0009765625 21.998046875 c 2
 63.0009765625 24.998046875 l 2
 81.0009765625 26.998046875 91.833984375 32.498046875 95.5009765625 41.498046875 c 0
 99.16796875 50.498046875 101.000976562 73.6650390625 101.000976562 110.998046875 c 2
 101.000976562 286.998046875 l 2
 101.000976562 313.665039062 99.0009765625 330.165039062 95.0009765625 336.498046875 c 0
 91.0009765625 342.831054688 77.66796875 348.6640625 55.0009765625 353.997070312 c 2
 46.0009765625 355.997070312 l 2
 44.0009765625 357.997070312 43.0009765625 360.830078125 43.0009765625 364.497070312 c 0
 43.0009765625 368.1640625 44.333984375 370.6640625 47.0009765625 371.997070312 c 0
 101.000976562 380.6640625 141.333984375 400.331054688 168.000976562 430.998046875 c 1
 173.333984375 429.665039062 176.000976562 427.33203125 176.000976562 423.999023438 c 2
 176.000976562 366.999023438 l 2
 176.000976562 357.666015625 179.333984375 353.999023438 186.000976562 355.999023438 c 0
 212.66796875 372.666015625 236.66796875 385.333007812 258.000976562 394 c 0
 279.333984375 402.666992188 302.000976562 407 326.000976562 407 c 0
 365.333984375 407 394.666992188 395.833007812 414 373.5 c 0
 433.333007812 351.166992188 443 321.666992188 443 285 c 2
 443 145 l 1
 443 9 l 1
322.000976562 -225.002929688 m 0
 335.333984375 -225.002929688 347.668945312 -220.336914062 359.001953125 -211.00390625 c 0
 370.334960938 -201.670898438 375.66796875 -188.670898438 375.000976562 -172.00390625 c 0
 373.66796875 -133.336914062 356.66796875 -114.00390625 324.000976562 -114.00390625 c 0
 304.66796875 -114.00390625 289.66796875 -123.00390625 279.000976562 -141.00390625 c 0
 275.000976562 -147.670898438 273.000976562 -156.670898438 273.000976562 -168.00390625 c 0
 273.000976562 -183.336914062 277.833984375 -196.669921875 287.500976562 -208.002929688 c 0
 297.16796875 -219.3359375 308.66796875 -225.002929688 322.000976562 -225.002929688 c 0
EndSplineSet
EndChar

StartChar: hyphen
Encoding: 45 45 14
Width: 210
GlyphClass: 2
Flags: W
LayerCount: 2
Fore
SplineSet
181 181 m 1
 10 181 l 1
 10 229 l 1
 181 229 l 1
 181 181 l 1
EndSplineSet
EndChar

StartChar: period
Encoding: 46 46 15
Width: 360
GlyphClass: 2
Flags: W
LayerCount: 2
Fore
SplineSet
140 624 m 1
 131.997070312 720.998046875 l 2
 131.997070312 724.331054688 138.997070312 727.331054688 152.997070312 729.998046875 c 1
 197.6640625 705.998046875 243.6640625 685.665039062 290.997070312 668.998046875 c 0
 293.6640625 668.331054688 294.997070312 665.6640625 294.997070312 660.997070312 c 0
 294.997070312 656.330078125 293.997070312 652.330078125 291.997070312 648.997070312 c 2
 273.997070312 647.997070312 l 2
 250.6640625 646.6640625 234.831054688 643.497070312 226.498046875 638.497070312 c 0
 218.165039062 633.497070312 213.998046875 620.6640625 213.998046875 599.997070312 c 2
 212.998046875 358.997070312 l 1
 226.998046875 352.997070312 l 2
 244.998046875 345.6640625 258.998046875 346.1640625 268.998046875 354.497070312 c 0
 278.998046875 362.830078125 290.665039062 378.997070312 303.998046875 402.997070312 c 0
 306.665039062 406.997070312 309.83203125 408.6640625 313.499023438 407.997070312 c 0
 317.166015625 407.330078125 319.666015625 404.330078125 320.999023438 398.997070312 c 0
 322.999023438 366.330078125 314.666015625 339.330078125 295.999023438 317.997070312 c 0
 274.666015625 293.330078125 246.999023438 286.997070312 212.999023438 298.997070312 c 1
 212.999023438 110.997070312 l 2
 212.999023438 74.9970703125 214.999023438 52.1640625 218.999023438 42.4970703125 c 0
 222.999023438 32.830078125 233.666015625 26.9970703125 250.999023438 24.9970703125 c 2
 282.999023438 21.9970703125 l 2
 286.999023438 19.9970703125 288.666015625 15.830078125 287.999023438 9.4970703125 c 0
 287.33203125 3.1640625 284.999023438 -1.0029296875 280.999023438 -3.0029296875 c 0
 240.33203125 -1.0029296875 205.33203125 -0.0029296875 175.999023438 -0.0029296875 c 0
 144.666015625 -0.0029296875 109.999023438 -1.0029296875 71.9990234375 -3.0029296875 c 0
 67.9990234375 -0.3359375 65.666015625 3.8310546875 64.9990234375 9.498046875 c 0
 64.33203125 15.1650390625 65.9990234375 19.33203125 69.9990234375 21.9990234375 c 2
 100.999023438 24.9990234375 l 2
 118.999023438 26.9990234375 129.83203125 32.4990234375 133.499023438 41.4990234375 c 0
 137.166015625 50.4990234375 138.999023438 73.666015625 138.999023438 110.999023438 c 2
 138.999023438 329.999023438 l 1
 126.999023438 333.999023438 l 2
 99.666015625 345.33203125 71.3330078125 328.999023438 42 284.999023438 c 0
 40 280.999023438 36.8330078125 279.999023438 32.5 281.999023438 c 0
 28.1669921875 283.999023438 25.6669921875 286.666015625 25 289.999023438 c 0
 22.3330078125 310.666015625 35 336.999023438 63 368.999023438 c 0
 71 378.999023438 81.8330078125 386.33203125 95.5 390.999023438 c 0
 109.166992188 395.666015625 123.666992188 395.333007812 139 390 c 1
 140 624 l 1
EndSplineSet
EndChar

StartChar: slash
Encoding: 47 47 16
Width: 309
GlyphClass: 2
Flags: W
LayerCount: 2
Fore
SplineSet
267 685 m 1
 59 -254 l 1
 1 -254 l 1
 209 685 l 1
 267 685 l 1
EndSplineSet
EndChar

StartChar: zero
Encoding: 48 48 17
Width: 621
GlyphClass: 2
Flags: W
LayerCount: 2
Fore
SplineSet
45 326 m 0
 45 378.666992188 54.66796875 428.333984375 74.0009765625 475.000976562 c 0
 93.333984375 521.66796875 119.333984375 559.66796875 152.000976562 589.000976562 c 0
 213.333984375 645.66796875 290.000976562 674.000976562 382.000976562 674.000976562 c 0
 436.000976562 674.000976562 486.000976562 666.000976562 532.000976562 650.000976562 c 0
 545.333984375 647.333984375 553.333984375 646.333984375 556.000976562 647.000976562 c 1
 558.000976562 601.66796875 562.000976562 552.66796875 568.000976562 500.000976562 c 0
 566.000976562 496.66796875 562.500976562 494.66796875 557.500976562 494.000976562 c 0
 552.500976562 493.333984375 548.333984375 494.666992188 545.000976562 498 c 0
 526.333984375 595.333007812 468.333984375 644 371.000976562 644 c 0
 301.66796875 644 244.16796875 618 198.500976562 566 c 0
 152.833984375 514 130.000976562 438.666992188 130.000976562 340 c 0
 130.000976562 238 154.000976562 158.333007812 202.000976562 101 c 0
 250.000976562 43.6669921875 310.333984375 15 383.000976562 15 c 0
 431.66796875 15 470.334960938 29.3330078125 499.001953125 58 c 0
 527.668945312 86.6669921875 548.001953125 120 560.001953125 158 c 0
 562.668945312 160.666992188 566.668945312 161.666992188 572.001953125 161 c 0
 577.334960938 160.333007812 581.001953125 157.666015625 583.001953125 152.999023438 c 0
 579.668945312 127.666015625 573.501953125 100.833007812 564.501953125 72.5 c 0
 555.501953125 44.1669921875 548.001953125 25.6669921875 542.001953125 17 c 1
 532.668945312 15 522.668945312 11.6669921875 512.001953125 7 c 0
 475.334960938 -8.3330078125 430.66796875 -16 378.000976562 -16 c 0
 293.333984375 -16 222.666992188 6 166 50 c 0
 85.3330078125 116.666992188 45 208.666992188 45 326 c 0
EndSplineSet
EndChar

StartChar: seven
Encoding: 55 55 18
Width: 392
GlyphClass: 2
Flags: W
LayerCount: 2
Fore
SplineSet
25 7 m 0
 41.6669921875 26.3330078125 73.6640625 73.666015625 120.997070312 148.999023438 c 2
 155.997070312 204.999023438 l 1
 84.9970703125 209.999023438 l 1
 105.997070312 254.999023438 l 1
 160.997070312 214.999023438 l 1
 226.997070312 332.999023438 l 2
 234.330078125 346.33203125 237.163085938 354.665039062 235.49609375 357.998046875 c 0
 233.829101562 361.331054688 227.99609375 362.998046875 217.99609375 362.998046875 c 2
 148.99609375 362.998046875 l 2
 115.663085938 362.998046875 93.330078125 358.331054688 81.9970703125 348.998046875 c 0
 68.6640625 338.331054688 54.9970703125 312.331054688 40.9970703125 270.998046875 c 0
 38.330078125 268.998046875 34.1630859375 268.331054688 28.49609375 268.998046875 c 0
 22.8291015625 269.665039062 17.99609375 271.665039062 13.99609375 274.998046875 c 1
 25.99609375 312.998046875 37.3291015625 364.998046875 47.99609375 430.998046875 c 1
 54.6630859375 433.665039062 61.330078125 433.665039062 67.9970703125 430.998046875 c 1
 69.9970703125 412.998046875 74.830078125 402.165039062 82.4970703125 398.498046875 c 0
 90.1640625 394.831054688 108.997070312 392.998046875 138.997070312 392.998046875 c 2
 278.997070312 392.998046875 l 2
 309.6640625 392.998046875 329.997070312 393.998046875 339.997070312 395.998046875 c 0
 343.997070312 393.998046875 345.6640625 390.665039062 344.997070312 385.998046875 c 0
 318.330078125 348.665039062 292.330078125 310.665039062 266.997070312 271.998046875 c 2
 217.997070312 194.998046875 l 1
 281.997070312 190.998046875 l 1
 264.997070312 146.998046875 l 1
 211.997070312 185.998046875 l 1
 147.997070312 68.998046875 l 2
 138.6640625 50.998046875 135.1640625 39.8310546875 137.497070312 35.498046875 c 0
 139.830078125 31.1650390625 150.330078125 28.998046875 168.997070312 28.998046875 c 2
 202.997070312 28.998046875 l 2
 230.997070312 28.998046875 254.497070312 30.8310546875 273.497070312 34.498046875 c 0
 292.497070312 38.1650390625 308.330078125 46.6650390625 320.997070312 59.998046875 c 0
 331.6640625 70.6650390625 342.331054688 93.33203125 352.998046875 127.999023438 c 0
 357.665039062 130.666015625 362.33203125 131.166015625 366.999023438 129.499023438 c 0
 371.666015625 127.83203125 374.333007812 124.999023438 375 120.999023438 c 0
 365.666992188 60.9990234375 353.333984375 19.666015625 338.000976562 -3.0009765625 c 1
 305.333984375 -1.0009765625 267.333984375 -0.0009765625 224.000976562 -0.0009765625 c 1
 196.000976562 -38.0009765625 l 2
 190.66796875 -47.333984375 193.66796875 -55.0009765625 205.000976562 -61.0009765625 c 0
 235.66796875 -82.333984375 251.000976562 -106.000976562 251.000976562 -132.000976562 c 0
 251.000976562 -157.333984375 240.500976562 -178.333984375 219.500976562 -195.000976562 c 0
 198.500976562 -211.66796875 174.333984375 -220.000976562 147.000976562 -220.000976562 c 0
 108.333984375 -220.000976562 89.0009765625 -208.66796875 89.0009765625 -186.000976562 c 0
 89.0009765625 -179.333984375 91.333984375 -173.333984375 96.0009765625 -168.000976562 c 0
 100.66796875 -162.66796875 106.66796875 -160.000976562 114.000976562 -160.000976562 c 0
 122.000976562 -160.000976562 131.833984375 -164.833984375 143.500976562 -174.500976562 c 0
 155.16796875 -184.16796875 163.000976562 -189.000976562 167.000976562 -189.000976562 c 0
 185.000976562 -189.000976562 194.000976562 -178.66796875 194.000976562 -158.000976562 c 0
 194.000976562 -144.66796875 187.66796875 -131.66796875 175.000976562 -119.000976562 c 0
 162.333984375 -106.333984375 147.666992188 -96.6669921875 131 -90 c 1
 131 -85 l 1
 188 0 l 1
 136 0 l 2
 78 0 43 -1 31 -3 c 0
 27 -1 25 2.3330078125 25 7 c 0
EndSplineSet
EndChar

StartChar: eight
Encoding: 56 56 19
Width: 276
GlyphClass: 2
Flags: W
LayerCount: 2
Fore
SplineSet
138 -216 m 0
 100 -216 70.3349609375 -206 49.001953125 -186 c 0
 27.6689453125 -166 14.001953125 -131.666992188 8.001953125 -83 c 1
 14.6689453125 -77 21.001953125 -77 27.001953125 -83 c 1
 34.3349609375 -110.333007812 46.16796875 -130.5 62.5009765625 -143.5 c 0
 78.833984375 -156.5 103.666992188 -163 137 -163 c 0
 169 -163 192.833007812 -156.5 208.5 -143.5 c 0
 224.166992188 -130.5 237.666992188 -110.333007812 249 -83 c 0
 255.666992188 -77 262 -77 268 -83 c 1
 260 -126.333007812 244.666992188 -159.333007812 222 -182 c 0
 199.333007812 -204.666992188 171.333007812 -216 138 -216 c 0
EndSplineSet
EndChar

StartChar: nine
Encoding: 57 57 20
Width: 664
GlyphClass: 2
Flags: W
LayerCount: 2
Fore
SplineSet
578 250 m 2
 578 135.333007812 582.336914062 66.998046875 591.00390625 44.998046875 c 0
 593.670898438 36.3310546875 609.670898438 29.3310546875 639.00390625 23.998046875 c 2
 651.00390625 21.998046875 l 2
 654.336914062 18.6650390625 655.669921875 14.1650390625 655.002929688 8.498046875 c 0
 654.3359375 2.8310546875 652.3359375 -1.3359375 649.002929688 -4.0029296875 c 0
 623.002929688 -1.3359375 593.669921875 -0.0029296875 561.002929688 -0.0029296875 c 0
 526.3359375 -0.0029296875 491.668945312 -1.3359375 457.001953125 -4.0029296875 c 0
 454.334960938 -2.0029296875 452.66796875 2.1640625 452.000976562 8.4970703125 c 0
 451.333984375 14.830078125 452.333984375 19.330078125 455.000976562 21.9970703125 c 2
 470.000976562 23.9970703125 l 2
 500.000976562 28.6640625 517.333984375 35.3310546875 522.000976562 43.998046875 c 0
 533.333984375 63.3310546875 539.000976562 131.998046875 539.000976562 249.998046875 c 2
 539.000976562 463.998046875 l 2
 539.000976562 487.998046875 538.000976562 501.998046875 536.000976562 505.998046875 c 1
 534.000976562 505.998046875 l 1
 493.333984375 456.665039062 446.666992188 396.33203125 394 324.999023438 c 2
 312 215.999023438 l 2
 225.333007812 101.33203125 176.666015625 27.9990234375 165.999023438 -4.0009765625 c 1
 155.999023438 -1.333984375 141.33203125 -0.0009765625 121.999023438 -0.0009765625 c 0
 81.9990234375 -0.0009765625 49.9990234375 -1.333984375 25.9990234375 -4.0009765625 c 1
 16.666015625 2.666015625 15.9990234375 11.3330078125 23.9990234375 22 c 1
 38.9990234375 24 l 2
 64.33203125 28 81.9990234375 36 91.9990234375 48 c 0
 103.999023438 63.3330078125 109.999023438 87 109.999023438 119 c 2
 109.999023438 408 l 2
 109.999023438 522.666992188 106.33203125 591 98.9990234375 613 c 0
 94.9990234375 624.333007812 82.666015625 631 61.9990234375 633 c 2
 38.9990234375 636 l 2
 36.9990234375 639.333007812 35.9990234375 643.833007812 35.9990234375 649.5 c 0
 35.9990234375 655.166992188 37.666015625 659 40.9990234375 661 c 0
 70.33203125 659 99.6650390625 658 128.998046875 658 c 0
 160.331054688 658 194.998046875 659 232.998046875 661 c 0
 236.331054688 659 238.331054688 655.333007812 238.998046875 650 c 0
 239.665039062 644.666992188 238.33203125 640 234.999023438 636 c 2
 208.999023438 633 l 2
 185.666015625 631 170.999023438 624.666992188 164.999023438 614 c 0
 154.999023438 590.666992188 149.999023438 522 149.999023438 408 c 2
 149.999023438 190 l 2
 149.999023438 157.333007812 151.33203125 136 153.999023438 126 c 1
 155.999023438 126 l 1
 159.999023438 131.333007812 170.33203125 145.166015625 186.999023438 167.499023438 c 0
 203.666015625 189.83203125 226.333007812 220.665039062 255 259.998046875 c 2
 452 523.998046875 l 2
 496 581.998046875 524 619.331054688 536 635.998046875 c 0
 548 652.665039062 557.666992188 665.33203125 565 673.999023438 c 1
 573 673.999023438 578.333007812 670.33203125 581 662.999023438 c 0
 579 645.666015625 578 587.333007812 578 488 c 2
 578 250 l 2
EndSplineSet
EndChar

StartChar: colon
Encoding: 58 58 21
Width: 180
GlyphClass: 2
Flags: W
LayerCount: 2
Fore
SplineSet
89 252 m 1
 2 393 l 1
 173 393 l 1
 89 252 l 1
89 140 m 1
 173 -1 l 1
 2 -1 l 1
 89 140 l 1
EndSplineSet
EndChar

StartChar: semicolon
Encoding: 59 59 22
Width: 180
GlyphClass: 2
Flags: W
LayerCount: 2
Fore
SplineSet
88 251 m 1
 1 393 l 1
 172 393 l 1
 88 251 l 1
EndSplineSet
EndChar

StartChar: less
Encoding: 60 60 23
Width: 522
GlyphClass: 2
Flags: W
LayerCount: 2
Fore
SplineSet
238 -14 m 2
 222.999023438 -15.001953125 l 1
 185.999023438 -15.001953125 l 2
 144.666015625 -15.001953125 111.166015625 -4.6689453125 85.4990234375 15.998046875 c 0
 59.83203125 36.6650390625 46.9990234375 61.998046875 46.9990234375 91.998046875 c 0
 46.9990234375 154.665039062 83.33203125 191.33203125 155.999023438 201.999023438 c 1
 123.999023438 205.33203125 97.83203125 213.83203125 77.4990234375 227.499023438 c 0
 57.166015625 241.166015625 46.9990234375 259.333007812 46.9990234375 282 c 0
 46.9990234375 321.333007812 71.666015625 355.333007812 120.999023438 384 c 0
 140.33203125 393.333007812 159.665039062 399.5 178.998046875 402.5 c 0
 198.331054688 405.5 216.331054688 407 232.998046875 407 c 0
 249.665039062 407 263.665039062 406.666992188 274.998046875 406 c 0
 309.665039062 406 337.33203125 403 357.999023438 397 c 0
 375.33203125 392.333007812 386.999023438 390 392.999023438 390 c 0
 399.666015625 390 409.666015625 398 422.999023438 414 c 0
 427.666015625 414 431.333007812 411 434 405 c 1
 426.666992188 379.666992188 423 337 423 277 c 2
 423 146 l 2
 423 100 424.666992188 69 428 53 c 0
 431.333007812 37 439.333007812 29 452 29 c 0
 458 29 472 32.6669921875 494 40 c 0
 498 39.3330078125 500 34.5 500 25.5 c 0
 500 16.5 497.666992188 10.6669921875 493 8 c 0
 440.333007812 0.6669921875 396.333007812 -10 361 -24 c 0
 353.666992188 -24 350 -21.3330078125 350 -16 c 0
 350 2 346.666992188 11 340 11 c 0
 311.333007812 -5.6669921875 277.333007812 -14 238 -14 c 2
279.999023438 24.998046875 m 0
 309.33203125 30.998046875 329.998046875 40.0009765625 341.998046875 52.0009765625 c 0
 347.998046875 60.66796875 350.998046875 74.0009765625 350.998046875 92.0009765625 c 2
 350.998046875 241.000976562 l 2
 350.998046875 284.333984375 346.665039062 314.000976562 337.998046875 330.000976562 c 0
 324.665039062 354.000976562 295.33203125 369.333984375 249.999023438 376.000976562 c 0
 241.999023438 377.333984375 235.666015625 378.000976562 230.999023438 378.000976562 c 0
 202.999023438 378.000976562 178.166015625 371.000976562 156.499023438 357.000976562 c 0
 134.83203125 343.000976562 121.665039062 322.000976562 116.998046875 294.000976562 c 0
 113.665039062 269.333984375 118.498046875 250.000976562 131.498046875 236.000976562 c 0
 144.498046875 222.000976562 162.998046875 218.66796875 186.998046875 226.000976562 c 0
 209.665039062 231.333984375 225.33203125 230.166992188 233.999023438 222.5 c 0
 242.666015625 214.833007812 243.999023438 205.666015625 237.999023438 194.999023438 c 0
 231.999023438 184.33203125 222.33203125 180.33203125 208.999023438 182.999023438 c 0
 205.666015625 183.666015625 202.666015625 184.166015625 199.999023438 184.499023438 c 0
 197.33203125 184.83203125 191.33203125 184.665039062 181.999023438 183.998046875 c 0
 168.666015625 178.665039062 156.499023438 167.165039062 145.499023438 149.498046875 c 0
 134.499023438 131.831054688 128.999023438 113.331054688 128.999023438 93.998046875 c 0
 128.999023438 53.3310546875 156.33203125 29.998046875 210.999023438 23.998046875 c 0
 234.999023438 20.6650390625 257.999023438 20.998046875 279.999023438 24.998046875 c 0
222.998046875 -119.999023438 m 2
 303.997070312 -153.998046875 l 2
 321.997070312 -161.331054688 335.997070312 -160.998046875 345.997070312 -152.998046875 c 0
 355.997070312 -144.998046875 367.6640625 -128.998046875 380.997070312 -104.998046875 c 0
 382.997070312 -101.665039062 386.1640625 -100.33203125 390.497070312 -100.999023438 c 0
 394.830078125 -101.666015625 397.330078125 -104.333007812 397.997070312 -109 c 0
 399.997070312 -141 391.6640625 -167.666992188 372.997070312 -189 c 0
 360.997070312 -203 346.330078125 -210.666992188 328.997070312 -212 c 0
 311.6640625 -213.333007812 296.331054688 -211.666015625 282.998046875 -206.999023438 c 2
 203.998046875 -172.999023438 l 2
 175.331054688 -161.666015625 146.998046875 -178.666015625 118.998046875 -223.999023438 c 0
 116.998046875 -226.666015625 113.998046875 -227.333007812 109.998046875 -226 c 0
 105.998046875 -224.666992188 103.331054688 -222 101.998046875 -218 c 0
 99.3310546875 -196.666992188 111.998046875 -170.666992188 139.998046875 -140 c 0
 147.998046875 -129.333007812 160.165039062 -121.666015625 176.498046875 -116.999023438 c 0
 192.831054688 -112.33203125 208.331054688 -113.33203125 222.998046875 -119.999023438 c 2
EndSplineSet
EndChar

StartChar: equal
Encoding: 61 61 24
Width: 621
GlyphClass: 2
Flags: W
LayerCount: 2
Fore
SplineSet
45 326 m 0
 45 378.666992188 54.66796875 428.333984375 74.0009765625 475.000976562 c 0
 93.333984375 521.66796875 119.333984375 559.66796875 152.000976562 589.000976562 c 0
 213.333984375 645.66796875 290.000976562 674.000976562 382.000976562 674.000976562 c 0
 436.000976562 674.000976562 486.000976562 666.000976562 532.000976562 650.000976562 c 0
 545.333984375 647.333984375 553.333984375 646.333984375 556.000976562 647.000976562 c 1
 558.000976562 601.66796875 562.000976562 552.66796875 568.000976562 500.000976562 c 0
 566.000976562 496.66796875 562.500976562 494.66796875 557.500976562 494.000976562 c 0
 552.500976562 493.333984375 548.333984375 494.666992188 545.000976562 498 c 0
 526.333984375 595.333007812 468.333984375 644 371.000976562 644 c 0
 301.66796875 644 244.16796875 618 198.500976562 566 c 0
 152.833984375 514 130.000976562 438.666992188 130.000976562 340 c 0
 130.000976562 238 154.000976562 158.333007812 202.000976562 101 c 0
 250.000976562 43.6669921875 310.333984375 15 383.000976562 15 c 0
 431.66796875 15 470.334960938 29.3330078125 499.001953125 58 c 0
 527.668945312 86.6669921875 548.001953125 120 560.001953125 158 c 0
 562.668945312 160.666992188 566.668945312 161.666992188 572.001953125 161 c 0
 577.334960938 160.333007812 581.001953125 157.666015625 583.001953125 152.999023438 c 0
 579.668945312 127.666015625 573.501953125 100.833007812 564.501953125 72.5 c 0
 555.501953125 44.1669921875 548.001953125 25.6669921875 542.001953125 17 c 1
 532.668945312 15 522.668945312 11.6669921875 512.001953125 7 c 0
 475.334960938 -8.3330078125 430.66796875 -16 378.000976562 -16 c 0
 293.333984375 -16 222.666992188 6 166 50 c 0
 85.3330078125 116.666992188 45 208.666992188 45 326 c 0
372.000976562 -60 m 1
 502.000976562 -276 l 1
 238.000976562 -276 l 1
 372.000976562 -60 l 1
371.000976562 -134 m 1
 298.000976562 -243 l 1
 442.000976562 -243 l 1
 371.000976562 -134 l 1
EndSplineSet
EndChar

StartChar: greater
Encoding: 62 62 25
Width: 535
GlyphClass: 2
Flags: W
LayerCount: 2
Fore
SplineSet
322 404 m 0
 354 410.666992188 382.499023438 405.499023438 407.499023438 388.499023438 c 0
 432.499023438 371.499023438 451.999023438 346.166015625 465.999023438 312.499023438 c 0
 479.999023438 278.83203125 486.999023438 240.33203125 486.999023438 196.999023438 c 0
 486.999023438 153.666015625 479.499023438 116.333007812 464.499023438 85 c 0
 449.499023438 53.6669921875 425.666015625 29.1669921875 392.999023438 11.5 c 0
 360.33203125 -6.1669921875 320.33203125 -15 272.999023438 -15 c 0
 198.999023438 -15 142.166015625 3.8330078125 102.499023438 41.5 c 0
 62.83203125 79.1669921875 42.33203125 129.333984375 40.9990234375 192.000976562 c 0
 42.33203125 258.66796875 57.83203125 312.334960938 87.4990234375 353.001953125 c 0
 117.166015625 393.668945312 158.333007812 411.668945312 211 407.001953125 c 0
 225 406.334960938 237 401.66796875 247 393.000976562 c 0
 257 384.333984375 264 374.666992188 268 364 c 0
 270 360.666992188 272.666992188 360.666992188 276 364 c 0
 290.666992188 386.666992188 306 400 322 404 c 0
343.999023438 369.999023438 m 0
 336.666015625 370.666015625 327.833007812 367.33203125 317.5 359.999023438 c 0
 307.166992188 352.666015625 299 344.666015625 293 335.999023438 c 0
 286.333007812 323.33203125 283.333007812 300.999023438 284 268.999023438 c 0
 287.333007812 255.666015625 284.833007812 245.666015625 276.5 238.999023438 c 0
 268.166992188 232.33203125 259.666992188 231.499023438 251 236.499023438 c 0
 242.333007812 241.499023438 239 251.999023438 241 267.999023438 c 0
 245.666992188 299.999023438 243.666992188 325.499023438 235 344.499023438 c 0
 226.333007812 363.499023438 212.666015625 371.999023438 193.999023438 369.999023438 c 0
 173.33203125 367.33203125 157.499023438 349.499023438 146.499023438 316.499023438 c 0
 135.499023438 283.499023438 129.33203125 246.33203125 127.999023438 204.999023438 c 0
 127.999023438 78.33203125 174.999023438 14.6650390625 268.999023438 13.998046875 c 0
 360.33203125 14.6650390625 405.999023438 73.33203125 405.999023438 189.999023438 c 0
 407.33203125 231.999023438 402.999023438 271.499023438 392.999023438 308.499023438 c 0
 382.999023438 345.499023438 366.666015625 365.999023438 343.999023438 369.999023438 c 0
EndSplineSet
EndChar

StartChar: question
Encoding: 63 63 26
Width: 532
GlyphClass: 2
Flags: W
LayerCount: 2
Fore
SplineSet
443 10 m 1
 506.000976562 9.9970703125 l 1
 506.000976562 -26.0029296875 l 1
 443.000976562 -26.0029296875 l 1
 443.000976562 -114.002929688 l 1
 467.000976562 -132.669921875 487.66796875 -156.002929688 505.000976562 -184.002929688 c 0
 522.333984375 -212.002929688 531.333984375 -237.669921875 532.000976562 -261.002929688 c 0
 532.000976562 -267.669921875 530.000976562 -272.336914062 526.000976562 -275.00390625 c 0
 522.000976562 -277.670898438 517.500976562 -278.670898438 512.500976562 -278.00390625 c 0
 507.500976562 -277.336914062 503.333984375 -274.336914062 500.000976562 -269.00390625 c 0
 498.66796875 -266.336914062 495.500976562 -259.00390625 490.500976562 -247.00390625 c 0
 485.500976562 -235.00390625 478.66796875 -222.336914062 470.000976562 -209.00390625 c 0
 461.333984375 -195.670898438 450.666992188 -183.337890625 438 -172.004882812 c 1
 434.666992188 -192.004882812 429 -209.004882812 421 -223.004882812 c 0
 411 -238.337890625 398.5 -250.337890625 383.5 -259.004882812 c 0
 368.5 -267.671875 351.333007812 -272.004882812 332 -272.004882812 c 0
 319.333007812 -272.004882812 307 -270.671875 295 -268.004882812 c 0
 273.666992188 -260.671875 256.166992188 -248.171875 242.5 -230.504882812 c 0
 228.833007812 -212.837890625 222 -192.670898438 222 -170.00390625 c 0
 222 -141.336914062 232 -117.00390625 252 -97.00390625 c 0
 272 -77.00390625 296.333007812 -67.00390625 325 -67.00390625 c 0
 343 -67.00390625 357.666992188 -70.3369140625 369 -77.00390625 c 1
 369 -63.00390625 l 1
 369 -26.00390625 l 1
 284 -26.00390625 l 1
 284 9.99609375 l 1
 369 9.99609375 l 1
 369 142.99609375 l 1
 369 259.99609375 l 2
 369 325.99609375 337.666992188 358.99609375 275 358.99609375 c 0
 235.666992188 358.99609375 207.333984375 347.329101562 190.000976562 323.99609375 c 0
 180.000976562 311.99609375 175.000976562 292.329101562 175.000976562 264.99609375 c 2
 175.000976562 110.99609375 l 2
 175.000976562 84.3291015625 175.66796875 65.8291015625 177.000976562 55.49609375 c 0
 178.333984375 45.1630859375 181.500976562 37.99609375 186.500976562 33.99609375 c 0
 191.500976562 29.99609375 200.333984375 26.99609375 213.000976562 24.99609375 c 2
 239.000976562 21.99609375 l 2
 243.000976562 19.99609375 244.66796875 15.8291015625 244.000976562 9.49609375 c 0
 243.333984375 3.1630859375 241.000976562 -1.00390625 237.000976562 -3.00390625 c 0
 202.333984375 -1.00390625 169.333984375 -0.00390625 138.000976562 -0.00390625 c 0
 106.000976562 -0.00390625 72.0009765625 -1.00390625 36.0009765625 -3.00390625 c 0
 32.0009765625 -0.3369140625 29.66796875 3.830078125 29.0009765625 9.4970703125 c 0
 28.333984375 15.1640625 30.0009765625 19.3310546875 34.0009765625 21.998046875 c 2
 63.0009765625 24.998046875 l 2
 81.0009765625 26.998046875 91.833984375 32.498046875 95.5009765625 41.498046875 c 0
 99.16796875 50.498046875 101.000976562 73.6650390625 101.000976562 110.998046875 c 2
 101.000976562 286.998046875 l 2
 101.000976562 313.665039062 99.0009765625 330.165039062 95.0009765625 336.498046875 c 0
 91.0009765625 342.831054688 77.66796875 348.6640625 55.0009765625 353.997070312 c 2
 46.0009765625 355.997070312 l 2
 44.0009765625 357.997070312 43.0009765625 360.830078125 43.0009765625 364.497070312 c 0
 43.0009765625 368.1640625 44.333984375 370.6640625 47.0009765625 371.997070312 c 0
 101.000976562 380.6640625 141.333984375 400.331054688 168.000976562 430.998046875 c 1
 173.333984375 429.665039062 176.000976562 427.33203125 176.000976562 423.999023438 c 2
 176.000976562 366.999023438 l 2
 176.000976562 357.666015625 179.333984375 353.999023438 186.000976562 355.999023438 c 0
 212.66796875 372.666015625 236.66796875 385.333007812 258.000976562 394 c 0
 279.333984375 402.666992188 302.000976562 407 326.000976562 407 c 0
 365.333984375 407 394.666992188 395.833007812 414 373.5 c 0
 433.333007812 351.166992188 443 321.666992188 443 285 c 2
 443 145 l 1
 443 10 l 1
322.000976562 -225.002929688 m 0
 335.333984375 -225.002929688 347.668945312 -220.336914062 359.001953125 -211.00390625 c 0
 370.334960938 -201.670898438 375.66796875 -188.670898438 375.000976562 -172.00390625 c 0
 373.66796875 -133.336914062 356.66796875 -114.00390625 324.000976562 -114.00390625 c 0
 304.66796875 -114.00390625 289.66796875 -123.00390625 279.000976562 -141.00390625 c 0
 275.000976562 -147.670898438 273.000976562 -156.670898438 273.000976562 -168.00390625 c 0
 273.000976562 -183.336914062 277.833984375 -196.669921875 287.500976562 -208.002929688 c 0
 297.16796875 -219.3359375 308.66796875 -225.002929688 322.000976562 -225.002929688 c 0
261.002929688 665.99609375 m 0
 285.669921875 665.99609375 306.333007812 657.665039062 323 640.998046875 c 0
 339.666992188 624.331054688 348 603.6640625 348 578.997070312 c 0
 348 553.6640625 339.333007812 532.6640625 322 515.997070312 c 0
 304.666992188 499.330078125 284.333984375 490.997070312 261.000976562 490.997070312 c 0
 237.66796875 490.997070312 217.334960938 499.6640625 200.001953125 516.997070312 c 0
 182.668945312 534.330078125 174.001953125 554.997070312 174.001953125 578.997070312 c 0
 174.001953125 602.330078125 182.334960938 622.663085938 199.001953125 639.99609375 c 0
 215.668945312 657.329101562 236.3359375 665.99609375 261.002929688 665.99609375 c 0
260.999023438 636.998046875 m 0
 244.33203125 636.998046875 230.33203125 631.331054688 218.999023438 619.998046875 c 0
 207.666015625 608.665039062 201.999023438 594.998046875 201.999023438 578.998046875 c 0
 201.999023438 563.665039062 207.999023438 549.998046875 219.999023438 537.998046875 c 0
 231.999023438 525.998046875 245.666015625 519.998046875 260.999023438 519.998046875 c 0
 276.33203125 519.998046875 289.999023438 525.665039062 301.999023438 536.998046875 c 0
 313.999023438 548.331054688 319.999023438 562.331054688 319.999023438 578.998046875 c 0
 319.999023438 596.331054688 314.33203125 610.331054688 302.999023438 620.998046875 c 0
 291.666015625 631.665039062 277.666015625 636.998046875 260.999023438 636.998046875 c 0
EndSplineSet
EndChar

StartChar: at
Encoding: 64 64 27
Width: 291
GlyphClass: 2
Flags: W
LayerCount: 2
Fore
SplineSet
107 37 m 1
 107 282.00390625 l 2
 107 319.336914062 105.166992188 342.50390625 101.5 351.50390625 c 0
 97.8330078125 360.50390625 87 366.00390625 69 368.00390625 c 2
 40 371.00390625 l 2
 36.6669921875 375.00390625 35.1669921875 379.836914062 35.5 385.50390625 c 0
 35.8330078125 391.170898438 38 394.670898438 42 396.00390625 c 0
 80 394.00390625 114 393.00390625 144 393.00390625 c 0
 176 393.00390625 210 394.00390625 246 396.00390625 c 0
 250 395.336914062 252.333007812 391.669921875 253 385.002929688 c 0
 253.666992188 378.3359375 252 373.668945312 248 371.001953125 c 2
 219 368.001953125 l 2
 201 366.001953125 190.166992188 360.501953125 186.5 351.501953125 c 0
 182.833007812 342.501953125 181 319.334960938 181 282.001953125 c 2
 181 106.001953125 l 2
 181 82.001953125 183 66.501953125 187 59.501953125 c 0
 191 52.501953125 204.666992188 45.6689453125 228 39.001953125 c 2
 237 37.001953125 l 2
 239 35.001953125 240 32.001953125 240 28.001953125 c 0
 240 24.001953125 238.666992188 21.6689453125 236 21.001953125 c 0
 182 12.3349609375 141.666992188 -7.33203125 115 -37.9990234375 c 1
 107 -36.666015625 103 -34.3330078125 103 -31 c 2
 107 37 l 1
144 -222.99609375 m 0
 127.333007812 -222.99609375 113.999023438 -217.49609375 103.999023438 -206.49609375 c 0
 93.9990234375 -195.49609375 88.9990234375 -181.663085938 88.9990234375 -164.99609375 c 0
 88.9990234375 -146.99609375 94.4990234375 -133.163085938 105.499023438 -123.49609375 c 0
 116.499023438 -113.829101562 130.33203125 -108.99609375 146.999023438 -108.99609375 c 0
 163.666015625 -108.99609375 177.333007812 -114.329101562 188 -124.99609375 c 0
 198.666992188 -135.663085938 204 -148.330078125 204 -162.997070312 c 0
 204 -180.330078125 198 -194.663085938 186 -205.99609375 c 0
 174 -217.329101562 160 -222.99609375 144 -222.99609375 c 0
117.999023438 578.00390625 m 2
 198.998046875 542.002929688 l 2
 216.998046875 534.669921875 230.998046875 535.169921875 240.998046875 543.502929688 c 0
 250.998046875 551.8359375 262.665039062 568.002929688 275.998046875 592.002929688 c 0
 277.998046875 596.002929688 281.165039062 597.669921875 285.498046875 597.002929688 c 0
 289.831054688 596.3359375 292.331054688 593.3359375 292.998046875 588.002929688 c 0
 294.998046875 555.3359375 286.665039062 528.3359375 267.998046875 507.002929688 c 0
 256.665039062 494.3359375 242.665039062 487.002929688 225.998046875 485.002929688 c 0
 209.331054688 483.002929688 193.331054688 484.669921875 177.998046875 490.002929688 c 2
 98.998046875 523.002929688 l 2
 71.6650390625 535.002929688 43.33203125 518.669921875 13.9990234375 474.002929688 c 0
 11.9990234375 470.002929688 8.83203125 469.002929688 4.4990234375 471.002929688 c 0
 0.166015625 473.002929688 -2.333984375 475.669921875 -3.0009765625 479.002929688 c 0
 -5.66796875 501.002929688 6.9990234375 527.3359375 34.9990234375 558.002929688 c 0
 42.9990234375 568.669921875 55.166015625 576.336914062 71.4990234375 581.00390625 c 0
 87.83203125 585.670898438 103.33203125 584.670898438 117.999023438 578.00390625 c 2
EndSplineSet
EndChar

StartChar: A
Encoding: 65 65 28
Width: 521
GlyphClass: 2
Flags: W
LayerCount: 2
Fore
SplineSet
447 -27 m 1
 446.999023438 -52.0078125 l 2
 446.999023438 -69.3408203125 446.666015625 -88.3408203125 445.999023438 -109.0078125 c 0
 443.999023438 -161.0078125 430.83203125 -201.0078125 406.499023438 -229.0078125 c 0
 382.166015625 -257.0078125 353.499023438 -271.0078125 320.499023438 -271.0078125 c 0
 287.499023438 -271.0078125 258.999023438 -259.0078125 234.999023438 -235.0078125 c 0
 220.999023438 -221.0078125 218.33203125 -201.340820312 226.999023438 -176.0078125 c 0
 232.33203125 -163.340820312 242.499023438 -156.673828125 257.499023438 -156.006835938 c 0
 272.499023438 -155.33984375 281.33203125 -160.33984375 283.999023438 -171.006835938 c 0
 285.33203125 -185.673828125 286.499023438 -198.673828125 287.499023438 -210.006835938 c 0
 288.499023438 -221.33984375 292.999023438 -230.006835938 300.999023438 -236.006835938 c 0
 308.999023438 -242.006835938 324.33203125 -241.33984375 346.999023438 -234.006835938 c 0
 357.666015625 -231.33984375 364.833007812 -223.672851562 368.5 -211.005859375 c 0
 372.166992188 -198.338867188 374 -178.171875 374 -150.504882812 c 0
 374 -122.837890625 373.666992188 -94.6708984375 373 -66.00390625 c 2
 373 -27.00390625 l 1
 304 -27.00390625 l 1
 304 8.99609375 l 1
 373 8.99609375 l 1
 373 259.99609375 l 2
 373 325.99609375 341.666992188 358.99609375 279 358.99609375 c 0
 239.666992188 358.99609375 211.333984375 347.329101562 194.000976562 323.99609375 c 0
 184.000976562 311.99609375 179.000976562 292.329101562 179.000976562 264.99609375 c 2
 179.000976562 110.99609375 l 2
 179.000976562 84.3291015625 179.66796875 65.8291015625 181.000976562 55.49609375 c 0
 182.333984375 45.1630859375 185.500976562 37.99609375 190.500976562 33.99609375 c 0
 195.500976562 29.99609375 204.333984375 26.99609375 217.000976562 24.99609375 c 2
 244.000976562 21.99609375 l 2
 248.000976562 19.99609375 249.66796875 15.8291015625 249.000976562 9.49609375 c 0
 248.333984375 3.1630859375 246.000976562 -1.00390625 242.000976562 -3.00390625 c 0
 206.000976562 -1.00390625 172.66796875 -0.00390625 142.000976562 -0.00390625 c 0
 110.000976562 -0.00390625 76.333984375 -1.00390625 41.0009765625 -3.00390625 c 0
 37.0009765625 -0.3369140625 34.66796875 3.830078125 34.0009765625 9.4970703125 c 0
 33.333984375 15.1640625 35.0009765625 19.3310546875 39.0009765625 21.998046875 c 2
 67.0009765625 24.998046875 l 2
 85.0009765625 26.998046875 95.833984375 32.498046875 99.5009765625 41.498046875 c 0
 103.16796875 50.498046875 105.000976562 73.6650390625 105.000976562 110.998046875 c 2
 105.000976562 286.998046875 l 2
 105.000976562 312.998046875 102.66796875 329.331054688 98.0009765625 335.998046875 c 0
 93.333984375 342.665039062 80.0009765625 348.665039062 58.0009765625 353.998046875 c 2
 49.0009765625 355.998046875 l 2
 47.0009765625 357.998046875 46.0009765625 360.831054688 46.0009765625 364.498046875 c 0
 46.0009765625 368.165039062 47.333984375 370.665039062 50.0009765625 371.998046875 c 0
 104.000976562 380.665039062 144.333984375 400.33203125 171.000976562 430.999023438 c 1
 176.333984375 429.666015625 179.000976562 427.333007812 179.000976562 424 c 2
 179.000976562 367 l 2
 179.000976562 359.666992188 182.66796875 356 190.000976562 356 c 0
 216.66796875 372.666992188 240.66796875 385.333984375 262.000976562 394.000976562 c 0
 283.333984375 402.66796875 306.000976562 407.000976562 330.000976562 407.000976562 c 0
 369.333984375 407.000976562 398.666992188 395.66796875 418 373.000976562 c 0
 437.333007812 350.333984375 447 320.666992188 447 284 c 2
 447 9 l 1
 506 9 l 1
 506 -27 l 1
 447 -27 l 1
EndSplineSet
EndChar

StartChar: B
Encoding: 66 66 29
Width: 465
GlyphClass: 2
Flags: W
LayerCount: 2
Fore
SplineSet
192 72 m 1
 102.99609375 71.99609375 l 1
 102.99609375 117.99609375 l 1
 184.99609375 117.99609375 l 1
 178.329101562 156.663085938 172.662109375 184.663085938 167.995117188 201.99609375 c 0
 153.328125 259.329101562 138.995117188 297.662109375 124.995117188 316.995117188 c 0
 118.995117188 329.662109375 105.995117188 337.995117188 85.9951171875 341.995117188 c 0
 65.9951171875 345.995117188 51.328125 340.328125 41.9951171875 324.995117188 c 0
 37.328125 311.662109375 35.4951171875 297.495117188 36.4951171875 282.495117188 c 0
 37.4951171875 267.495117188 38.328125 252.995117188 38.9951171875 238.995117188 c 1
 16.9951171875 238.995117188 l 1
 9.662109375 262.995117188 5.3291015625 282.328125 3.99609375 296.995117188 c 0
 2.6630859375 311.662109375 5.99609375 330.662109375 13.99609375 353.995117188 c 0
 29.3291015625 397.328125 65.3291015625 413.661132812 121.99609375 402.994140625 c 1
 157.329101562 391.661132812 182.662109375 350.328125 197.995117188 278.995117188 c 0
 201.995117188 258.995117188 207.328125 232.662109375 213.995117188 199.995117188 c 0
 220.662109375 167.328125 225.995117188 139.995117188 229.995117188 117.995117188 c 1
 229.995117188 113.995117188 l 1
 230.662109375 117.995117188 231.329101562 122.495117188 231.99609375 127.495117188 c 0
 232.663085938 132.495117188 234.330078125 145.828125 236.997070312 167.495117188 c 0
 239.6640625 189.162109375 242.6640625 210.329101562 245.997070312 230.99609375 c 0
 249.330078125 251.663085938 251.997070312 267.663085938 253.997070312 278.99609375 c 0
 267.997070312 350.329101562 292.6640625 391.662109375 327.997070312 402.995117188 c 0
 345.997070312 407.662109375 366.497070312 407.495117188 389.497070312 402.495117188 c 0
 412.497070312 397.495117188 428.6640625 381.328125 437.997070312 353.995117188 c 0
 445.997070312 330.662109375 449.330078125 312.829101562 447.997070312 300.49609375 c 0
 446.6640625 288.163085938 441.6640625 267.663085938 432.997070312 238.99609375 c 1
 410.997070312 238.99609375 l 1
 410.997070312 242.329101562 411.6640625 253.662109375 412.997070312 272.995117188 c 0
 414.330078125 292.328125 412.997070312 308.328125 408.997070312 320.995117188 c 0
 404.997070312 334.995117188 397.330078125 342.995117188 385.997070312 344.995117188 c 0
 374.6640625 346.995117188 362.831054688 344.495117188 350.498046875 337.495117188 c 0
 338.165039062 330.495117188 329.998046875 322.328125 325.998046875 312.995117188 c 0
 307.998046875 274.995117188 294.331054688 237.995117188 284.998046875 201.995117188 c 0
 278.331054688 178.662109375 272.998046875 150.662109375 268.998046875 117.995117188 c 1
 347.998046875 117.995117188 l 1
 347.998046875 71.9951171875 l 1
 263.998046875 71.9951171875 l 1
 261.331054688 37.328125 259.998046875 10.9951171875 259.998046875 -7.0048828125 c 0
 260.665039062 -37.671875 261.998046875 -72.5048828125 263.998046875 -111.504882812 c 0
 265.998046875 -150.504882812 266.331054688 -183.004882812 264.998046875 -209.004882812 c 0
 263.665039062 -228.337890625 260.998046875 -243.004882812 256.998046875 -253.004882812 c 0
 252.998046875 -263.004882812 243.998046875 -268.337890625 229.998046875 -269.004882812 c 0
 213.998046875 -268.337890625 203.831054688 -263.170898438 199.498046875 -253.50390625 c 0
 195.165039062 -243.836914062 192.33203125 -228.00390625 190.999023438 -206.00390625 c 2
 190.999023438 -159.50390625 l 2
 190.999023438 -145.836914062 191.83203125 -128.169921875 193.499023438 -106.502929688 c 0
 195.166015625 -84.8359375 196.333007812 -69.1689453125 197 -59.501953125 c 0
 197.666992188 -49.8349609375 198.666992188 -32.66796875 200 -8.0009765625 c 0
 198.666992188 10.666015625 196 37.3330078125 192 72 c 1
EndSplineSet
EndChar

StartChar: C
Encoding: 67 67 30
Width: 599
GlyphClass: 2
Flags: W
LayerCount: 2
Fore
SplineSet
391 393 m 1
 405.666992188 402.333007812 424.336914062 407.000976562 447.00390625 407.000976562 c 0
 486.336914062 407.000976562 519.336914062 400.66796875 546.00390625 388.000976562 c 1
 558.00390625 364.66796875 564.670898438 338.334960938 566.00390625 309.001953125 c 0
 564.00390625 305.668945312 560.50390625 303.3359375 555.50390625 302.002929688 c 0
 550.50390625 300.669921875 546.00390625 302.002929688 542.00390625 306.002929688 c 0
 528.00390625 330.002929688 514.170898438 348.002929688 500.50390625 360.002929688 c 0
 486.836914062 372.002929688 470.669921875 378.002929688 452.002929688 378.002929688 c 0
 431.3359375 378.002929688 414.002929688 369.502929688 400.002929688 352.502929688 c 0
 386.002929688 335.502929688 379.002929688 312.002929688 379.002929688 282.002929688 c 0
 379.002929688 229.3359375 395.002929688 184.8359375 427.002929688 148.502929688 c 0
 459.002929688 112.169921875 491.002929688 75.5029296875 523.002929688 38.5029296875 c 0
 555.002929688 1.5029296875 571.3359375 -43.9970703125 572.002929688 -97.9970703125 c 0
 572.002929688 -139.330078125 560.669921875 -176.330078125 538.002929688 -208.997070312 c 1
 541.3359375 -214.330078125 547.668945312 -219.997070312 557.001953125 -225.997070312 c 0
 580.334960938 -247.997070312 595.834960938 -262.997070312 603.501953125 -270.997070312 c 0
 611.168945312 -278.997070312 615.668945312 -288.330078125 617.001953125 -298.997070312 c 1
 605.668945312 -310.997070312 593.3359375 -311.330078125 580.002929688 -299.997070312 c 0
 561.3359375 -284.6640625 548.168945312 -272.831054688 540.501953125 -264.498046875 c 0
 532.834960938 -256.165039062 521.66796875 -246.998046875 507.000976562 -236.998046875 c 1
 480.333984375 -266.331054688 438.333984375 -277.331054688 381.000976562 -269.998046875 c 0
 348.333984375 -262.665039062 326.000976562 -253.33203125 314.000976562 -241.999023438 c 0
 295.333984375 -224.666015625 286.666992188 -202.333007812 288 -175 c 0
 290.666992188 -152.333007812 300.5 -134.5 317.5 -121.5 c 0
 334.5 -108.5 355 -103 379 -105 c 0
 398.333007812 -106.333007812 418.333007812 -113.666015625 439 -126.999023438 c 0
 459.666992188 -140.33203125 476.666992188 -154.665039062 490 -169.998046875 c 0
 498.666992188 -180.665039062 503.666992188 -184.998046875 505 -182.998046875 c 0
 508.333007812 -176.331054688 510 -162.6640625 510 -141.997070312 c 0
 509.333007812 -100.6640625 500.833007812 -66.8310546875 484.5 -40.498046875 c 0
 468.166992188 -14.1650390625 444.166992188 15.8349609375 412.5 49.501953125 c 0
 380.833007812 83.1689453125 357 115.501953125 341 146.501953125 c 0
 325 177.501953125 317 216.001953125 317 262.001953125 c 0
 317 294.668945312 326.333007812 324.3359375 345 351.002929688 c 1
 179 351.002929688 l 2
 170.333007812 351.002929688 165.166015625 349.8359375 163.499023438 347.502929688 c 0
 161.83203125 345.169921875 160.999023438 338.669921875 160.999023438 328.002929688 c 2
 160.999023438 141.002929688 l 2
 160.999023438 105.669921875 165.83203125 78.169921875 175.499023438 58.5029296875 c 0
 185.166015625 38.8359375 204.666015625 29.0029296875 233.999023438 29.0029296875 c 0
 243.999023438 29.0029296875 252.999023438 31.0029296875 260.999023438 35.0029296875 c 0
 264.33203125 36.3359375 269.33203125 39.0029296875 275.999023438 43.0029296875 c 2
 285.999023438 49.0029296875 l 2
 289.33203125 49.0029296875 292.165039062 47.169921875 294.498046875 43.5029296875 c 0
 296.831054688 39.8359375 297.331054688 35.6689453125 295.998046875 31.001953125 c 0
 268.665039062 0.3349609375 233.665039062 -14.998046875 190.998046875 -14.998046875 c 0
 121.665039062 -14.998046875 86.998046875 25.3349609375 86.998046875 106.001953125 c 2
 86.998046875 322.001953125 l 2
 86.998046875 336.001953125 85.998046875 344.334960938 83.998046875 347.001953125 c 0
 81.998046875 349.668945312 75.998046875 351.001953125 65.998046875 351.001953125 c 2
 37.998046875 351.001953125 l 2
 34.6650390625 353.001953125 32.83203125 356.168945312 32.4990234375 360.501953125 c 0
 32.166015625 364.834960938 32.9990234375 368.66796875 34.9990234375 372.000976562 c 0
 64.9990234375 381.333984375 86.33203125 391.666992188 98.9990234375 403 c 0
 119.666015625 421.666992188 133.666015625 462.666992188 140.999023438 526 c 1
 150.999023438 530 157.999023438 528.333007812 161.999023438 521 c 1
 161.999023438 412 l 2
 161.999023438 402.666992188 162.83203125 397.166992188 164.499023438 395.5 c 0
 166.166015625 393.833007812 171.333007812 393 180 393 c 2
 391 393 l 1
334.002929688 -187.999023438 m 0
 340.002929688 -219.33203125 365.001953125 -237.666992188 409.001953125 -243 c 0
 415.668945312 -244.333007812 422.3359375 -244.333007812 429.002929688 -243 c 0
 447.002929688 -240.333007812 461.669921875 -234 473.002929688 -224 c 2
 482.002929688 -215 l 1
 461.3359375 -194.333007812 441.002929688 -178.166015625 421.002929688 -166.499023438 c 0
 401.002929688 -154.83203125 386.002929688 -148.999023438 376.002929688 -148.999023438 c 0
 359.3359375 -148.999023438 347.002929688 -153.999023438 339.002929688 -163.999023438 c 0
 333.669921875 -170.666015625 332.002929688 -178.666015625 334.002929688 -187.999023438 c 0
EndSplineSet
EndChar

StartChar: D
Encoding: 68 68 31
Width: 504
GlyphClass: 2
Flags: W
LayerCount: 2
Fore
SplineSet
350 600 m 2
 350 620.666992188 345.666992188 633.336914062 337 638.00390625 c 0
 328.333007812 642.670898438 312 645.670898438 288 647.00390625 c 2
 270 649.00390625 l 2
 268 652.336914062 267 656.169921875 267 660.502929688 c 0
 267 664.8359375 268.333007812 667.668945312 271 669.001953125 c 0
 316.333007812 684.334960938 363 704.66796875 411 730.000976562 c 1
 425 727.333984375 432 724.333984375 432 721.000976562 c 2
 424 646.000976562 l 1
 424 -142.999023438 l 2
 424 -169.666015625 424.666992188 -187.999023438 426 -197.999023438 c 0
 427.333007812 -207.999023438 430.5 -214.999023438 435.5 -218.999023438 c 0
 440.5 -222.999023438 449.333007812 -225.999023438 462 -227.999023438 c 2
 501 -231.999023438 l 2
 505 -233.999023438 506.666992188 -238.166015625 506 -244.499023438 c 0
 505.333007812 -250.83203125 503 -254.999023438 499 -256.999023438 c 0
 451 -254.999023438 413.666992188 -253.999023438 387 -253.999023438 c 0
 357.666992188 -253.999023438 321 -254.999023438 277 -256.999023438 c 0
 273.666992188 -254.999023438 272 -250.83203125 272 -244.499023438 c 0
 272 -238.166015625 273.666992188 -233.999023438 277 -231.999023438 c 2
 312 -228.999023438 l 2
 330 -226.999023438 341.166992188 -220.666015625 345.5 -209.999023438 c 0
 349.833007812 -199.33203125 351 -176.999023438 349 -142.999023438 c 0
 349 -111.666015625 349.333007812 -74.9990234375 350 -32.9990234375 c 0
 350.666992188 9.0009765625 350 30.333984375 348 31.0009765625 c 2
 344 31.0009765625 l 1
 316.666992188 13.66796875 294.666992188 1.66796875 278 -4.9990234375 c 0
 261.333007812 -11.666015625 241.333007812 -14.9990234375 218 -14.9990234375 c 0
 164 -14.9990234375 120 3.66796875 86 41.0009765625 c 0
 52 78.333984375 35 123.666992188 35 177 c 0
 35 245.666992188 58 301.166992188 104 343.5 c 0
 150 385.833007812 207.666992188 407 277 407 c 0
 305 407 327.333007812 404 344 398 c 0
 348 398 350 402.666992188 350 412 c 2
 350 600 l 2
352 99.0029296875 m 2
 351.998046875 295.002929688 l 2
 351.998046875 308.3359375 347.665039062 321.3359375 338.998046875 334.002929688 c 0
 318.998046875 362.002929688 290.998046875 376.002929688 254.998046875 376.002929688 c 0
 211.665039062 376.002929688 177.83203125 359.8359375 153.499023438 327.502929688 c 0
 129.166015625 295.169921875 116.999023438 256.002929688 116.999023438 210.002929688 c 0
 116.999023438 162.002929688 130.33203125 120.669921875 156.999023438 86.0029296875 c 0
 183.666015625 51.3359375 219.999023438 34.0029296875 265.999023438 34.0029296875 c 0
 298.666015625 34.0029296875 324.333007812 43.3359375 343 62.0029296875 c 0
 349 68.0029296875 352 80.3359375 352 99.0029296875 c 2
EndSplineSet
EndChar

StartChar: E
Encoding: 69 69 32
Width: 408
GlyphClass: 2
Flags: W
LayerCount: 2
Fore
SplineSet
244 28 m 0
 260.666992188 31.3330078125 274.165039062 36.3388671875 284.498046875 43.005859375 c 0
 294.831054688 49.6728515625 300.6640625 57.33984375 301.997070312 66.0068359375 c 0
 306.6640625 87.33984375 319.331054688 97.6728515625 339.998046875 97.005859375 c 0
 348.665039062 97.005859375 355.165039062 93.6728515625 359.498046875 87.005859375 c 0
 363.831054688 80.3388671875 365.331054688 73.3388671875 363.998046875 66.005859375 c 0
 363.331054688 43.3388671875 333.6640625 20.3388671875 274.997070312 -2.994140625 c 0
 254.330078125 -10.994140625 223.997070312 -14.994140625 183.997070312 -14.994140625 c 0
 143.330078125 -14.994140625 110.163085938 -6.3271484375 84.49609375 11.005859375 c 0
 58.8291015625 28.3388671875 45.3291015625 52.005859375 43.99609375 82.005859375 c 0
 45.3291015625 108.672851562 53.3291015625 132.505859375 67.99609375 153.505859375 c 0
 82.6630859375 174.505859375 113.663085938 190.672851562 160.99609375 202.005859375 c 1
 130.329101562 205.338867188 104.162109375 215.505859375 82.4951171875 232.505859375 c 0
 60.828125 249.505859375 51.328125 269.338867188 53.9951171875 292.005859375 c 0
 56.662109375 314.672851562 62.4951171875 332.005859375 71.4951171875 344.005859375 c 0
 80.4951171875 356.005859375 95.662109375 369.672851562 116.995117188 385.005859375 c 0
 142.995117188 398.338867188 170.328125 405.838867188 198.995117188 407.505859375 c 0
 227.662109375 409.172851562 250.329101562 407.672851562 266.99609375 403.005859375 c 0
 288.99609375 398.338867188 309.329101562 390.171875 327.99609375 378.504882812 c 0
 346.663085938 366.837890625 355.99609375 354.670898438 355.99609375 342.00390625 c 0
 357.329101562 335.336914062 355.99609375 328.669921875 351.99609375 322.002929688 c 0
 347.99609375 315.3359375 341.329101562 311.668945312 331.99609375 311.001953125 c 0
 311.99609375 310.334960938 299.329101562 320.66796875 293.99609375 342.000976562 c 0
 292.663085938 349.333984375 285.830078125 357.166992188 273.497070312 365.5 c 0
 261.1640625 373.833007812 249.331054688 378 237.998046875 378 c 0
 209.331054688 379.333007812 182.998046875 373 158.998046875 359 c 0
 134.998046875 345 120.665039062 323.333007812 115.998046875 294 c 0
 112.665039062 270 118.83203125 250.666992188 134.499023438 236 c 0
 150.166015625 221.333007812 173.999023438 216 205.999023438 220 c 0
 223.999023438 224.666992188 237.166015625 223.666992188 245.499023438 217 c 0
 253.83203125 210.333007812 256.499023438 202.166015625 253.499023438 192.499023438 c 0
 250.499023438 182.83203125 243.33203125 177.33203125 231.999023438 175.999023438 c 0
 222.666015625 175.33203125 213.666015625 175.83203125 204.999023438 177.499023438 c 0
 196.33203125 179.166015625 187.999023438 179.333007812 179.999023438 178 c 0
 166.666015625 176.666992188 154.333007812 167.166992188 143 149.5 c 0
 131.666992188 131.833007812 126 113.333007812 126 94 c 0
 126.666992188 72.6669921875 135 55.6669921875 151 43 c 0
 167 30.3330078125 186.333007812 24 209 24 c 0
 222.333007812 24 234 25.3330078125 244 28 c 0
178.998046875 578.005859375 m 2
 259.997070312 542.004882812 l 2
 277.997070312 534.671875 291.997070312 535.171875 301.997070312 543.504882812 c 0
 311.997070312 551.837890625 323.6640625 568.004882812 336.997070312 592.004882812 c 0
 338.997070312 596.004882812 342.1640625 597.671875 346.497070312 597.004882812 c 0
 350.830078125 596.337890625 353.330078125 593.337890625 353.997070312 588.004882812 c 0
 355.997070312 555.337890625 347.6640625 528.337890625 328.997070312 507.004882812 c 0
 317.6640625 494.337890625 303.6640625 487.004882812 286.997070312 485.004882812 c 0
 270.330078125 483.004882812 254.330078125 484.671875 238.997070312 490.004882812 c 2
 159.997070312 523.004882812 l 2
 132.6640625 535.004882812 104.331054688 518.671875 74.998046875 474.004882812 c 0
 72.998046875 470.004882812 69.8310546875 469.004882812 65.498046875 471.004882812 c 0
 61.1650390625 473.004882812 58.6650390625 475.671875 57.998046875 479.004882812 c 0
 55.3310546875 501.004882812 67.998046875 527.337890625 95.998046875 558.004882812 c 0
 103.998046875 568.671875 116.165039062 576.338867188 132.498046875 581.005859375 c 0
 148.831054688 585.672851562 164.331054688 584.672851562 178.998046875 578.005859375 c 2
EndSplineSet
EndChar

StartChar: F
Encoding: 70 70 33
Width: 433
GlyphClass: 2
Flags: W
LayerCount: 2
Fore
SplineSet
252 196 m 1
 280.666992188 155.333007812 302.334960938 119.665039062 317.001953125 88.998046875 c 0
 331.668945312 58.3310546875 340.668945312 22.998046875 344.001953125 -17.001953125 c 0
 352.001953125 -87.001953125 343.668945312 -145.668945312 319.001953125 -193.001953125 c 0
 294.334960938 -240.334960938 260.66796875 -265.66796875 218.000976562 -269.000976562 c 0
 182.000976562 -269.66796875 152.16796875 -250.500976562 128.500976562 -211.500976562 c 0
 104.833984375 -172.500976562 92.333984375 -122.66796875 91.0009765625 -62.0009765625 c 0
 91.0009765625 -28.0009765625 96.66796875 6.4990234375 108.000976562 41.4990234375 c 0
 119.333984375 76.4990234375 139.666992188 119.999023438 169 171.999023438 c 0
 171 175.33203125 173.333007812 181.665039062 176 190.998046875 c 1
 60 187.998046875 l 1
 60 222.998046875 l 1
 167 219.998046875 l 1
 88 322.998046875 l 2
 66 348.998046875 44 364.331054688 22 368.998046875 c 2
 -2 370.998046875 l 2
 -4.6669921875 373.665039062 -5.6669921875 378.33203125 -5 384.999023438 c 0
 -4.3330078125 391.666015625 -2.666015625 395.333007812 0.0009765625 396 c 0
 47.333984375 394 79.0009765625 393 95.0009765625 393 c 0
 110.333984375 393 141.333984375 394 188.000976562 396 c 0
 191.333984375 394.666992188 193.333984375 391.166992188 194.000976562 385.5 c 0
 194.66796875 379.833007812 193.000976562 375 189.000976562 371 c 2
 166.000976562 369 l 2
 152.66796875 365.666992188 145.66796875 362.166992188 145.000976562 358.5 c 0
 144.333984375 354.833007812 148.333984375 346.333007812 157.000976562 333 c 2
 205.000976562 264 l 2
 208.333984375 258 212.666992188 252.333007812 218 247 c 1
 222 249.666992188 241.333007812 277.666992188 276 331 c 0
 284.666992188 343 288.333984375 351.666992188 287.000976562 357 c 0
 285.66796875 362.333007812 279.334960938 366.333007812 268.001953125 369 c 2
 248.001953125 371 l 2
 244.668945312 374.333007812 243.668945312 379.166015625 245.001953125 385.499023438 c 0
 246.334960938 391.83203125 248.66796875 395.33203125 252.000976562 395.999023438 c 0
 283.333984375 393.999023438 310.333984375 392.999023438 333.000976562 392.999023438 c 0
 360.333984375 392.999023438 387.333984375 393.999023438 414.000976562 395.999023438 c 0
 418.000976562 393.999023438 420.333984375 390.33203125 421.000976562 384.999023438 c 0
 421.66796875 379.666015625 420.000976562 374.999023438 416.000976562 370.999023438 c 2
 393.000976562 368.999023438 l 1
 370.333984375 362.999023438 354.666992188 356.666015625 346 349.999023438 c 0
 329.333007812 336.666015625 298 298.666015625 252 235.999023438 c 0
 250.666992188 234.666015625 249.666992188 233.333007812 249 232 c 0
 248.333007812 230.666992188 247.833007812 229.5 247.5 228.5 c 0
 247.166992188 227.5 246.666992188 226.333007812 246 225 c 1
 359 228 l 1
 359 193 l 1
 252 196 l 1
209.000976562 149.999023438 m 1
 165.66796875 73.33203125 142.666992188 5.330078125 140 -54.0029296875 c 0
 138.666992188 -93.3359375 146.333984375 -128.8359375 163.000976562 -160.502929688 c 0
 179.66796875 -192.169921875 199.66796875 -207.002929688 223.000976562 -205.002929688 c 0
 241.66796875 -202.3359375 258.16796875 -190.168945312 272.500976562 -168.501953125 c 0
 286.833984375 -146.834960938 294.000976562 -115.66796875 294.000976562 -75.0009765625 c 0
 294.66796875 -29.66796875 288.000976562 9.9990234375 274.000976562 43.9990234375 c 0
 260.000976562 77.9990234375 238.333984375 113.33203125 209.000976562 149.999023438 c 1
221 665.997070312 m 0
 245.666992188 665.997070312 266.330078125 657.666015625 282.997070312 640.999023438 c 0
 299.6640625 624.33203125 307.997070312 603.665039062 307.997070312 578.998046875 c 0
 307.997070312 553.665039062 299.330078125 532.665039062 281.997070312 515.998046875 c 0
 264.6640625 499.331054688 244.331054688 490.998046875 220.998046875 490.998046875 c 0
 197.665039062 490.998046875 177.33203125 499.665039062 159.999023438 516.998046875 c 0
 142.666015625 534.331054688 133.999023438 554.998046875 133.999023438 578.998046875 c 0
 133.999023438 602.331054688 142.33203125 622.6640625 158.999023438 639.997070312 c 0
 175.666015625 657.330078125 196.333007812 665.997070312 221 665.997070312 c 0
220.99609375 636.999023438 m 0
 204.329101562 636.999023438 190.329101562 631.33203125 178.99609375 619.999023438 c 0
 167.663085938 608.666015625 161.99609375 594.999023438 161.99609375 578.999023438 c 0
 161.99609375 563.666015625 167.99609375 549.999023438 179.99609375 537.999023438 c 0
 191.99609375 525.999023438 205.663085938 519.999023438 220.99609375 519.999023438 c 0
 236.329101562 519.999023438 249.99609375 525.666015625 261.99609375 536.999023438 c 0
 273.99609375 548.33203125 279.99609375 562.33203125 279.99609375 578.999023438 c 0
 279.99609375 596.33203125 274.329101562 610.33203125 262.99609375 620.999023438 c 0
 251.663085938 631.666015625 237.663085938 636.999023438 220.99609375 636.999023438 c 0
EndSplineSet
EndChar

StartChar: G
Encoding: 71 71 34
Width: 433
GlyphClass: 2
Flags: W
LayerCount: 2
Fore
SplineSet
252 196 m 1
 280.666992188 155.333007812 302.334960938 119.665039062 317.001953125 88.998046875 c 0
 331.668945312 58.3310546875 340.668945312 22.998046875 344.001953125 -17.001953125 c 0
 352.001953125 -87.001953125 343.668945312 -145.668945312 319.001953125 -193.001953125 c 0
 294.334960938 -240.334960938 260.66796875 -265.66796875 218.000976562 -269.000976562 c 0
 182.000976562 -269.66796875 152.16796875 -250.500976562 128.500976562 -211.500976562 c 0
 104.833984375 -172.500976562 92.333984375 -122.66796875 91.0009765625 -62.0009765625 c 0
 91.0009765625 -28.0009765625 96.66796875 6.4990234375 108.000976562 41.4990234375 c 0
 119.333984375 76.4990234375 139.666992188 119.999023438 169 171.999023438 c 0
 171 175.33203125 173.333007812 181.665039062 176 190.998046875 c 1
 60 187.998046875 l 1
 60 222.998046875 l 1
 167 219.998046875 l 1
 88 322.998046875 l 2
 66 348.998046875 44 364.331054688 22 368.998046875 c 2
 -2 370.998046875 l 2
 -4.6669921875 373.665039062 -5.6669921875 378.33203125 -5 384.999023438 c 0
 -4.3330078125 391.666015625 -2.666015625 395.333007812 0.0009765625 396 c 0
 47.333984375 394 79.0009765625 393 95.0009765625 393 c 0
 110.333984375 393 141.333984375 394 188.000976562 396 c 0
 191.333984375 394.666992188 193.333984375 391.166992188 194.000976562 385.5 c 0
 194.66796875 379.833007812 193.000976562 375 189.000976562 371 c 2
 166.000976562 369 l 2
 152.66796875 365.666992188 145.66796875 362.166992188 145.000976562 358.5 c 0
 144.333984375 354.833007812 148.333984375 346.333007812 157.000976562 333 c 2
 205.000976562 264 l 2
 208.333984375 258 212.666992188 252.333007812 218 247 c 1
 222 249.666992188 241.333007812 277.666992188 276 331 c 0
 284.666992188 343 288.333984375 351.666992188 287.000976562 357 c 0
 285.66796875 362.333007812 279.334960938 366.333007812 268.001953125 369 c 2
 248.001953125 371 l 2
 244.668945312 374.333007812 243.668945312 379.166015625 245.001953125 385.499023438 c 0
 246.334960938 391.83203125 248.66796875 395.33203125 252.000976562 395.999023438 c 0
 283.333984375 393.999023438 310.333984375 392.999023438 333.000976562 392.999023438 c 0
 360.333984375 392.999023438 387.333984375 393.999023438 414.000976562 395.999023438 c 0
 418.000976562 393.999023438 420.333984375 390.33203125 421.000976562 384.999023438 c 0
 421.66796875 379.666015625 420.000976562 374.999023438 416.000976562 370.999023438 c 2
 393.000976562 368.999023438 l 1
 370.333984375 362.999023438 354.666992188 356.666015625 346 349.999023438 c 0
 329.333007812 336.666015625 298 298.666015625 252 235.999023438 c 0
 250.666992188 234.666015625 249.666992188 233.333007812 249 232 c 0
 248.333007812 230.666992188 247.833007812 229.5 247.5 228.5 c 0
 247.166992188 227.5 246.666992188 226.333007812 246 225 c 1
 359 228 l 1
 359 193 l 1
 252 196 l 1
209.000976562 149.999023438 m 1
 165.66796875 73.33203125 142.666992188 5.330078125 140 -54.0029296875 c 0
 138.666992188 -93.3359375 146.333984375 -128.8359375 163.000976562 -160.502929688 c 0
 179.66796875 -192.169921875 199.66796875 -207.002929688 223.000976562 -205.002929688 c 0
 241.66796875 -202.3359375 258.16796875 -190.168945312 272.500976562 -168.501953125 c 0
 286.833984375 -146.834960938 294.000976562 -115.66796875 294.000976562 -75.0009765625 c 0
 294.66796875 -29.66796875 288.000976562 9.9990234375 274.000976562 43.9990234375 c 0
 260.000976562 77.9990234375 238.333984375 113.33203125 209.000976562 149.999023438 c 1
EndSplineSet
EndChar

StartChar: H
Encoding: 72 72 35
Width: 521
GlyphClass: 2
Flags: W
LayerCount: 2
Fore
SplineSet
374 -119 m 1
 283.999023438 -119.00390625 l 1
 283.999023438 -83.00390625 l 1
 372.999023438 -83.00390625 l 1
 372.999023438 -66.00390625 l 1
 372.999023438 259.99609375 l 2
 372.999023438 325.99609375 341.666015625 358.99609375 278.999023438 358.99609375 c 0
 239.666015625 358.99609375 211.333007812 347.329101562 194 323.99609375 c 0
 184 311.99609375 179 292.329101562 179 264.99609375 c 2
 179 110.99609375 l 2
 179 84.3291015625 179.666992188 65.8291015625 181 55.49609375 c 0
 182.333007812 45.1630859375 185.5 37.99609375 190.5 33.99609375 c 0
 195.5 29.99609375 204.333007812 26.99609375 217 24.99609375 c 2
 244 21.99609375 l 2
 248 19.99609375 249.666992188 15.8291015625 249 9.49609375 c 0
 248.333007812 3.1630859375 246 -1.00390625 242 -3.00390625 c 0
 206 -1.00390625 172.666992188 -0.00390625 142 -0.00390625 c 0
 110 -0.00390625 76.3330078125 -1.00390625 41 -3.00390625 c 0
 37 -0.3369140625 34.6669921875 3.830078125 34 9.4970703125 c 0
 33.3330078125 15.1640625 35 19.3310546875 39 21.998046875 c 2
 67 24.998046875 l 2
 85 26.998046875 95.8330078125 32.498046875 99.5 41.498046875 c 0
 103.166992188 50.498046875 105 73.6650390625 105 110.998046875 c 2
 105 286.998046875 l 2
 105 312.998046875 102.666992188 329.331054688 98 335.998046875 c 0
 93.3330078125 342.665039062 80 348.665039062 58 353.998046875 c 2
 49 355.998046875 l 2
 47 357.998046875 46 360.831054688 46 364.498046875 c 0
 46 368.165039062 47.3330078125 370.665039062 50 371.998046875 c 0
 104 380.665039062 144.333007812 400.33203125 171 430.999023438 c 1
 176.333007812 429.666015625 179 427.333007812 179 424 c 2
 179 367 l 2
 179 359.666992188 182.666992188 356 190 356 c 0
 216.666992188 372.666992188 240.666992188 385.333984375 262 394.000976562 c 0
 283.333007812 402.66796875 306 407.000976562 330 407.000976562 c 0
 369.333007812 407.000976562 398.666015625 395.66796875 417.999023438 373.000976562 c 0
 437.33203125 350.333984375 446.999023438 320.666992188 446.999023438 284 c 2
 446.999023438 -52 l 1
 446.999023438 -83 l 1
 505.999023438 -83 l 1
 505.999023438 -119 l 1
 444.999023438 -119 l 1
 440.999023438 -169.666992188 426.83203125 -207.833984375 402.499023438 -233.500976562 c 0
 378.166015625 -259.16796875 349.833007812 -271.500976562 317.5 -270.500976562 c 0
 285.166992188 -269.500976562 257.666992188 -257.66796875 235 -235.000976562 c 0
 233 -233.000976562 229.333007812 -230.000976562 224 -226.000976562 c 0
 218.666992188 -222.000976562 214.666992188 -216.66796875 212 -210.000976562 c 0
 209.333007812 -203.333984375 210 -194.666992188 214 -184 c 0
 219.333007812 -171.333007812 229.5 -164.666015625 244.5 -163.999023438 c 0
 259.5 -163.33203125 268.333007812 -168.33203125 271 -178.999023438 c 0
 271 -179.666015625 272.833007812 -188.333007812 276.5 -205 c 0
 280.166992188 -221.666992188 287.333984375 -232.5 298.000976562 -237.5 c 0
 308.66796875 -242.5 325.000976562 -241.333007812 347.000976562 -234 c 0
 359.000976562 -230 366.66796875 -218.833007812 370.000976562 -200.5 c 0
 373.333984375 -182.166992188 374.666992188 -155 374 -119 c 1
EndSplineSet
EndChar

StartChar: I
Encoding: 73 73 36
Width: 561
GlyphClass: 2
Flags: W
LayerCount: 2
Fore
SplineSet
189 198 m 1
 167 112 150.997070312 58.0009765625 140.997070312 36.0009765625 c 0
 134.997070312 20.66796875 120.997070312 5.8349609375 98.9970703125 -8.498046875 c 0
 76.9970703125 -22.8310546875 58.9970703125 -16.3310546875 44.9970703125 11.001953125 c 0
 35.6640625 29.001953125 39.3310546875 43.501953125 55.998046875 54.501953125 c 0
 72.6650390625 65.501953125 89.6650390625 82.1689453125 106.998046875 104.501953125 c 0
 124.331054688 126.834960938 142.998046875 173.66796875 162.998046875 245.000976562 c 0
 166.998046875 255.000976562 168.665039062 262.833984375 167.998046875 268.500976562 c 0
 167.331054688 274.16796875 163.998046875 282.66796875 157.998046875 294.000976562 c 0
 137.998046875 339.333984375 115.331054688 362.000976562 89.998046875 362.000976562 c 0
 74.6650390625 362.000976562 58.33203125 351.66796875 40.9990234375 331.000976562 c 1
 34.9990234375 333.66796875 33.33203125 339.66796875 35.9990234375 349.000976562 c 0
 54.666015625 387.66796875 82.3330078125 407.000976562 119 407.000976562 c 0
 147.666992188 407.000976562 168.333984375 399.333984375 181.000976562 384.000976562 c 0
 191.000976562 372.66796875 198.66796875 357.66796875 204.000976562 339.000976562 c 0
 206.000976562 332.333984375 208.333984375 331.666992188 211.000976562 337 c 0
 241.000976562 385.666992188 285.000976562 409 343.000976562 407 c 0
 401.000976562 405 443.66796875 385.5 471.000976562 348.5 c 0
 498.333984375 311.5 512.666992188 260 514 194 c 0
 514.666992188 124.666992188 500.333984375 72.5 471.000976562 37.5 c 0
 441.66796875 2.5 399.66796875 -15 345.000976562 -15 c 0
 312.333984375 -15 286.166992188 -7.8330078125 266.5 6.5 c 0
 246.833007812 20.8330078125 231.5 43 220.5 73 c 0
 209.5 103 199 144.666992188 189 198 c 1
236.997070312 292.000976562 m 1
 239.6640625 283.333984375 245.498046875 258.000976562 254.498046875 216.000976562 c 0
 263.498046875 174.000976562 271.665039062 140.66796875 278.998046875 116.000976562 c 0
 286.331054688 91.333984375 296.331054688 69.6669921875 308.998046875 51 c 0
 321.665039062 32.3330078125 338.33203125 21.666015625 358.999023438 18.9990234375 c 0
 384.33203125 16.33203125 402.499023438 29.4990234375 413.499023438 58.4990234375 c 0
 424.499023438 87.4990234375 429.33203125 130.666015625 427.999023438 187.999023438 c 0
 425.33203125 307.999023438 400.999023438 369.33203125 354.999023438 371.999023438 c 0
 324.33203125 374.666015625 299.165039062 367.833007812 279.498046875 351.5 c 0
 259.831054688 335.166992188 245.6640625 315.333984375 236.997070312 292.000976562 c 1
279.998046875 578.000976562 m 2
 360.997070312 542 l 2
 378.997070312 534.666992188 392.997070312 535.166992188 402.997070312 543.5 c 0
 412.997070312 551.833007812 424.6640625 568 437.997070312 592 c 0
 439.997070312 596 443.1640625 597.666992188 447.497070312 597 c 0
 451.830078125 596.333007812 454.330078125 593.333007812 454.997070312 588 c 0
 456.997070312 555.333007812 448.6640625 528.333007812 429.997070312 507 c 0
 418.6640625 494.333007812 404.6640625 487 387.997070312 485 c 0
 371.330078125 483 355.330078125 484.666992188 339.997070312 490 c 2
 260.997070312 523 l 2
 233.6640625 535 205.331054688 518.666992188 175.998046875 474 c 0
 173.998046875 470 170.831054688 469 166.498046875 471 c 0
 162.165039062 473 159.665039062 475.666992188 158.998046875 479 c 0
 156.331054688 501 168.998046875 527.333007812 196.998046875 558 c 0
 204.998046875 568.666992188 217.165039062 576.333984375 233.498046875 581.000976562 c 0
 249.831054688 585.66796875 265.331054688 584.66796875 279.998046875 578.000976562 c 2
EndSplineSet
EndChar

StartChar: J
Encoding: 74 74 37
Width: 268
GlyphClass: 2
Flags: W
LayerCount: 2
Fore
SplineSet
131 607 m 0
 169.666992188 607 199.5 596.83203125 220.5 576.499023438 c 0
 241.5 556.166015625 255 521.333007812 261 472 c 1
 255 466.666992188 248.666992188 466.666992188 242 472 c 1
 234.666992188 501.333007812 222.833984375 522 206.500976562 534 c 0
 190.16796875 546 165.334960938 552 132.001953125 552 c 0
 99.3349609375 552 75.66796875 546 61.0009765625 534 c 0
 46.333984375 522 32.6669921875 501.333007812 20 472 c 0
 14 466.666992188 7.6669921875 466.666992188 1 472 c 1
 17.6669921875 562 61 607 131 607 c 0
11 -171.000976562 m 0
 12.3330078125 -185.66796875 13.333984375 -198.668945312 14.0009765625 -210.001953125 c 0
 14.66796875 -221.334960938 18.8349609375 -229.834960938 26.501953125 -235.501953125 c 0
 34.1689453125 -241.168945312 49.6689453125 -240.3359375 73.001953125 -233.002929688 c 0
 83.6689453125 -229.002929688 90.8359375 -220.8359375 94.5029296875 -208.502929688 c 0
 98.169921875 -196.169921875 100.169921875 -176.336914062 100.502929688 -149.00390625 c 0
 100.8359375 -121.670898438 100.668945312 -94.00390625 100.001953125 -66.00390625 c 2
 100.001953125 296.99609375 l 2
 100.001953125 328.99609375 97.6689453125 348.663085938 93.001953125 355.99609375 c 0
 88.3349609375 363.329101562 75.66796875 367.99609375 55.0009765625 369.99609375 c 2
 20.0009765625 372.99609375 l 2
 17.333984375 374.99609375 16.333984375 378.99609375 17.0009765625 384.99609375 c 0
 17.66796875 390.99609375 19.3349609375 394.329101562 22.001953125 394.99609375 c 0
 94.001953125 393.663085938 132.334960938 392.99609375 137.001953125 392.99609375 c 0
 149.001953125 392.99609375 183.668945312 393.663085938 241.001953125 394.99609375 c 0
 244.334960938 394.329101562 246.334960938 390.99609375 247.001953125 384.99609375 c 0
 247.668945312 378.99609375 246.3359375 374.99609375 243.002929688 372.99609375 c 2
 220.002929688 369.99609375 l 2
 199.3359375 366.663085938 186.502929688 361.49609375 181.502929688 354.49609375 c 0
 176.502929688 347.49609375 174.002929688 328.329101562 174.002929688 296.99609375 c 2
 174.002929688 -52.00390625 l 1
 174.002929688 -131.00390625 l 2
 174.002929688 -171.00390625 162.169921875 -203.836914062 138.502929688 -229.50390625 c 0
 114.8359375 -255.170898438 86.1689453125 -268.670898438 52.501953125 -270.00390625 c 0
 18.8349609375 -271.336914062 -11.33203125 -259.669921875 -37.9990234375 -235.002929688 c 0
 -52.666015625 -220.3359375 -55.3330078125 -200.668945312 -46 -176.001953125 c 0
 -40.6669921875 -163.334960938 -30.5 -156.66796875 -15.5 -156.000976562 c 0
 -0.5 -155.333984375 8.3330078125 -160.333984375 11 -171.000976562 c 0
EndSplineSet
EndChar

StartChar: K
Encoding: 75 75 38
Width: 360
GlyphClass: 2
Flags: W
LayerCount: 2
Fore
SplineSet
139 601 m 2
 139 621.666992188 134.666015625 634.33203125 125.999023438 638.999023438 c 0
 117.33203125 643.666015625 101.665039062 646.666015625 78.998046875 647.999023438 c 2
 60.998046875 648.999023438 l 2
 58.998046875 652.33203125 57.998046875 656.165039062 57.998046875 660.498046875 c 0
 57.998046875 664.831054688 59.3310546875 667.6640625 61.998046875 668.997070312 c 0
 109.331054688 685.6640625 155.331054688 705.997070312 199.998046875 729.997070312 c 1
 213.998046875 727.330078125 220.998046875 724.330078125 220.998046875 720.997070312 c 2
 212.998046875 623.997070312 l 1
 212.998046875 358.997070312 l 1
 226.998046875 352.997070312 l 2
 244.998046875 345.6640625 258.998046875 346.1640625 268.998046875 354.497070312 c 0
 278.998046875 362.830078125 290.665039062 378.997070312 303.998046875 402.997070312 c 0
 306.665039062 406.997070312 309.83203125 408.6640625 313.499023438 407.997070312 c 0
 317.166015625 407.330078125 319.666015625 404.330078125 320.999023438 398.997070312 c 0
 322.999023438 366.330078125 314.666015625 339.330078125 295.999023438 317.997070312 c 0
 274.666015625 293.330078125 246.999023438 286.997070312 212.999023438 298.997070312 c 1
 212.999023438 110.997070312 l 2
 212.999023438 74.9970703125 214.999023438 52.1640625 218.999023438 42.4970703125 c 0
 222.999023438 32.830078125 233.666015625 26.9970703125 250.999023438 24.9970703125 c 2
 282.999023438 21.9970703125 l 2
 286.999023438 19.9970703125 288.666015625 15.830078125 287.999023438 9.4970703125 c 0
 287.33203125 3.1640625 284.999023438 -1.0029296875 280.999023438 -3.0029296875 c 0
 240.33203125 -1.0029296875 205.33203125 -0.0029296875 175.999023438 -0.0029296875 c 0
 144.666015625 -0.0029296875 109.999023438 -1.0029296875 71.9990234375 -3.0029296875 c 0
 67.9990234375 -0.3359375 65.666015625 3.8310546875 64.9990234375 9.498046875 c 0
 64.33203125 15.1650390625 65.9990234375 19.33203125 69.9990234375 21.9990234375 c 2
 100.999023438 24.9990234375 l 2
 118.999023438 26.9990234375 129.83203125 32.4990234375 133.499023438 41.4990234375 c 0
 137.166015625 50.4990234375 138.999023438 73.666015625 138.999023438 110.999023438 c 2
 138.999023438 329.999023438 l 1
 126.999023438 333.999023438 l 2
 99.666015625 345.33203125 71.3330078125 328.999023438 42 284.999023438 c 0
 40 280.999023438 36.8330078125 279.999023438 32.5 281.999023438 c 0
 28.1669921875 283.999023438 25.6669921875 286.666015625 25 289.999023438 c 0
 22.3330078125 310.666015625 35 336.999023438 63 368.999023438 c 0
 71 378.999023438 81.8330078125 386.33203125 95.5 390.999023438 c 0
 109.166992188 395.666015625 123.666992188 395.333007812 139 390 c 1
 139 601 l 2
150.999023438 -270.001953125 m 1
 150.999023438 -65.001953125 l 1
 200.999023438 -65.001953125 l 1
 200.999023438 -270.001953125 l 1
 150.999023438 -270.001953125 l 1
EndSplineSet
EndChar

StartChar: L
Encoding: 76 76 39
Width: 300
GlyphClass: 2
Flags: W
LayerCount: 2
Fore
SplineSet
104 600 m 2
 104 620.666992188 99.66796875 633.333007812 91.0009765625 638 c 0
 82.333984375 642.666992188 66.6669921875 645.666992188 44 647 c 2
 26 649 l 2
 24 652.333007812 23 656.166015625 23 660.499023438 c 0
 23 664.83203125 24.3330078125 667.665039062 27 668.998046875 c 0
 74.3330078125 685.665039062 120.333007812 705.998046875 165 729.998046875 c 1
 179 727.331054688 186 724.331054688 186 720.998046875 c 2
 178 623.998046875 l 1
 178 354.998046875 l 1
 275 439.998046875 l 1
 290.333007812 435.998046875 296.333007812 426.665039062 293 411.998046875 c 1
 178 310.998046875 l 1
 178 110.998046875 l 2
 178 74.998046875 180 52.1650390625 184 42.498046875 c 0
 188 32.8310546875 198.666992188 26.998046875 216 24.998046875 c 2
 248 21.998046875 l 2
 252 19.998046875 253.666992188 15.8310546875 253 9.498046875 c 0
 252.333007812 3.1650390625 250 -1.001953125 246 -3.001953125 c 0
 205.333007812 -1.001953125 170.333007812 -0.001953125 141 -0.001953125 c 0
 109.666992188 -0.001953125 75 -1.001953125 37 -3.001953125 c 0
 33 -0.3349609375 30.6669921875 3.83203125 30 9.4990234375 c 0
 29.3330078125 15.166015625 31 19.3330078125 35 22 c 2
 66 25 l 2
 84 27 94.8330078125 32.5 98.5 41.5 c 0
 102.166992188 50.5 104 73.6669921875 104 111 c 2
 104 263 l 1
 21 191 l 1
 7 194.333007812 1.6669921875 204.333007812 5 221 c 1
 104 306 l 1
 104 600 l 2
140.000976562 -216.000976562 m 0
 102.000976562 -216.000976562 72.3359375 -206.000976562 51.0029296875 -186.000976562 c 0
 29.669921875 -166.000976562 16.0029296875 -131.66796875 10.0029296875 -83.0009765625 c 1
 16.669921875 -77.0009765625 23.0029296875 -77.0009765625 29.0029296875 -83.0009765625 c 1
 36.3359375 -110.333984375 48.1689453125 -130.500976562 64.501953125 -143.500976562 c 0
 80.8349609375 -156.500976562 105.66796875 -163.000976562 139.000976562 -163.000976562 c 0
 171.000976562 -163.000976562 194.833984375 -156.500976562 210.500976562 -143.500976562 c 0
 226.16796875 -130.500976562 239.66796875 -110.333984375 251.000976562 -83.0009765625 c 0
 257.66796875 -77.0009765625 264.000976562 -77.0009765625 270.000976562 -83.0009765625 c 1
 262.000976562 -126.333984375 246.66796875 -159.333984375 224.000976562 -182.000976562 c 0
 201.333984375 -204.66796875 173.333984375 -216.000976562 140.000976562 -216.000976562 c 0
EndSplineSet
EndChar

StartChar: M
Encoding: 77 77 40
Width: 785
GlyphClass: 2
Flags: W
LayerCount: 2
Fore
SplineSet
172 367 m 2
 172 359.666992188 175.665039062 355.989257812 182.998046875 355.989257812 c 1
 230.998046875 389.989257812 275.331054688 406.989257812 315.998046875 406.989257812 c 0
 358.665039062 406.989257812 393.998046875 387.65625 421.998046875 348.989257812 c 1
 428.665039062 346.989257812 436.998046875 349.322265625 446.998046875 355.989257812 c 0
 495.665039062 389.989257812 540.998046875 406.989257812 582.998046875 406.989257812 c 0
 621.665039062 406.989257812 651.165039062 395.489257812 671.498046875 372.489257812 c 0
 691.831054688 349.489257812 701.998046875 319.989257812 701.998046875 283.989257812 c 2
 701.998046875 -108.010742188 l 2
 701.998046875 -159.34375 689.831054688 -199.176757812 665.498046875 -227.509765625 c 0
 641.165039062 -255.842773438 612.165039062 -269.842773438 578.498046875 -269.509765625 c 0
 544.831054688 -269.176757812 515.998046875 -257.009765625 491.998046875 -233.009765625 c 0
 476.665039062 -220.342773438 473.33203125 -201.342773438 481.999023438 -176.009765625 c 0
 487.33203125 -163.342773438 497.499023438 -156.67578125 512.499023438 -156.008789062 c 0
 527.499023438 -155.341796875 536.33203125 -160.341796875 538.999023438 -171.008789062 c 0
 540.33203125 -185.67578125 541.499023438 -198.67578125 542.499023438 -210.008789062 c 0
 543.499023438 -221.341796875 547.999023438 -230.008789062 555.999023438 -236.008789062 c 0
 563.999023438 -242.008789062 579.33203125 -241.341796875 601.999023438 -234.008789062 c 0
 612.666015625 -231.341796875 619.833007812 -223.674804688 623.5 -211.0078125 c 0
 627.166992188 -198.340820312 629 -178.173828125 629 -150.506835938 c 0
 629 -122.83984375 628.666992188 -94.6728515625 628 -66.005859375 c 2
 628 255.994140625 l 2
 628 324.661132812 597 358.994140625 535 358.994140625 c 0
 497.666992188 358.994140625 470 347.327148438 452 323.994140625 c 0
 442 311.327148438 437 291.66015625 437 264.993164062 c 2
 437 110.993164062 l 2
 437 74.9931640625 439 52.16015625 443 42.4931640625 c 0
 447 32.826171875 457.666992188 26.9931640625 475 24.9931640625 c 2
 504 21.9931640625 l 2
 508 19.9931640625 509.666992188 15.826171875 509 9.4931640625 c 0
 508.333007812 3.16015625 506 -1.0068359375 502 -3.0068359375 c 0
 464 -1.0068359375 430 -0.0068359375 400 -0.0068359375 c 0
 370 -0.0068359375 337 -1.0068359375 301 -3.0068359375 c 0
 297 -0.33984375 294.666992188 3.8271484375 294 9.494140625 c 0
 293.333007812 15.1611328125 295 19.328125 299 21.9951171875 c 2
 325 24.9951171875 l 2
 343 27.662109375 353.833007812 33.3291015625 357.5 41.99609375 c 0
 361.166992188 50.6630859375 363 73.6630859375 363 110.99609375 c 2
 363 255.99609375 l 2
 363 324.663085938 332.333007812 358.99609375 271 358.99609375 c 0
 235 358.99609375 207 346.99609375 187 322.99609375 c 0
 177 310.99609375 172 292.329101562 172 266.99609375 c 2
 172 110.99609375 l 2
 172 84.3291015625 172.666992188 65.8291015625 174 55.49609375 c 0
 175.333007812 45.1630859375 178.5 37.99609375 183.5 33.99609375 c 0
 188.5 29.99609375 197.333007812 26.99609375 210 24.99609375 c 2
 236 21.99609375 l 2
 240 19.99609375 241.666992188 15.8291015625 241 9.49609375 c 0
 240.333007812 3.1630859375 238 -1.00390625 234 -3.00390625 c 0
 199.333007812 -1.00390625 166.333007812 -0.00390625 135 -0.00390625 c 0
 104.333007812 -0.00390625 69.3330078125 -1.00390625 30 -3.00390625 c 0
 26 -0.3369140625 23.6669921875 3.830078125 23 9.4970703125 c 0
 22.3330078125 15.1640625 24 19.3310546875 28 21.998046875 c 2
 60 24.998046875 l 2
 78 26.998046875 88.8330078125 32.498046875 92.5 41.498046875 c 0
 96.1669921875 50.498046875 98 73.6650390625 98 110.998046875 c 2
 98 286.998046875 l 2
 98 312.998046875 95.6669921875 329.331054688 91 335.998046875 c 0
 86.3330078125 342.665039062 73 348.665039062 51 353.998046875 c 2
 42 355.998046875 l 2
 40 357.998046875 39 360.831054688 39 364.498046875 c 0
 39 368.165039062 40.3330078125 370.665039062 43 371.998046875 c 0
 97 380.665039062 137.333007812 400.33203125 164 430.999023438 c 1
 169.333007812 429.666015625 172 427.333007812 172 424 c 2
 172 367 l 2
400.998046875 665.989257812 m 0
 425.665039062 665.989257812 446.328125 657.658203125 462.995117188 640.991210938 c 0
 479.662109375 624.32421875 487.995117188 603.657226562 487.995117188 578.990234375 c 0
 487.995117188 553.657226562 479.328125 532.657226562 461.995117188 515.990234375 c 0
 444.662109375 499.323242188 424.329101562 490.990234375 400.99609375 490.990234375 c 0
 377.663085938 490.990234375 357.330078125 499.657226562 339.997070312 516.990234375 c 0
 322.6640625 534.323242188 313.997070312 554.990234375 313.997070312 578.990234375 c 0
 313.997070312 602.323242188 322.330078125 622.65625 338.997070312 639.989257812 c 0
 355.6640625 657.322265625 376.331054688 665.989257812 400.998046875 665.989257812 c 0
400.994140625 636.991210938 m 0
 384.327148438 636.991210938 370.327148438 631.32421875 358.994140625 619.991210938 c 0
 347.661132812 608.658203125 341.994140625 594.991210938 341.994140625 578.991210938 c 0
 341.994140625 563.658203125 347.994140625 549.991210938 359.994140625 537.991210938 c 0
 371.994140625 525.991210938 385.661132812 519.991210938 400.994140625 519.991210938 c 0
 416.327148438 519.991210938 429.994140625 525.658203125 441.994140625 536.991210938 c 0
 453.994140625 548.32421875 459.994140625 562.32421875 459.994140625 578.991210938 c 0
 459.994140625 596.32421875 454.327148438 610.32421875 442.994140625 620.991210938 c 0
 431.661132812 631.658203125 417.661132812 636.991210938 400.994140625 636.991210938 c 0
EndSplineSet
EndChar

StartChar: N
Encoding: 78 78 41
Width: 511
GlyphClass: 2
Flags: W
LayerCount: 2
Fore
SplineSet
232 607 m 0
 270.666992188 607 300.5 596.83203125 321.5 576.499023438 c 0
 342.5 556.166015625 356 521.333007812 362 472 c 1
 356 466.666992188 349.666992188 466.666992188 343 472 c 1
 335.666992188 501.333007812 323.833984375 522 307.500976562 534 c 0
 291.16796875 546 266.334960938 552 233.001953125 552 c 0
 200.334960938 552 176.66796875 546 162.000976562 534 c 0
 147.333984375 522 133.666992188 501.333007812 121 472 c 0
 115 466.666992188 108.666992188 466.666992188 102 472 c 1
 118.666992188 562 162 607 232 607 c 0
148 366.999023438 m 2
 148 357.666015625 151.33203125 353.989257812 157.999023438 355.989257812 c 0
 184.666015625 372.65625 208.666015625 385.323242188 229.999023438 393.990234375 c 0
 251.33203125 402.657226562 273.999023438 406.990234375 297.999023438 406.990234375 c 0
 337.33203125 406.990234375 366.665039062 395.657226562 385.998046875 372.990234375 c 0
 405.331054688 350.323242188 414.998046875 320.65625 414.998046875 283.989257812 c 2
 414.998046875 110.989257812 l 1
 414.998046875 62.4892578125 l 2
 414.998046875 47.4892578125 417.331054688 37.822265625 421.998046875 33.4892578125 c 0
 426.665039062 29.15625 437.33203125 26.3232421875 453.999023438 24.990234375 c 2
 481.999023438 21.990234375 l 2
 485.999023438 19.990234375 487.666015625 15.8232421875 486.999023438 9.490234375 c 0
 486.33203125 3.1572265625 483.999023438 -1.009765625 479.999023438 -3.009765625 c 0
 443.33203125 -1.009765625 409.665039062 -0.009765625 378.998046875 -0.009765625 c 0
 346.998046875 -0.009765625 313.331054688 -1.009765625 277.998046875 -3.009765625 c 0
 273.998046875 -0.3427734375 271.665039062 3.82421875 270.998046875 9.4912109375 c 0
 270.331054688 15.158203125 271.998046875 19.3251953125 275.998046875 21.9921875 c 2
 302.998046875 24.9921875 l 2
 320.998046875 27.6591796875 331.831054688 33.326171875 335.498046875 41.9931640625 c 0
 339.165039062 50.66015625 340.998046875 73.66015625 340.998046875 110.993164062 c 2
 340.998046875 259.993164062 l 2
 340.998046875 325.993164062 309.665039062 358.993164062 246.998046875 358.993164062 c 0
 207.665039062 358.993164062 179.33203125 347.326171875 161.999023438 323.993164062 c 0
 151.999023438 311.993164062 146.999023438 292.326171875 146.999023438 264.993164062 c 2
 146.999023438 -109.006835938 l 2
 149.666015625 -161.006835938 138.999023438 -201.006835938 114.999023438 -229.006835938 c 0
 90.9990234375 -257.006835938 61.33203125 -271.006835938 25.9990234375 -271.006835938 c 0
 -9.333984375 -271.006835938 -39.0009765625 -259.006835938 -63.0009765625 -235.006835938 c 0
 -77.66796875 -220.33984375 -80.66796875 -200.672851562 -72.0009765625 -176.005859375 c 0
 -66.66796875 -163.338867188 -56.5009765625 -156.671875 -41.5009765625 -156.004882812 c 0
 -26.5009765625 -155.337890625 -17.66796875 -160.337890625 -15.0009765625 -171.004882812 c 0
 -13.66796875 -185.671875 -12.66796875 -198.671875 -12.0009765625 -210.004882812 c 0
 -11.333984375 -221.337890625 -7.0009765625 -230.004882812 0.9990234375 -236.004882812 c 0
 8.9990234375 -242.004882812 24.33203125 -241.337890625 46.9990234375 -234.004882812 c 0
 57.666015625 -231.337890625 64.8330078125 -223.670898438 68.5 -211.00390625 c 0
 72.1669921875 -198.336914062 74 -178.169921875 74 -150.502929688 c 0
 74 -122.8359375 73.6669921875 -94.6689453125 73 -66.001953125 c 2
 73 286.998046875 l 2
 73 313.665039062 71 330.165039062 67 336.498046875 c 0
 63 342.831054688 49.6669921875 348.6640625 27 353.997070312 c 2
 18 355.997070312 l 2
 16 357.997070312 15 360.830078125 15 364.497070312 c 0
 15 368.1640625 16.3330078125 370.6640625 19 371.997070312 c 0
 73 380.6640625 113.333007812 400.331054688 140 430.998046875 c 1
 145.333007812 429.665039062 148 427.33203125 148 423.999023438 c 2
 148 366.999023438 l 2
EndSplineSet
EndChar

StartChar: O
Encoding: 79 79 42
Width: 423
GlyphClass: 2
Flags: W
LayerCount: 2
Fore
SplineSet
132 -14 m 0
 98 -14 68.3330078125 -8.3330078125 43 3 c 1
 33 13 28 26.3330078125 28 43 c 0
 28 51.6669921875 30.3330078125 60 35 68 c 0
 39.6669921875 76 44.6669921875 80 50 80 c 0
 56 80 60.6669921875 77.3330078125 64 72 c 0
 93.3330078125 37.3330078125 126.666015625 20 163.999023438 20 c 0
 201.999023438 20 234.499023438 34.3330078125 261.499023438 63 c 0
 288.499023438 91.6669921875 301.999023438 131 301.999023438 181 c 0
 301.999023438 224.333007812 287.666015625 263.5 258.999023438 298.5 c 0
 230.33203125 333.5 190.999023438 351 140.999023438 351 c 0
 92.9990234375 351 55.9990234375 331 29.9990234375 291 c 1
 19.33203125 289.666992188 13.33203125 294.666992188 11.9990234375 306 c 1
 27.33203125 340 50.83203125 365.5 82.4990234375 382.5 c 0
 114.166015625 399.5 146.333007812 408 179 408 c 0
 234.333007812 408 280 390.666992188 316 356 c 0
 354.666992188 318.666992188 374 269.666992188 374 209 c 0
 374 149 353.166992188 96.8330078125 311.5 52.5 c 0
 269.833007812 8.1669921875 210 -14 132 -14 c 0
169 578 m 2
 249.999023438 541.999023438 l 2
 267.999023438 534.666015625 281.999023438 535.166015625 291.999023438 543.499023438 c 0
 301.999023438 551.83203125 313.666015625 567.999023438 326.999023438 591.999023438 c 0
 328.999023438 595.999023438 332.166015625 597.666015625 336.499023438 596.999023438 c 0
 340.83203125 596.33203125 343.33203125 593.33203125 343.999023438 587.999023438 c 0
 345.999023438 555.33203125 337.666015625 528.33203125 318.999023438 506.999023438 c 0
 307.666015625 494.33203125 293.666015625 486.999023438 276.999023438 484.999023438 c 0
 260.33203125 482.999023438 244.33203125 484.666015625 228.999023438 489.999023438 c 2
 149.999023438 522.999023438 l 2
 122.666015625 534.999023438 94.3330078125 518.666015625 65 473.999023438 c 0
 63 469.999023438 59.8330078125 468.999023438 55.5 470.999023438 c 0
 51.1669921875 472.999023438 48.6669921875 475.666015625 48 478.999023438 c 0
 45.3330078125 500.999023438 58 527.33203125 86 557.999023438 c 0
 94 568.666015625 106.166992188 576.333007812 122.5 581 c 0
 138.833007812 585.666992188 154.333007812 584.666992188 169 578 c 2
EndSplineSet
EndChar

StartChar: P
Encoding: 80 80 43
Width: 527
GlyphClass: 2
Flags: W
LayerCount: 2
Fore
SplineSet
427 313 m 2
 427.001953125 145.998046875 l 2
 427.001953125 103.998046875 428.834960938 75.3310546875 432.501953125 59.998046875 c 0
 436.168945312 44.6650390625 444.668945312 36.998046875 458.001953125 36.998046875 c 0
 468.668945312 36.998046875 481.668945312 38.6650390625 497.001953125 41.998046875 c 0
 498.334960938 40.6650390625 499.66796875 37.83203125 501.000976562 33.4990234375 c 0
 502.333984375 29.166015625 502.333984375 24.8330078125 501.000976562 20.5 c 0
 499.66796875 16.1669921875 498.000976562 13.6669921875 496.000976562 13 c 0
 428.000976562 -1 384.333984375 -13.3330078125 365.000976562 -24 c 0
 359.66796875 -24 355.66796875 -21.6669921875 353.000976562 -17 c 2
 353.000976562 24 l 2
 353.000976562 33.3330078125 350.000976562 38 344.000976562 38 c 0
 288.000976562 2.6669921875 239.333984375 -15 198.000976562 -15 c 0
 183.333984375 -15 164.666992188 -10 142 -0 c 0
 135.333007812 1.3330078125 132 -4 132 -16 c 2
 132 -72 l 2
 132 -92.6669921875 137.666992188 -119.333984375 149 -152.000976562 c 0
 160.333007812 -184.66796875 166 -202.66796875 166 -206.000976562 c 0
 166 -217.333984375 158.666992188 -230.666992188 144 -246 c 0
 129.333007812 -261.333007812 116.333007812 -269 105 -269 c 0
 91.6669921875 -269 85 -258.333007812 85 -237 c 2
 85 277 l 2
 85 303.666992188 84.6669921875 322 84 332 c 0
 83.3330078125 342 81.166015625 349.166992188 77.4990234375 353.5 c 0
 73.83203125 357.833007812 66.33203125 361 54.9990234375 363 c 2
 34.9990234375 367 l 2
 32.33203125 369.666992188 31.33203125 373.666992188 31.9990234375 379 c 0
 32.666015625 384.333007812 34.3330078125 387.333007812 37 388 c 0
 87 390 125.333007812 397 152 409 c 0
 158 408.333007812 161.333007812 406 162 402 c 0
 160 383.333007812 159 353.666015625 159 312.999023438 c 2
 159 146.999023438 l 2
 159 108.999023438 165.666992188 80.166015625 179 60.4990234375 c 0
 192.333007812 40.83203125 216.666015625 30.9990234375 251.999023438 30.9990234375 c 0
 281.999023438 30.9990234375 308.999023438 41.33203125 332.999023438 61.9990234375 c 0
 346.33203125 73.9990234375 352.999023438 91.33203125 352.999023438 113.999023438 c 2
 352.999023438 283.999023438 l 2
 352.999023438 317.999023438 350.999023438 338.83203125 346.999023438 346.499023438 c 0
 342.999023438 354.166015625 332.666015625 359.666015625 315.999023438 362.999023438 c 2
 294.999023438 366.999023438 l 2
 291.666015625 368.999023438 289.999023438 372.83203125 289.999023438 378.499023438 c 0
 289.999023438 384.166015625 291.999023438 387.333007812 295.999023438 388 c 0
 358.666015625 390.666992188 400.333007812 397.666992188 421 409 c 0
 426.333007812 407.666992188 429.333007812 405.333984375 430 402.000976562 c 0
 428 381.333984375 427 351.666992188 427 313 c 2
231.001953125 577.998046875 m 2
 312.000976562 541.997070312 l 2
 330.000976562 534.6640625 344.000976562 535.1640625 354.000976562 543.497070312 c 0
 364.000976562 551.830078125 375.66796875 567.997070312 389.000976562 591.997070312 c 0
 391.000976562 595.997070312 394.16796875 597.6640625 398.500976562 596.997070312 c 0
 402.833984375 596.330078125 405.333984375 593.330078125 406.000976562 587.997070312 c 0
 408.000976562 555.330078125 399.66796875 528.330078125 381.000976562 506.997070312 c 0
 369.66796875 494.330078125 355.66796875 486.997070312 339.000976562 484.997070312 c 0
 322.333984375 482.997070312 306.333984375 484.6640625 291.000976562 489.997070312 c 2
 212.000976562 522.997070312 l 2
 184.66796875 534.997070312 156.334960938 518.6640625 127.001953125 473.997070312 c 0
 125.001953125 469.997070312 121.834960938 468.997070312 117.501953125 470.997070312 c 0
 113.168945312 472.997070312 110.668945312 475.6640625 110.001953125 478.997070312 c 0
 107.334960938 500.997070312 120.001953125 527.330078125 148.001953125 557.997070312 c 0
 156.001953125 568.6640625 168.168945312 576.331054688 184.501953125 580.998046875 c 0
 200.834960938 585.665039062 216.334960938 584.665039062 231.001953125 577.998046875 c 2
EndSplineSet
EndChar

StartChar: Q
Encoding: 81 81 44
Width: 522
GlyphClass: 2
Flags: W
LayerCount: 2
Fore
SplineSet
230 578 m 2
 310.999023438 541.999023438 l 2
 328.999023438 534.666015625 342.999023438 535.166015625 352.999023438 543.499023438 c 0
 362.999023438 551.83203125 374.666015625 567.999023438 387.999023438 591.999023438 c 0
 389.999023438 595.999023438 393.166015625 597.666015625 397.499023438 596.999023438 c 0
 401.83203125 596.33203125 404.33203125 593.33203125 404.999023438 587.999023438 c 0
 406.999023438 555.33203125 398.666015625 528.33203125 379.999023438 506.999023438 c 0
 368.666015625 494.33203125 354.666015625 486.999023438 337.999023438 484.999023438 c 0
 321.33203125 482.999023438 305.33203125 484.666015625 289.999023438 489.999023438 c 2
 210.999023438 522.999023438 l 2
 183.666015625 534.999023438 155.333007812 518.666015625 126 473.999023438 c 0
 124 469.999023438 120.833007812 468.999023438 116.5 470.999023438 c 0
 112.166992188 472.999023438 109.666992188 475.666015625 109 478.999023438 c 0
 106.333007812 500.999023438 119 527.33203125 147 557.999023438 c 0
 155 568.666015625 167.166992188 576.333007812 183.5 581 c 0
 199.833007812 585.666992188 215.333007812 584.666992188 230 578 c 2
422.999023438 145.999023438 m 2
 422.999023438 99.9990234375 424.6640625 68.998046875 427.997070312 52.998046875 c 0
 431.330078125 36.998046875 439.330078125 28.998046875 451.997070312 28.998046875 c 0
 457.997070312 28.998046875 471.997070312 32.6650390625 493.997070312 39.998046875 c 0
 497.997070312 39.3310546875 499.997070312 34.498046875 499.997070312 25.498046875 c 0
 499.997070312 16.498046875 497.6640625 10.6650390625 492.997070312 7.998046875 c 0
 440.330078125 0.6650390625 396.330078125 -10.001953125 360.997070312 -24.001953125 c 0
 353.6640625 -24.001953125 349.997070312 -21.3349609375 349.997070312 -16.001953125 c 0
 349.997070312 1.998046875 346.6640625 10.998046875 339.997070312 10.998046875 c 0
 309.997070312 -6.3349609375 275.997070312 -15.001953125 237.997070312 -15.001953125 c 0
 171.330078125 -15.001953125 120.830078125 6.1650390625 86.4970703125 48.498046875 c 0
 52.1640625 90.8310546875 34.9970703125 135.331054688 34.9970703125 181.998046875 c 0
 34.9970703125 228.665039062 45.830078125 268.998046875 67.4970703125 302.998046875 c 0
 89.1640625 336.998046875 118.331054688 362.831054688 154.998046875 380.498046875 c 0
 191.665039062 398.165039062 231.665039062 406.998046875 274.998046875 406.998046875 c 0
 306.998046875 406.998046875 334.665039062 403.665039062 357.998046875 396.998046875 c 0
 375.331054688 392.331054688 386.998046875 389.998046875 392.998046875 389.998046875 c 0
 398.331054688 389.998046875 407.331054688 395.665039062 419.998046875 406.998046875 c 0
 424.665039062 406.998046875 428.33203125 403.998046875 430.999023438 397.998046875 c 1
 425.666015625 376.665039062 422.999023438 336.33203125 422.999023438 276.999023438 c 2
 422.999023438 145.999023438 l 2
350.997070312 81.998046875 m 2
 350.99609375 229.998046875 l 2
 350.99609375 287.998046875 347.99609375 322.665039062 341.99609375 333.998046875 c 0
 335.329101562 346.665039062 323.829101562 356.83203125 307.49609375 364.499023438 c 0
 291.163085938 372.166015625 271.99609375 375.999023438 249.99609375 375.999023438 c 0
 211.329101562 375.999023438 179.829101562 360.499023438 155.49609375 329.499023438 c 0
 131.163085938 298.499023438 118.99609375 259.666015625 118.99609375 212.999023438 c 0
 118.99609375 158.33203125 133.829101562 113.499023438 163.49609375 78.4990234375 c 0
 193.163085938 43.4990234375 230.99609375 25.9990234375 276.99609375 25.9990234375 c 0
 311.663085938 25.9990234375 333.330078125 31.33203125 341.997070312 41.9990234375 c 0
 347.997070312 49.33203125 350.997070312 62.6650390625 350.997070312 81.998046875 c 2
EndSplineSet
EndChar

StartChar: R
Encoding: 82 82 45
Width: 483
GlyphClass: 2
Flags: W
LayerCount: 2
Fore
SplineSet
215 -97 m 0
 239.666992188 -97 260.330078125 -105.000976562 276.997070312 -121.000976562 c 0
 293.6640625 -137.000976562 301.997070312 -158.000976562 301.997070312 -184.000976562 c 0
 301.997070312 -208.000976562 293.330078125 -228.333984375 275.997070312 -245.000976562 c 0
 258.6640625 -261.66796875 238.331054688 -270.000976562 214.998046875 -270.000976562 c 0
 191.665039062 -270.000976562 171.33203125 -261.333984375 153.999023438 -244.000976562 c 0
 136.666015625 -226.66796875 127.999023438 -206.66796875 127.999023438 -184.000976562 c 0
 127.999023438 -159.333984375 136.33203125 -138.666992188 152.999023438 -122 c 0
 169.666015625 -105.333007812 190.333007812 -97 215 -97 c 0
214.99609375 -125.000976562 m 0
 198.329101562 -125.000976562 184.329101562 -130.66796875 172.99609375 -142.000976562 c 0
 161.663085938 -153.333984375 155.99609375 -167.333984375 155.99609375 -184.000976562 c 0
 155.99609375 -199.333984375 161.99609375 -213.000976562 173.99609375 -225.000976562 c 0
 185.99609375 -237.000976562 199.663085938 -243.000976562 214.99609375 -243.000976562 c 0
 230.329101562 -243.000976562 243.99609375 -237.333984375 255.99609375 -226.000976562 c 0
 267.99609375 -214.66796875 273.99609375 -200.66796875 273.99609375 -184.000976562 c 0
 273.99609375 -166.000976562 268.329101562 -151.66796875 256.99609375 -141.000976562 c 0
 245.663085938 -130.333984375 231.663085938 -125.000976562 214.99609375 -125.000976562 c 0
86.99609375 93.9990234375 m 2
 86.9970703125 287.99609375 l 2
 86.9970703125 319.329101562 85.830078125 339.662109375 83.4970703125 348.995117188 c 0
 81.1640625 358.328125 74.6640625 363.328125 63.9970703125 363.995117188 c 2
 19.9970703125 366.995117188 l 2
 15.9970703125 368.328125 13.9970703125 372.328125 13.9970703125 378.995117188 c 0
 13.9970703125 385.662109375 15.9970703125 389.329101562 19.9970703125 389.99609375 c 0
 78.6640625 393.329101562 137.6640625 394.99609375 196.997070312 394.99609375 c 0
 254.330078125 394.99609375 300.163085938 387.829101562 334.49609375 373.49609375 c 0
 368.829101562 359.163085938 385.99609375 330.663085938 385.99609375 287.99609375 c 0
 385.99609375 243.329101562 356.99609375 210.329101562 298.99609375 188.99609375 c 0
 294.99609375 186.99609375 294.99609375 182.663085938 298.99609375 175.99609375 c 0
 334.99609375 118.663085938 357.829101562 83.330078125 367.49609375 69.9970703125 c 0
 377.163085938 56.6640625 391.99609375 43.6640625 411.99609375 30.9970703125 c 0
 431.329101562 20.330078125 451.99609375 14.330078125 473.99609375 12.9970703125 c 1
 478.663085938 8.330078125 478.663085938 1.9970703125 473.99609375 -6.0029296875 c 1
 463.99609375 -9.3359375 450.329101562 -11.0029296875 432.99609375 -11.0029296875 c 0
 405.663085938 -11.0029296875 381.99609375 -6.169921875 361.99609375 3.4970703125 c 0
 341.99609375 13.1640625 320.329101562 31.3310546875 296.99609375 57.998046875 c 0
 288.99609375 67.998046875 278.163085938 83.3310546875 264.49609375 103.998046875 c 0
 250.829101562 124.665039062 238.329101562 143.33203125 226.99609375 159.999023438 c 0
 220.329101562 168.666015625 207.329101562 172.999023438 187.99609375 172.999023438 c 0
 169.329101562 172.999023438 159.99609375 168.666015625 159.99609375 159.999023438 c 2
 159.99609375 93.9990234375 l 2
 159.99609375 75.9990234375 160.329101562 63.4990234375 160.99609375 56.4990234375 c 0
 161.663085938 49.4990234375 163.49609375 43.4990234375 166.49609375 38.4990234375 c 0
 169.49609375 33.4990234375 174.99609375 29.9990234375 182.99609375 27.9990234375 c 0
 190.99609375 25.9990234375 198.329101562 24.33203125 204.99609375 22.9990234375 c 2
 235.99609375 19.9990234375 l 2
 239.329101562 18.666015625 240.99609375 14.9990234375 240.99609375 8.9990234375 c 0
 240.99609375 2.9990234375 238.99609375 -1.0009765625 234.99609375 -3.0009765625 c 0
 186.329101562 -1.0009765625 149.329101562 -0.0009765625 123.99609375 -0.0009765625 c 0
 99.99609375 -0.0009765625 63.3291015625 -1.0009765625 13.99609375 -3.0009765625 c 0
 8.6630859375 -1.0009765625 5.99609375 2.83203125 5.99609375 8.4990234375 c 0
 5.99609375 14.166015625 7.99609375 17.9990234375 11.99609375 19.9990234375 c 2
 40.99609375 22.9990234375 l 2
 56.3291015625 24.9990234375 66.8291015625 27.666015625 72.49609375 30.9990234375 c 0
 78.1630859375 34.33203125 81.99609375 39.9990234375 83.99609375 47.9990234375 c 0
 85.99609375 55.9990234375 86.99609375 71.33203125 86.99609375 93.9990234375 c 2
158.997070312 340.99609375 m 2
 158.997070312 223.997070312 l 2
 158.997070312 215.997070312 159.997070312 210.6640625 161.997070312 207.997070312 c 0
 163.997070312 205.330078125 167.997070312 203.663085938 173.997070312 202.99609375 c 0
 179.997070312 202.329101562 191.6640625 201.99609375 208.997070312 201.99609375 c 0
 242.330078125 201.99609375 266.663085938 208.329101562 281.99609375 220.99609375 c 0
 297.329101562 233.663085938 304.99609375 254.99609375 304.99609375 284.99609375 c 0
 304.99609375 308.99609375 296.329101562 328.49609375 278.99609375 343.49609375 c 0
 261.663085938 358.49609375 236.330078125 365.99609375 202.997070312 365.99609375 c 0
 183.6640625 365.99609375 171.497070312 364.663085938 166.497070312 361.99609375 c 0
 161.497070312 359.329101562 158.997070312 352.329101562 158.997070312 340.99609375 c 2
EndSplineSet
EndChar

StartChar: S
Encoding: 83 83 46
Width: 255
GlyphClass: 2
Flags: W
LayerCount: 2
Fore
SplineSet
141 713 m 0
 169 713.666992188 191.670898438 705.165039062 209.00390625 687.498046875 c 0
 226.336914062 669.831054688 234.00390625 647.998046875 232.00390625 621.998046875 c 0
 232.00390625 608.665039062 228.50390625 597.83203125 221.50390625 589.499023438 c 0
 214.50390625 581.166015625 206.670898438 578.333007812 198.00390625 581 c 0
 183.336914062 584.333007812 174.336914062 589.666015625 171.00390625 596.999023438 c 0
 167.670898438 604.33203125 166.337890625 614.499023438 167.004882812 627.499023438 c 0
 167.671875 640.499023438 165.671875 650.166015625 161.004882812 656.499023438 c 0
 156.337890625 662.83203125 146.004882812 665.999023438 130.004882812 665.999023438 c 0
 113.337890625 666.666015625 102.170898438 655.666015625 96.50390625 632.999023438 c 0
 90.8369140625 610.33203125 89.00390625 591.33203125 91.00390625 575.999023438 c 0
 93.00390625 537.999023438 97.6708984375 501.83203125 105.00390625 467.499023438 c 0
 112.336914062 433.166015625 122.669921875 391.166015625 136.002929688 341.499023438 c 0
 149.3359375 291.83203125 156.668945312 262.665039062 158.001953125 253.998046875 c 0
 161.334960938 234.665039062 166.334960938 205.165039062 173.001953125 165.498046875 c 0
 179.668945312 125.831054688 184.001953125 96.498046875 186.001953125 77.498046875 c 0
 188.001953125 58.498046875 190.334960938 39.6650390625 193.001953125 20.998046875 c 0
 197.001953125 -50.3349609375 192.334960938 -106.834960938 179.001953125 -148.501953125 c 0
 165.668945312 -190.168945312 135.3359375 -212.3359375 88.0029296875 -215.002929688 c 0
 71.3359375 -215.669921875 55.8359375 -212.169921875 41.5029296875 -204.502929688 c 0
 27.169921875 -196.8359375 16.3369140625 -185.668945312 9.00390625 -171.001953125 c 0
 1.6708984375 -156.334960938 -1.662109375 -141.001953125 -0.9951171875 -125.001953125 c 0
 2.337890625 -99.6689453125 13.0048828125 -86.001953125 31.0048828125 -84.001953125 c 0
 47.671875 -82.001953125 58.671875 -85.001953125 64.0048828125 -93.001953125 c 0
 69.337890625 -101.001953125 71.6708984375 -112.001953125 71.00390625 -126.001953125 c 0
 70.3369140625 -140.001953125 71.169921875 -150.168945312 73.5029296875 -156.501953125 c 0
 75.8359375 -162.834960938 83.3359375 -166.334960938 96.0029296875 -167.001953125 c 0
 114.002929688 -169.001953125 125.669921875 -158.668945312 131.002929688 -136.001953125 c 0
 136.3359375 -113.334960938 138.002929688 -94.66796875 136.002929688 -80.0009765625 c 0
 133.3359375 -48.0009765625 126.668945312 -7.5009765625 116.001953125 41.4990234375 c 0
 105.334960938 90.4990234375 94.16796875 140.33203125 82.5009765625 190.999023438 c 0
 70.833984375 241.666015625 62.0009765625 287.999023438 56.0009765625 329.999023438 c 1
 45.333984375 369.999023438 38.6669921875 421.666015625 36 484.999023438 c 0
 31.3330078125 561.666015625 38.3330078125 618.833007812 57 656.5 c 0
 75.6669921875 694.166992188 103.666992188 713 141 713 c 0
95.00390625 -366.001953125 m 0
 57.00390625 -366.001953125 27.3388671875 -356.001953125 6.005859375 -336.001953125 c 0
 -15.3271484375 -316.001953125 -28.994140625 -281.668945312 -34.994140625 -233.001953125 c 1
 -28.994140625 -227.001953125 -22.6611328125 -227.001953125 -15.994140625 -233.001953125 c 1
 -8.6611328125 -260.334960938 3.171875 -280.501953125 19.5048828125 -293.501953125 c 0
 35.837890625 -306.501953125 60.6708984375 -313.001953125 94.00390625 -313.001953125 c 0
 126.00390625 -313.001953125 149.836914062 -306.501953125 165.50390625 -293.501953125 c 0
 181.170898438 -280.501953125 194.670898438 -260.334960938 206.00390625 -233.001953125 c 0
 212.670898438 -227.001953125 219.00390625 -227.001953125 225.00390625 -233.001953125 c 1
 217.00390625 -276.334960938 201.670898438 -309.334960938 179.00390625 -332.001953125 c 0
 156.336914062 -354.668945312 128.336914062 -366.001953125 95.00390625 -366.001953125 c 0
EndSplineSet
EndChar

StartChar: T
Encoding: 84 84 47
Width: 322
GlyphClass: 2
Flags: W
LayerCount: 2
Fore
SplineSet
88 319 m 2
 88 334.333007812 87 343.501953125 85 346.501953125 c 0
 83 349.501953125 77 351.001953125 67 351.001953125 c 2
 39 351.001953125 l 2
 35.6669921875 353.001953125 33.833984375 356.168945312 33.5009765625 360.501953125 c 0
 33.16796875 364.834960938 34.0009765625 368.66796875 36.0009765625 372.000976562 c 0
 66.0009765625 381.333984375 87.333984375 391.666992188 100.000976562 403 c 0
 120.66796875 421.666992188 134.66796875 462.666992188 142.000976562 526 c 1
 152.000976562 530 159.000976562 528.333007812 163.000976562 521 c 1
 163.000976562 412 l 2
 163.000976562 402.666992188 163.833984375 397.166992188 165.500976562 395.5 c 0
 167.16796875 393.833007812 172.334960938 393 181.001953125 393 c 2
 292.001953125 393 l 1
 298.668945312 389 301.668945312 381.666992188 301.001953125 371 c 0
 300.334960938 360.333007812 297.66796875 353.666015625 293.000976562 350.999023438 c 2
 180.000976562 350.999023438 l 2
 171.333984375 350.999023438 166.166992188 349.666015625 164.5 346.999023438 c 0
 162.833007812 344.33203125 162 336.665039062 162 323.998046875 c 2
 162 -143.001953125 l 2
 162 -169.668945312 162.666992188 -188.001953125 164 -198.001953125 c 0
 165.333007812 -208.001953125 168.5 -215.001953125 173.5 -219.001953125 c 0
 178.5 -223.001953125 187.333007812 -226.001953125 200 -228.001953125 c 2
 241 -232.001953125 l 2
 245 -234.001953125 246.666992188 -238.168945312 246 -244.501953125 c 0
 245.333007812 -250.834960938 243 -255.001953125 239 -257.001953125 c 0
 189 -255.001953125 151 -254.001953125 125 -254.001953125 c 0
 95 -254.001953125 59 -255.001953125 17 -257.001953125 c 0
 13 -254.334960938 10.6669921875 -250.16796875 10 -244.500976562 c 0
 9.3330078125 -238.833984375 11 -234.666992188 15 -232 c 2
 50 -229 l 2
 68 -227 78.8330078125 -221.5 82.5 -212.5 c 0
 86.1669921875 -203.5 88 -180.333007812 88 -143 c 2
 88 319 l 2
EndSplineSet
EndChar

StartChar: U
Encoding: 85 85 48
Width: 527
GlyphClass: 2
Flags: W
LayerCount: 2
Fore
SplineSet
159 174 m 1
 159.000976562 147 l 2
 159.000976562 109 165.66796875 80.1669921875 179.000976562 60.5 c 0
 192.333984375 40.8330078125 216.666992188 31 252 31 c 0
 282 31 309 41.3330078125 333 62 c 0
 346.333007812 74 353 93.3330078125 353 120 c 2
 353 174 l 1
 159 174 l 1
427.000976562 313 m 2
 427.000976562 219.998046875 l 1
 501.000976562 219.998046875 l 1
 501.000976562 173.998046875 l 1
 427.000976562 173.998046875 l 1
 427.000976562 145.998046875 l 2
 427.000976562 96.6650390625 428.000976562 66.1650390625 430.000976562 54.498046875 c 0
 432.000976562 42.8310546875 441.333984375 36.998046875 458.000976562 36.998046875 c 0
 468.66796875 36.998046875 481.66796875 38.6650390625 497.000976562 41.998046875 c 0
 498.333984375 40.6650390625 499.666992188 37.83203125 501 33.4990234375 c 0
 502.333007812 29.166015625 502.333007812 24.8330078125 501 20.5 c 0
 499.666992188 16.1669921875 498 13.6669921875 496 13 c 0
 428 -1 384.333007812 -13.3330078125 365 -24 c 0
 359.666992188 -24 355.666992188 -21.6669921875 353 -17 c 2
 353 24 l 2
 353 33.3330078125 350 38 344 38 c 0
 288 2.6669921875 242 -15 206 -15 c 0
 163.333007812 -15 132.5 -4.6669921875 113.5 16 c 0
 94.5 36.6669921875 85 68 85 110 c 2
 85 174 l 1
 16 174 l 1
 16 220 l 1
 85 220 l 1
 85 277 l 2
 85 303.666992188 84.6669921875 322 84 332 c 0
 83.3330078125 342 81.166015625 349.166992188 77.4990234375 353.5 c 0
 73.83203125 357.833007812 66.33203125 361 54.9990234375 363 c 2
 34.9990234375 367 l 2
 32.33203125 369.666992188 31.33203125 373.666992188 31.9990234375 379 c 0
 32.666015625 384.333007812 34.3330078125 387.333007812 37 388 c 0
 87 390 125.333007812 397 152 409 c 0
 158 408.333007812 161.333007812 406 162 402 c 0
 160 383.333007812 159 353.666015625 159 312.999023438 c 2
 159 219.999023438 l 1
 353 219.999023438 l 1
 353 283.999023438 l 2
 353 317.999023438 351 338.83203125 347 346.499023438 c 0
 343 354.166015625 332.666992188 359.666015625 316 362.999023438 c 2
 295 366.999023438 l 2
 291.666992188 368.999023438 290 372.83203125 290 378.499023438 c 0
 290 384.166015625 292 387.333007812 296 388 c 0
 358.666992188 390.666992188 400.333984375 397.666992188 421.000976562 409 c 0
 426.333984375 407.666992188 429.333984375 405.333984375 430.000976562 402.000976562 c 0
 428.000976562 381.333984375 427.000976562 351.666992188 427.000976562 313 c 2
222.000976562 577.998046875 m 2
 303 541.997070312 l 2
 321 534.6640625 335 535.1640625 345 543.497070312 c 0
 355 551.830078125 366.666992188 567.997070312 380 591.997070312 c 0
 382 595.997070312 385.166992188 597.6640625 389.5 596.997070312 c 0
 393.833007812 596.330078125 396.333007812 593.330078125 397 587.997070312 c 0
 399 555.330078125 390.666992188 528.330078125 372 506.997070312 c 0
 360.666992188 494.330078125 346.666992188 486.997070312 330 484.997070312 c 0
 313.333007812 482.997070312 297.333007812 484.6640625 282 489.997070312 c 2
 203 522.997070312 l 2
 175.666992188 534.997070312 147.333984375 518.6640625 118.000976562 473.997070312 c 0
 116.000976562 469.997070312 112.833984375 468.997070312 108.500976562 470.997070312 c 0
 104.16796875 472.997070312 101.66796875 475.6640625 101.000976562 478.997070312 c 0
 98.333984375 500.997070312 111.000976562 527.330078125 139.000976562 557.997070312 c 0
 147.000976562 568.6640625 159.16796875 576.331054688 175.500976562 580.998046875 c 0
 191.833984375 585.665039062 207.333984375 584.665039062 222.000976562 577.998046875 c 2
EndSplineSet
EndChar

StartChar: V
Encoding: 86 86 49
Width: 483
GlyphClass: 2
Flags: W
LayerCount: 2
Fore
SplineSet
375 576 m 2
 374.999023438 106.000976562 l 2
 374.999023438 74.0009765625 376.166015625 53.333984375 378.499023438 44.0009765625 c 0
 380.83203125 34.66796875 387.33203125 29.66796875 397.999023438 29.0009765625 c 2
 433.999023438 26.0009765625 l 2
 437.999023438 26.0009765625 439.999023438 22.5009765625 439.999023438 15.5009765625 c 0
 439.999023438 8.5009765625 437.999023438 4.333984375 433.999023438 3.0009765625 c 0
 382.666015625 -0.33203125 326.333007812 -1.9990234375 265 -1.9990234375 c 0
 207.666992188 -1.9990234375 161.833984375 5.5009765625 127.500976562 20.5009765625 c 0
 93.16796875 35.5009765625 76.0009765625 64.0009765625 76.0009765625 106.000976562 c 0
 76.0009765625 150.000976562 105.000976562 182.66796875 163.000976562 204.000976562 c 0
 167.000976562 206.66796875 167.000976562 210.66796875 163.000976562 216.000976562 c 0
 132.333984375 268.000976562 110.500976562 302.500976562 97.5009765625 319.500976562 c 0
 84.5009765625 336.500976562 68.66796875 350.333984375 50.0009765625 361.000976562 c 0
 31.333984375 372.333984375 10.6669921875 378.666992188 -12 380 c 1
 -16.6669921875 384.666992188 -16.6669921875 391 -12 399 c 1
 -4 401.666992188 9.6669921875 403 29 403 c 0
 58.3330078125 403 83.166015625 398 103.499023438 388 c 0
 123.83203125 378 144.33203125 360.333007812 164.999023438 335 c 0
 176.33203125 322.333007812 188.165039062 306.5 200.498046875 287.5 c 0
 212.831054688 268.5 224.331054688 250.333007812 234.998046875 233 c 0
 242.331054688 223.666992188 255.331054688 219 273.998046875 219 c 0
 286.665039062 219 294.498046875 220 297.498046875 222 c 0
 300.498046875 224 301.998046875 227.666992188 301.998046875 233 c 2
 301.998046875 576 l 2
 301.998046875 607.333007812 299.665039062 626.666015625 294.998046875 633.999023438 c 0
 290.331054688 641.33203125 277.6640625 645.999023438 256.997070312 647.999023438 c 2
 225.997070312 650.999023438 l 2
 222.6640625 654.33203125 221.331054688 658.83203125 221.998046875 664.499023438 c 0
 222.665039062 670.166015625 224.33203125 673.333007812 226.999023438 674 c 0
 276.33203125 672 313.33203125 671 337.999023438 671 c 0
 364.666015625 671 398.999023438 672 440.999023438 674 c 0
 446.33203125 672.666992188 449.33203125 669 449.999023438 663 c 0
 450.666015625 657 448.333007812 653 443 651 c 2
 421 648 l 2
 404.333007812 644.666992188 393.5 641.5 388.5 638.5 c 0
 383.5 635.5 380 630.166992188 378 622.5 c 0
 376 614.833007812 375 599.333007812 375 576 c 2
302.999023438 51.0009765625 m 2
 302.998046875 168.999023438 l 2
 302.998046875 179.666015625 300.665039062 185.833007812 295.998046875 187.5 c 0
 291.331054688 189.166992188 276.998046875 190 252.998046875 190 c 0
 220.998046875 190 196.998046875 184 180.998046875 172 c 0
 164.998046875 160 156.998046875 138.666992188 156.998046875 108 c 0
 156.998046875 84 165.831054688 64.5 183.498046875 49.5 c 0
 201.165039062 34.5 226.33203125 27 258.999023438 27 c 0
 276.999023438 27 288.83203125 28.3330078125 294.499023438 31 c 0
 300.166015625 33.6669921875 302.999023438 40.333984375 302.999023438 51.0009765625 c 2
EndSplineSet
EndChar

StartChar: W
Encoding: 87 87 50
Width: 595
GlyphClass: 2
Flags: W
LayerCount: 2
Fore
SplineSet
292 -97 m 0
 316.666992188 -97 337.330078125 -105.000976562 353.997070312 -121.000976562 c 0
 370.6640625 -137.000976562 378.997070312 -158.000976562 378.997070312 -184.000976562 c 0
 378.997070312 -208.000976562 370.330078125 -228.333984375 352.997070312 -245.000976562 c 0
 335.6640625 -261.66796875 315.331054688 -270.000976562 291.998046875 -270.000976562 c 0
 268.665039062 -270.000976562 248.33203125 -261.333984375 230.999023438 -244.000976562 c 0
 213.666015625 -226.66796875 204.999023438 -206.66796875 204.999023438 -184.000976562 c 0
 204.999023438 -159.333984375 213.33203125 -138.666992188 229.999023438 -122 c 0
 246.666015625 -105.333007812 267.333007812 -97 292 -97 c 0
291.99609375 -125.000976562 m 0
 275.329101562 -125.000976562 261.329101562 -130.66796875 249.99609375 -142.000976562 c 0
 238.663085938 -153.333984375 232.99609375 -167.333984375 232.99609375 -184.000976562 c 0
 232.99609375 -199.333984375 238.99609375 -213.000976562 250.99609375 -225.000976562 c 0
 262.99609375 -237.000976562 276.663085938 -243.000976562 291.99609375 -243.000976562 c 0
 307.329101562 -243.000976562 320.99609375 -237.333984375 332.99609375 -226.000976562 c 0
 344.99609375 -214.66796875 350.99609375 -200.66796875 350.99609375 -184.000976562 c 0
 350.99609375 -166.000976562 345.329101562 -151.66796875 333.99609375 -141.000976562 c 0
 322.663085938 -130.333984375 308.663085938 -125.000976562 291.99609375 -125.000976562 c 0
274.99609375 52.9990234375 m 0
 261.663085938 84.33203125 255.825195312 113.833007812 257.4921875 141.5 c 0
 259.159179688 169.166992188 270.659179688 183 291.9921875 183 c 0
 311.325195312 183 322.158203125 168.333007812 324.491210938 139 c 0
 326.82421875 109.666992188 321.991210938 80.6669921875 309.991210938 52 c 0
 304.658203125 34.6669921875 311.658203125 26 330.991210938 26 c 0
 369.658203125 26 399.658203125 39 420.991210938 65 c 0
 442.32421875 91 452.991210938 122.666992188 452.991210938 160 c 0
 452.991210938 242.666992188 435.32421875 310.666992188 399.991210938 364 c 0
 397.32421875 369.333007812 395.991210938 375.5 395.991210938 382.5 c 0
 395.991210938 389.5 397.658203125 394 400.991210938 396 c 0
 440.32421875 394 468.657226562 393 485.990234375 393 c 2
 496.990234375 393 l 2
 499.657226562 393 502.32421875 393.166992188 504.991210938 393.5 c 0
 507.658203125 393.833007812 518.325195312 394.666015625 536.9921875 395.999023438 c 0
 540.9921875 395.33203125 542.9921875 390.499023438 542.9921875 381.499023438 c 0
 542.9921875 372.499023438 541.325195312 366.33203125 537.9921875 362.999023438 c 0
 516.659179688 364.33203125 499.326171875 364.999023438 485.993164062 364.999023438 c 0
 472.66015625 364.999023438 462.993164062 362.166015625 456.993164062 356.499023438 c 0
 450.993164062 350.83203125 451.326171875 341.33203125 457.993164062 327.999023438 c 0
 473.993164062 305.33203125 490.326171875 280.499023438 506.993164062 253.499023438 c 0
 523.66015625 226.499023438 533.327148438 197.999023438 535.994140625 167.999023438 c 0
 539.327148438 133.33203125 533.494140625 100.499023438 518.494140625 69.4990234375 c 0
 503.494140625 38.4990234375 479.661132812 15.166015625 446.994140625 -0.5009765625 c 0
 414.327148438 -16.16796875 374.994140625 -19.66796875 328.994140625 -11.0009765625 c 0
 299.661132812 -5.0009765625 271.661132812 -5.0009765625 244.994140625 -11.0009765625 c 0
 196.994140625 -19.66796875 156.827148438 -16.3349609375 124.494140625 -1.001953125 c 0
 92.1611328125 14.3310546875 68.328125 37.6640625 52.9951171875 68.9970703125 c 0
 37.662109375 100.330078125 31.662109375 133.330078125 34.9951171875 167.997070312 c 0
 36.9951171875 188.6640625 42.162109375 208.497070312 50.4951171875 227.497070312 c 0
 58.828125 246.497070312 70.4951171875 266.330078125 85.4951171875 286.997070312 c 0
 100.495117188 307.6640625 109.995117188 320.997070312 113.995117188 326.997070312 c 0
 123.328125 346.997070312 119.995117188 358.1640625 103.995117188 360.497070312 c 0
 87.9951171875 362.830078125 63.662109375 363.330078125 30.9951171875 361.997070312 c 0
 28.9951171875 365.330078125 28.328125 371.663085938 28.9951171875 380.99609375 c 0
 29.662109375 390.329101562 31.3291015625 395.329101562 33.99609375 395.99609375 c 0
 51.99609375 394.663085938 62.49609375 393.830078125 65.49609375 393.497070312 c 0
 68.49609375 393.1640625 71.3291015625 392.997070312 73.99609375 392.997070312 c 2
 84.99609375 392.997070312 l 2
 102.99609375 392.997070312 131.329101562 393.997070312 169.99609375 395.997070312 c 0
 173.329101562 394.6640625 175.162109375 390.831054688 175.495117188 384.498046875 c 0
 175.828125 378.165039062 174.328125 371.33203125 170.995117188 363.999023438 c 0
 156.328125 343.33203125 143.828125 314.165039062 133.495117188 276.498046875 c 0
 123.162109375 238.831054688 117.995117188 199.998046875 117.995117188 159.998046875 c 0
 117.995117188 120.665039062 129.328125 88.33203125 151.995117188 62.9990234375 c 0
 174.662109375 37.666015625 206.995117188 24.666015625 248.995117188 23.9990234375 c 0
 257.662109375 23.9990234375 264.829101562 27.166015625 270.49609375 33.4990234375 c 0
 276.163085938 39.83203125 277.663085938 46.33203125 274.99609375 52.9990234375 c 0
259.991210938 578 m 2
 340.990234375 541.999023438 l 2
 358.990234375 534.666015625 372.990234375 535.166015625 382.990234375 543.499023438 c 0
 392.990234375 551.83203125 404.657226562 567.999023438 417.990234375 591.999023438 c 0
 419.990234375 595.999023438 423.157226562 597.666015625 427.490234375 596.999023438 c 0
 431.823242188 596.33203125 434.323242188 593.33203125 434.990234375 587.999023438 c 0
 436.990234375 555.33203125 428.657226562 528.33203125 409.990234375 506.999023438 c 0
 398.657226562 494.33203125 384.657226562 486.999023438 367.990234375 484.999023438 c 0
 351.323242188 482.999023438 335.323242188 484.666015625 319.990234375 489.999023438 c 2
 240.990234375 522.999023438 l 2
 213.657226562 534.999023438 185.32421875 518.666015625 155.991210938 473.999023438 c 0
 153.991210938 469.999023438 150.82421875 468.999023438 146.491210938 470.999023438 c 0
 142.158203125 472.999023438 139.658203125 475.666015625 138.991210938 478.999023438 c 0
 136.32421875 500.999023438 148.991210938 527.33203125 176.991210938 557.999023438 c 0
 184.991210938 568.666015625 197.158203125 576.333007812 213.491210938 581 c 0
 229.82421875 585.666992188 245.32421875 584.666992188 259.991210938 578 c 2
EndSplineSet
EndChar

StartChar: X
Encoding: 88 88 51
Width: 475
GlyphClass: 2
Flags: W
LayerCount: 2
Fore
SplineSet
152 -160 m 2
 152 -190.666992188 153.501953125 -209.669921875 156.501953125 -217.002929688 c 0
 159.501953125 -224.3359375 168.334960938 -229.002929688 183.001953125 -231.002929688 c 2
 218.001953125 -234.002929688 l 2
 221.334960938 -236.002929688 223.001953125 -239.8359375 223.001953125 -245.502929688 c 0
 223.001953125 -251.169921875 221.001953125 -255.002929688 217.001953125 -257.002929688 c 0
 178.334960938 -255.002929688 144.66796875 -254.002929688 116.000976562 -254.002929688 c 0
 92.66796875 -254.002929688 60.0009765625 -255.002929688 18.0009765625 -257.002929688 c 0
 12.66796875 -255.002929688 10.0009765625 -251.169921875 10.0009765625 -245.502929688 c 0
 10.0009765625 -239.8359375 12.0009765625 -236.002929688 16.0009765625 -234.002929688 c 2
 38.0009765625 -231.002929688 l 2
 53.333984375 -229.002929688 63.833984375 -226.3359375 69.5009765625 -223.002929688 c 0
 75.16796875 -219.669921875 79.0009765625 -214.169921875 81.0009765625 -206.502929688 c 0
 83.0009765625 -198.8359375 84.0009765625 -183.3359375 84.0009765625 -160.002929688 c 2
 84.0009765625 287.997070312 l 2
 84.0009765625 319.330078125 82.833984375 339.663085938 80.5009765625 348.99609375 c 0
 78.16796875 358.329101562 71.66796875 363.329101562 61.0009765625 363.99609375 c 2
 25.0009765625 366.99609375 l 2
 21.0009765625 368.329101562 19.0009765625 372.329101562 19.0009765625 378.99609375 c 0
 19.0009765625 385.663085938 21.0009765625 389.330078125 25.0009765625 389.997070312 c 0
 77.0009765625 393.330078125 133.333984375 394.997070312 194.000976562 394.997070312 c 0
 251.333984375 394.997070312 297.166992188 387.830078125 331.5 373.497070312 c 0
 365.833007812 359.1640625 383 330.6640625 383 287.997070312 c 0
 383 243.330078125 354 210.330078125 296 188.997070312 c 0
 292 186.997070312 292 182.6640625 296 175.997070312 c 0
 332 118.6640625 354.833007812 83.3310546875 364.5 69.998046875 c 0
 374.166992188 56.6650390625 389 43.6650390625 409 30.998046875 c 0
 428.333007812 20.3310546875 449 14.3310546875 471 12.998046875 c 1
 475.666992188 8.3310546875 475.666992188 1.998046875 471 -6.001953125 c 1
 461 -9.3349609375 447.333007812 -11.001953125 430 -11.001953125 c 0
 402.666992188 -11.001953125 379 -6.1689453125 359 3.498046875 c 0
 339 13.1650390625 317.333007812 31.33203125 294 57.9990234375 c 0
 286 67.9990234375 275.166992188 83.33203125 261.5 103.999023438 c 0
 247.833007812 124.666015625 235.333007812 143.333007812 224 160 c 0
 217.333007812 168.666992188 204.333007812 173 185 173 c 0
 163 173 152 168.666992188 152 160 c 2
 152 -160 l 2
152.001953125 340.997070312 m 2
 152.000976562 223.997070312 l 2
 152.000976562 213.997070312 154.833984375 207.830078125 160.500976562 205.497070312 c 0
 166.16796875 203.1640625 181.334960938 201.997070312 206.001953125 201.997070312 c 0
 239.334960938 201.997070312 263.66796875 208.330078125 279.000976562 220.997070312 c 0
 294.333984375 233.6640625 302.000976562 254.997070312 302.000976562 284.997070312 c 0
 302.000976562 308.997070312 293.333984375 328.497070312 276.000976562 343.497070312 c 0
 258.66796875 358.497070312 233.334960938 365.997070312 200.001953125 365.997070312 c 0
 180.001953125 365.997070312 167.001953125 364.6640625 161.001953125 361.997070312 c 0
 155.001953125 359.330078125 152.001953125 352.330078125 152.001953125 340.997070312 c 2
EndSplineSet
EndChar

StartChar: Y
Encoding: 89 89 52
Width: 533
GlyphClass: 2
Flags: W
LayerCount: 2
Fore
SplineSet
386 220 m 1
 379.333007812 272.666992188 361.666015625 320.666015625 332.999023438 363.999023438 c 0
 330.33203125 369.33203125 328.999023438 375.499023438 328.999023438 382.499023438 c 0
 328.999023438 389.499023438 330.666015625 393.999023438 333.999023438 395.999023438 c 0
 373.33203125 393.999023438 401.665039062 392.999023438 418.998046875 392.999023438 c 2
 429.998046875 392.999023438 l 2
 432.665039062 392.999023438 435.33203125 393.166015625 437.999023438 393.499023438 c 0
 440.666015625 393.83203125 451.333007812 394.665039062 470 395.998046875 c 0
 474 395.331054688 476 390.498046875 476 381.498046875 c 0
 476 372.498046875 474.333007812 366.331054688 471 362.998046875 c 0
 449.666992188 364.331054688 432.333984375 364.998046875 419.000976562 364.998046875 c 0
 405.66796875 364.998046875 396.000976562 362.165039062 390.000976562 356.498046875 c 0
 384.000976562 350.831054688 384.333984375 341.331054688 391.000976562 327.998046875 c 0
 395.66796875 319.331054688 406.834960938 303.6640625 424.501953125 280.997070312 c 0
 442.168945312 258.330078125 454.001953125 237.997070312 460.001953125 219.997070312 c 1
 506.001953125 219.997070312 l 1
 506.001953125 173.997070312 l 1
 468.001953125 173.997070312 l 1
 472.001953125 117.997070312 456.668945312 72.330078125 422.001953125 36.9970703125 c 0
 387.334960938 1.6640625 334.001953125 -16.0029296875 262.001953125 -16.0029296875 c 0
 188.668945312 -16.0029296875 134.668945312 1.6640625 100.001953125 36.9970703125 c 0
 65.3349609375 72.330078125 49.66796875 117.997070312 53.0009765625 173.997070312 c 1
 18.0009765625 173.997070312 l 1
 18.0009765625 219.997070312 l 1
 61.0009765625 219.997070312 l 1
 68.333984375 238.6640625 80.6669921875 259.331054688 98 281.998046875 c 0
 115.333007812 304.665039062 126.333007812 319.665039062 131 326.998046875 c 0
 140.333007812 346.998046875 137 358.165039062 121 360.498046875 c 0
 105 362.831054688 80.6669921875 363.331054688 48 361.998046875 c 0
 46 365.331054688 45.3330078125 371.6640625 46 380.997070312 c 0
 46.6669921875 390.330078125 48.333984375 395.330078125 51.0009765625 395.997070312 c 0
 69.0009765625 394.6640625 79.5009765625 393.831054688 82.5009765625 393.498046875 c 0
 85.5009765625 393.165039062 88.333984375 392.998046875 91.0009765625 392.998046875 c 2
 102.000976562 392.998046875 l 2
 120.000976562 392.998046875 148.333984375 393.998046875 187.000976562 395.998046875 c 0
 190.333984375 394.665039062 192.166992188 390.83203125 192.5 384.499023438 c 0
 192.833007812 378.166015625 191.333007812 371.333007812 188 364 c 0
 158.666992188 322.666992188 140.666992188 274.666992188 134 220 c 1
 386 220 l 1
392 173.999023438 m 1
 130.000976562 174 l 1
 130.000976562 154 l 2
 130.000976562 116 142.16796875 84.1669921875 166.500976562 58.5 c 0
 190.833984375 32.8330078125 224.000976562 19.666015625 266.000976562 18.9990234375 c 1
 305.333984375 22.9990234375 336.166992188 37.4990234375 358.5 62.4990234375 c 0
 380.833007812 87.4990234375 392 117.999023438 392 153.999023438 c 2
 392 173.999023438 l 1
244.000976562 578 m 2
 325 541.999023438 l 2
 343 534.666015625 357 535.166015625 367 543.499023438 c 0
 377 551.83203125 388.666992188 567.999023438 402 591.999023438 c 0
 404 595.999023438 407.166992188 597.666015625 411.5 596.999023438 c 0
 415.833007812 596.33203125 418.333007812 593.33203125 419 587.999023438 c 0
 421 555.33203125 412.666992188 528.33203125 394 506.999023438 c 0
 382.666992188 494.33203125 368.666992188 486.999023438 352 484.999023438 c 0
 335.333007812 482.999023438 319.333007812 484.666015625 304 489.999023438 c 2
 225 522.999023438 l 2
 197.666992188 534.999023438 169.333984375 518.666015625 140.000976562 473.999023438 c 0
 138.000976562 469.999023438 134.833984375 468.999023438 130.500976562 470.999023438 c 0
 126.16796875 472.999023438 123.66796875 475.666015625 123.000976562 478.999023438 c 0
 120.333984375 500.999023438 133.000976562 527.33203125 161.000976562 557.999023438 c 0
 169.000976562 568.666015625 181.16796875 576.333007812 197.500976562 581 c 0
 213.833984375 585.666992188 229.333984375 584.666992188 244.000976562 578 c 2
EndSplineSet
EndChar

StartChar: Z
Encoding: 90 90 53
Width: 405
GlyphClass: 2
Flags: W
LayerCount: 2
Fore
SplineSet
188 121 m 0
 250.666992188 120.333007812 296.6640625 101.33203125 325.997070312 63.9990234375 c 0
 355.330078125 26.666015625 369.997070312 -17.0009765625 369.997070312 -67.0009765625 c 0
 369.997070312 -97.66796875 362.830078125 -126.000976562 348.497070312 -152.000976562 c 0
 334.1640625 -178.000976562 312.331054688 -203.66796875 282.998046875 -229.000976562 c 1
 249.665039062 -248.333984375 223.33203125 -259.833984375 203.999023438 -263.500976562 c 0
 184.666015625 -267.16796875 156.333007812 -269.000976562 119 -269.000976562 c 0
 96.3330078125 -269.000976562 75.8330078125 -263.000976562 57.5 -251.000976562 c 0
 39.1669921875 -239.000976562 30 -223.333984375 30 -204.000976562 c 0
 30 -194.000976562 33 -185.66796875 39 -179.000976562 c 0
 45 -172.333984375 53.6669921875 -169.000976562 65 -169.000976562 c 0
 78.3330078125 -169.000976562 92.666015625 -179.66796875 107.999023438 -201.000976562 c 0
 115.999023438 -211.66796875 123.499023438 -219.500976562 130.499023438 -224.500976562 c 0
 137.499023438 -229.500976562 145.999023438 -232.000976562 155.999023438 -232.000976562 c 0
 207.33203125 -231.333984375 242.33203125 -217.333984375 260.999023438 -190.000976562 c 0
 279.666015625 -162.66796875 288.999023438 -121.66796875 288.999023438 -67.0009765625 c 0
 288.999023438 -30.333984375 281.666015625 2.3330078125 266.999023438 31 c 0
 252.33203125 59.6669921875 231.665039062 76 204.998046875 80 c 0
 177.665039062 84 152.998046875 83.3330078125 130.998046875 78 c 1
 111.665039062 80.6669921875 104.998046875 91 110.998046875 109 c 1
 122.998046875 128 l 2
 160.998046875 188 189.665039062 233.5 208.998046875 264.5 c 0
 228.331054688 295.5 238.998046875 312.333007812 240.998046875 315 c 2
 244.998046875 323 l 1
 225.998046875 323 l 1
 131.998046875 323 l 2
 98.6650390625 323 75.6650390625 315.333007812 62.998046875 300 c 0
 56.3310546875 292 48.3310546875 278 38.998046875 258 c 1
 32.3310546875 254 26.998046875 256.333007812 22.998046875 265 c 1
 38.3310546875 339 49.6640625 382.666992188 56.9970703125 396 c 1
 88.330078125 394 120.663085938 393 153.99609375 393 c 2
 266.99609375 393 l 2
 306.329101562 393 333.99609375 394 349.99609375 396 c 0
 353.329101562 394.666992188 354.99609375 390 354.99609375 382 c 0
 354.99609375 371.333007812 353.329101562 365.333007812 349.99609375 364 c 0
 338.663085938 360 329.830078125 354.5 323.497070312 347.5 c 0
 317.1640625 340.5 303.997070312 323.666992188 283.997070312 297 c 0
 274.6640625 285 239.331054688 233 177.998046875 141 c 0
 170.665039062 128.333007812 167.33203125 121.833007812 167.999023438 121.5 c 0
 168.666015625 121.166992188 175.333007812 121 188 121 c 0
196.997070312 606.999023438 m 0
 235.6640625 606.999023438 265.497070312 596.831054688 286.497070312 576.498046875 c 0
 307.497070312 556.165039062 320.997070312 521.33203125 326.997070312 471.999023438 c 1
 320.997070312 466.666015625 314.6640625 466.666015625 307.997070312 471.999023438 c 1
 300.6640625 501.33203125 288.831054688 521.999023438 272.498046875 533.999023438 c 0
 256.165039062 545.999023438 231.33203125 551.999023438 197.999023438 551.999023438 c 0
 165.33203125 551.999023438 141.665039062 545.999023438 126.998046875 533.999023438 c 0
 112.331054688 521.999023438 98.6640625 501.33203125 85.9970703125 471.999023438 c 0
 79.9970703125 466.666015625 73.6640625 466.666015625 66.9970703125 471.999023438 c 1
 83.6640625 561.999023438 126.997070312 606.999023438 196.997070312 606.999023438 c 0
EndSplineSet
EndChar

StartChar: backslash
Encoding: 92 92 54
Width: 564
GlyphClass: 2
Flags: W
LayerCount: 2
Fore
SplineSet
184 27 m 1
 128.666992188 67 98.001953125 121.999023438 92.001953125 191.999023438 c 0
 87.3349609375 254.666015625 105.66796875 306.333007812 147.000976562 347 c 0
 188.333984375 387.666992188 240.000976562 408 302.000976562 408 c 0
 342.66796875 408 379.16796875 398.666992188 411.500976562 380 c 0
 443.833984375 361.333007812 468.666992188 335.5 486 302.5 c 0
 503.333007812 269.5 510.666015625 232.333007812 507.999023438 191 c 0
 503.33203125 131 482.33203125 81.8330078125 444.999023438 43.5 c 0
 407.666015625 5.1669921875 363.333007812 -14 312 -14 c 0
 298.666992188 -14 286 -13 274 -11 c 2
 39 -11 l 1
 34 43 l 1
 184 27 l 1
178.001953125 213.999023438 m 0
 176.668945312 183.999023438 180.000976562 153.998046875 188.000976562 123.998046875 c 0
 196.000976562 93.998046875 209.500976562 68.998046875 228.500976562 48.998046875 c 0
 247.500976562 28.998046875 271.66796875 17.998046875 301.000976562 15.998046875 c 0
 335.000976562 13.998046875 363.000976562 27.998046875 385.000976562 57.998046875 c 0
 407.000976562 87.998046875 419.000976562 129.665039062 421.000976562 182.998046875 c 0
 423.000976562 232.331054688 413.333984375 276.498046875 392.000976562 315.498046875 c 0
 370.66796875 354.498046875 339.334960938 374.998046875 298.001953125 376.998046875 c 0
 258.668945312 379.665039062 229.501953125 364.83203125 210.501953125 332.499023438 c 0
 191.501953125 300.166015625 180.668945312 260.666015625 178.001953125 213.999023438 c 0
276.000976562 577.998046875 m 2
 357 541.997070312 l 2
 375 534.6640625 389 535.1640625 399 543.497070312 c 0
 409 551.830078125 420.666992188 567.997070312 434 591.997070312 c 0
 436 595.997070312 439.166992188 597.6640625 443.5 596.997070312 c 0
 447.833007812 596.330078125 450.333007812 593.330078125 451 587.997070312 c 0
 453 555.330078125 444.666992188 528.330078125 426 506.997070312 c 0
 414.666992188 494.330078125 400.666992188 486.997070312 384 484.997070312 c 0
 367.333007812 482.997070312 351.333007812 484.6640625 336 489.997070312 c 2
 257 522.997070312 l 2
 229.666992188 534.997070312 201.333984375 518.6640625 172.000976562 473.997070312 c 0
 170.000976562 469.997070312 166.833984375 468.997070312 162.500976562 470.997070312 c 0
 158.16796875 472.997070312 155.66796875 475.6640625 155.000976562 478.997070312 c 0
 152.333984375 500.997070312 165.000976562 527.330078125 193.000976562 557.997070312 c 0
 201.000976562 568.6640625 213.16796875 576.331054688 229.500976562 580.998046875 c 0
 245.833984375 585.665039062 261.333984375 584.665039062 276.000976562 577.998046875 c 2
EndSplineSet
EndChar

StartChar: bracketright
Encoding: 93 93 55
Width: 778
GlyphClass: 2
Flags: W
LayerCount: 2
Fore
SplineSet
560 0 m 1
 472 -0.0009765625 l 1
 384 -0.0009765625 l 1
 382 -0.0009765625 l 1
 381.333007812 9.33203125 377 16.83203125 369 22.4990234375 c 0
 361 28.166015625 354.666992188 30.9990234375 350 30.9990234375 c 2
 346 30.9990234375 l 1
 318.666992188 13.666015625 296.666992188 1.666015625 280 -5.0009765625 c 0
 263.333007812 -11.66796875 243.333007812 -15.0009765625 220 -15.0009765625 c 0
 165.333007812 -15.0009765625 120.833007812 3.83203125 86.5 41.4990234375 c 0
 52.1669921875 79.166015625 35 124.333007812 35 177 c 0
 35 245.666992188 58 301.166992188 104 343.5 c 0
 150 385.833007812 207.666992188 407 277 407 c 0
 305 407 327.333007812 404 344 398 c 0
 348 398 350 402.666992188 350 412 c 2
 350 600 l 2
 350 620.666992188 345.666992188 633.333984375 337 638.000976562 c 0
 328.333007812 642.66796875 312 645.66796875 288 647.000976562 c 2
 270 649.000976562 l 2
 268 652.333984375 267 656.166992188 267 660.5 c 0
 267 664.833007812 268.333007812 667.666015625 271 668.999023438 c 0
 316.333007812 684.33203125 363 704.665039062 411 729.998046875 c 1
 425 727.331054688 432 724.331054688 432 720.998046875 c 2
 423 645.998046875 l 1
 423 124.998046875 l 2
 423 80.3310546875 424.333007812 53.8310546875 427 45.498046875 c 0
 429.666992188 37.1650390625 435.333984375 38.998046875 444.000976562 50.998046875 c 0
 455.333984375 71.6650390625 466.333984375 90.83203125 477.000976562 108.499023438 c 0
 487.66796875 126.166015625 495.66796875 140.333007812 501.000976562 151 c 2
 527.000976562 197 l 1
 460.000976562 198 l 1
 478.000976562 238 l 1
 533.000976562 209 l 1
 601.000976562 333 l 2
 608.333984375 346.333007812 611.000976562 355 609.000976562 359 c 0
 607.000976562 363 601.333984375 364.333007812 592.000976562 363 c 0
 564.000976562 362.333007812 545.000976562 357.666015625 535.000976562 348.999023438 c 0
 522.333984375 338.33203125 509.666992188 316.33203125 497 282.999023438 c 0
 494.333007812 280.999023438 490.166015625 280.33203125 484.499023438 280.999023438 c 0
 478.83203125 281.666015625 473.999023438 283.666015625 469.999023438 286.999023438 c 1
 479.999023438 316.33203125 490.33203125 364.33203125 500.999023438 430.999023438 c 1
 507.666015625 433.666015625 514.333007812 433.666015625 521 430.999023438 c 1
 523 412.999023438 527.666992188 402.166015625 535 398.499023438 c 0
 542.333007812 394.83203125 560.666015625 392.999023438 589.999023438 392.999023438 c 2
 650.999023438 392.999023438 l 2
 681.666015625 392.999023438 701.999023438 393.999023438 711.999023438 395.999023438 c 0
 715.999023438 393.999023438 717.666015625 390.666015625 716.999023438 385.999023438 c 0
 696.33203125 357.33203125 671.665039062 319.33203125 642.998046875 271.999023438 c 2
 597.998046875 194.999023438 l 1
 664.998046875 197.999023438 l 1
 647.998046875 153.999023438 l 1
 591.998046875 185.999023438 l 1
 521.998046875 68.9990234375 l 2
 511.998046875 51.666015625 507.998046875 40.666015625 509.998046875 35.9990234375 c 0
 511.998046875 31.33203125 522.331054688 28.9990234375 540.998046875 28.9990234375 c 2
 574.998046875 28.9990234375 l 2
 602.998046875 28.9990234375 626.498046875 30.83203125 645.498046875 34.4990234375 c 0
 664.498046875 38.166015625 680.331054688 46.666015625 692.998046875 59.9990234375 c 0
 701.665039062 68.666015625 712.33203125 87.9990234375 724.999023438 117.999023438 c 0
 729.666015625 120.666015625 734.333007812 121.166015625 739 119.499023438 c 0
 743.666992188 117.83203125 746.333984375 114.999023438 747.000976562 110.999023438 c 0
 737.000976562 55.666015625 724.66796875 17.666015625 710.000976562 -3.0009765625 c 1
 677.333984375 -1.0009765625 640.000976562 -0.0009765625 598.000976562 -0.0009765625 c 2
 596.000976562 -0.0009765625 l 1
 568.000976562 -38.0009765625 l 2
 562.66796875 -47.333984375 565.66796875 -55.0009765625 577.000976562 -61.0009765625 c 0
 607.66796875 -82.333984375 623.000976562 -106.000976562 623.000976562 -132.000976562 c 0
 623.000976562 -157.333984375 612.500976562 -178.333984375 591.500976562 -195.000976562 c 0
 570.500976562 -211.66796875 546.333984375 -220.000976562 519.000976562 -220.000976562 c 0
 480.333984375 -220.000976562 461.000976562 -208.66796875 461.000976562 -186.000976562 c 0
 461.000976562 -179.333984375 463.333984375 -173.333984375 468.000976562 -168.000976562 c 0
 472.66796875 -162.66796875 478.66796875 -160.000976562 486.000976562 -160.000976562 c 0
 494.000976562 -160.000976562 503.833984375 -164.833984375 515.500976562 -174.500976562 c 0
 527.16796875 -184.16796875 535.000976562 -189.000976562 539.000976562 -189.000976562 c 0
 557.000976562 -189.000976562 566.000976562 -178.66796875 566.000976562 -158.000976562 c 0
 566.000976562 -144.66796875 559.66796875 -131.66796875 547.000976562 -119.000976562 c 0
 534.333984375 -106.333984375 519.666992188 -96.6669921875 503 -90 c 1
 503 -85 l 1
 560 0 l 1
352 98.9990234375 m 2
 351.998046875 294.999023438 l 2
 351.998046875 308.33203125 347.665039062 321.33203125 338.998046875 333.999023438 c 0
 318.998046875 361.999023438 290.998046875 375.999023438 254.998046875 375.999023438 c 0
 211.665039062 375.999023438 177.83203125 359.83203125 153.499023438 327.499023438 c 0
 129.166015625 295.166015625 116.999023438 255.999023438 116.999023438 209.999023438 c 0
 116.999023438 161.999023438 130.33203125 120.666015625 156.999023438 85.9990234375 c 0
 183.666015625 51.33203125 219.999023438 33.9990234375 265.999023438 33.9990234375 c 0
 298.666015625 33.9990234375 324.333007812 43.33203125 343 61.9990234375 c 0
 349 67.9990234375 352 80.33203125 352 98.9990234375 c 2
EndSplineSet
EndChar

StartChar: asciicircum
Encoding: 94 94 56
Width: 303
GlyphClass: 2
Flags: W
LayerCount: 2
Fore
SplineSet
164 356 m 1
 164 128.999023438 l 2
 164 92.33203125 167.666992188 66.1650390625 175 50.498046875 c 0
 182.333007812 34.8310546875 201 26.998046875 231 26.998046875 c 0
 245.666992188 26.998046875 257 30.6650390625 265 37.998046875 c 0
 267 39.998046875 269.333007812 43.6650390625 272 48.998046875 c 0
 274.666992188 54.3310546875 277 58.3310546875 279 60.998046875 c 0
 281 63.6650390625 284.333007812 64.998046875 289 64.998046875 c 0
 293.666992188 64.998046875 297 63.498046875 299 60.498046875 c 0
 301 57.498046875 301 53.3310546875 299 47.998046875 c 0
 279 6.6650390625 244 -14.001953125 194 -14.001953125 c 0
 154 -14.001953125 126.666992188 -4.3349609375 112 14.998046875 c 0
 97.3330078125 34.3310546875 90 60.3310546875 90 92.998046875 c 2
 90 286.998046875 l 2
 90 312.998046875 88 329.331054688 84 335.998046875 c 0
 80 342.665039062 66.6669921875 348.665039062 44 353.998046875 c 2
 35 355.998046875 l 2
 33 357.998046875 32 360.831054688 32 364.498046875 c 0
 32 368.165039062 33.3330078125 370.665039062 36 371.998046875 c 0
 90 380.665039062 130.333007812 400.33203125 157 430.999023438 c 1
 165 429.666015625 169 427.333007812 169 424 c 2
 164 356 l 1
EndSplineSet
EndChar

StartChar: underscore
Encoding: 95 95 57
Width: 552
GlyphClass: 2
Flags: W
LayerCount: 2
Fore
SplineSet
229 120 m 2
 80.00390625 552.001953125 l 2
 69.3369140625 582.001953125 59.3369140625 602.668945312 50.00390625 614.001953125 c 0
 40.6708984375 625.334960938 27.6708984375 632.001953125 11.00390625 634.001953125 c 2
 -4.99609375 636.001953125 l 1
 -12.99609375 645.334960938 -12.3291015625 654.001953125 -2.99609375 662.001953125 c 1
 19.00390625 659.334960938 48.3369140625 658.001953125 85.00390625 658.001953125 c 0
 122.336914062 658.001953125 156.669921875 659.334960938 188.002929688 662.001953125 c 0
 190.669921875 660.001953125 192.336914062 656.001953125 193.00390625 650.001953125 c 0
 193.670898438 644.001953125 192.670898438 639.334960938 190.00390625 636.001953125 c 2
 177.00390625 634.001953125 l 2
 151.00390625 630.001953125 137.670898438 623.668945312 137.00390625 615.001953125 c 0
 144.336914062 581.001953125 158.669921875 534.668945312 180.002929688 476.001953125 c 0
 188.669921875 450.001953125 200.669921875 414.668945312 216.002929688 370.001953125 c 0
 231.3359375 325.334960938 245.502929688 283.834960938 258.502929688 245.501953125 c 0
 271.502929688 207.168945312 284.3359375 169.001953125 297.002929688 131.001953125 c 1
 310.3359375 163.001953125 337.668945312 237.001953125 379.001953125 353.001953125 c 0
 407.668945312 428.334960938 434.001953125 502.66796875 458.001953125 576.000976562 c 0
 463.334960938 592.000976562 466.001953125 605.000976562 466.001953125 615.000976562 c 0
 466.001953125 624.333984375 453.334960938 630.666992188 428.001953125 634 c 2
 412.001953125 636 l 1
 404.001953125 645.333007812 404.668945312 654 414.001953125 662 c 1
 435.334960938 659.333007812 464.66796875 658 502.000976562 658 c 0
 534.66796875 658 563.334960938 659.333007812 588.001953125 662 c 0
 591.334960938 660 593.001953125 656 593.001953125 650 c 0
 593.001953125 644 592.001953125 639.333007812 590.001953125 636 c 2
 564.001953125 634 l 2
 545.334960938 632 530.66796875 620.666992188 520.000976562 600 c 0
 497.333984375 554.666992188 465.666992188 478 425 370 c 2
 379 248 l 2
 371.666992188 227.333007812 361.5 198.666015625 348.5 161.999023438 c 0
 335.5 125.33203125 323 88.83203125 311 52.4990234375 c 0
 299 16.166015625 292 -5.6669921875 290 -13 c 0
 288 -15 285 -16 281 -16 c 0
 276.333007812 -16 272 -15 268 -13 c 0
 259.333007812 27 246.333007812 71.3330078125 229 120 c 2
254.00390625 -119.998046875 m 2
 335.002929688 -153.997070312 l 2
 353.002929688 -161.330078125 367.002929688 -160.997070312 377.002929688 -152.997070312 c 0
 387.002929688 -144.997070312 398.669921875 -128.997070312 412.002929688 -104.997070312 c 0
 414.002929688 -101.6640625 417.169921875 -100.331054688 421.502929688 -100.998046875 c 0
 425.8359375 -101.665039062 428.3359375 -104.33203125 429.002929688 -108.999023438 c 0
 431.002929688 -140.999023438 422.669921875 -167.666015625 404.002929688 -188.999023438 c 0
 392.002929688 -202.999023438 377.3359375 -210.666015625 360.002929688 -211.999023438 c 0
 342.669921875 -213.33203125 327.336914062 -211.665039062 314.00390625 -206.998046875 c 2
 235.00390625 -172.998046875 l 2
 206.336914062 -161.665039062 178.00390625 -178.665039062 150.00390625 -223.998046875 c 0
 148.00390625 -226.665039062 145.00390625 -227.33203125 141.00390625 -225.999023438 c 0
 137.00390625 -224.666015625 134.336914062 -221.999023438 133.00390625 -217.999023438 c 0
 130.336914062 -196.666015625 143.00390625 -170.666015625 171.00390625 -139.999023438 c 0
 179.00390625 -129.33203125 191.170898438 -121.665039062 207.50390625 -116.998046875 c 0
 223.836914062 -112.331054688 239.336914062 -113.331054688 254.00390625 -119.998046875 c 2
EndSplineSet
EndChar

StartChar: grave
Encoding: 96 96 58
Width: 515
GlyphClass: 2
Flags: W
LayerCount: 2
Fore
SplineSet
121 80 m 1
 89.6669921875 142 74.0009765625 219.333007812 74.0009765625 312 c 0
 74.0009765625 398 89.0009765625 473.833007812 119.000976562 539.5 c 0
 149.000976562 605.166992188 192.66796875 638 250.000976562 638 c 0
 292.000976562 638 327.333984375 618.666992188 356.000976562 580 c 1
 381.000976562 632 l 1
 430.000976562 632 l 1
 384.000976562 533 l 1
 397.333984375 505 407.666992188 471.5 415 432.5 c 0
 422.333007812 393.5 426 353.333007812 426 312 c 0
 426 224.666992188 411 148.5 381 83.5 c 0
 351 18.5 307.333007812 -14 250 -14 c 0
 210.666992188 -14 177 2.6669921875 149 36 c 1
 123 -21 l 1
 74 -21 l 1
 121 80 l 1
155.000976562 151 m 1
 331.000976562 527.000976562 l 1
 314.333984375 577.66796875 287.333984375 603.000976562 250.000976562 603.000976562 c 0
 179.333984375 603.000976562 144.000976562 506.000976562 144.000976562 312.000976562 c 0
 144.000976562 247.333984375 147.66796875 193.666992188 155.000976562 151 c 1
347.000976562 456.000976562 m 1
 173.000976562 86.0009765625 l 1
 189.000976562 42.66796875 214.66796875 21.0009765625 250.000976562 21.0009765625 c 0
 293.333984375 21.0009765625 321.833984375 51.0009765625 335.500976562 111.000976562 c 0
 349.16796875 171.000976562 356.000976562 238.000976562 356.000976562 312.000976562 c 0
 356.000976562 369.333984375 353.000976562 417.333984375 347.000976562 456.000976562 c 1
EndSplineSet
EndChar

StartChar: a
Encoding: 97 97 59
Width: 440
GlyphClass: 2
Flags: W
LayerCount: 2
Fore
SplineSet
125 93 m 0
 122.333007812 79 127.500976562 65.166015625 140.500976562 51.4990234375 c 0
 153.500976562 37.83203125 173.000976562 30.9990234375 199.000976562 30.9990234375 c 0
 218.333984375 30.9990234375 241.000976562 40.9990234375 267.000976562 60.9990234375 c 0
 275.000976562 67.666015625 280.000976562 73.4990234375 282.000976562 78.4990234375 c 0
 284.000976562 83.4990234375 284.66796875 91.9990234375 284.000976562 103.999023438 c 2
 284.000976562 176.999023438 l 2
 284.000976562 179.666015625 283.66796875 181.833007812 283.000976562 183.5 c 0
 282.333984375 185.166992188 280.833984375 186.166992188 278.500976562 186.5 c 0
 276.16796875 186.833007812 274.334960938 187.333007812 273.001953125 188 c 0
 264.334960938 187.333007812 247.66796875 183 223.000976562 175 c 0
 162.333984375 151 129.666992188 123.666992188 125 93 c 0
355.000976562 286.999023438 m 2
 355.001953125 101.998046875 l 2
 355.001953125 65.3310546875 359.001953125 41.8310546875 367.001953125 31.498046875 c 0
 375.001953125 21.1650390625 388.334960938 21.6650390625 407.001953125 32.998046875 c 0
 412.334960938 36.3310546875 415.334960938 35.3310546875 416.001953125 29.998046875 c 0
 416.668945312 24.6650390625 414.168945312 17.998046875 408.501953125 9.998046875 c 0
 402.834960938 1.998046875 394.66796875 -3.6689453125 384.000976562 -7.001953125 c 0
 358.000976562 -16.3349609375 339.333984375 -17.66796875 328.000976562 -11.0009765625 c 0
 316.66796875 -4.333984375 304.66796875 6.9990234375 292.000976562 22.9990234375 c 0
 286.66796875 29.666015625 281.000976562 32.9990234375 275.000976562 32.9990234375 c 0
 269.66796875 32.9990234375 258.334960938 25.666015625 241.001953125 10.9990234375 c 0
 219.001953125 -5.66796875 191.668945312 -14.0009765625 159.001953125 -14.0009765625 c 0
 127.001953125 -14.0009765625 101.334960938 -6.333984375 82.001953125 8.9990234375 c 0
 57.3349609375 30.9990234375 46.001953125 54.666015625 48.001953125 79.9990234375 c 0
 55.3349609375 142.666015625 126.334960938 188.666015625 261.001953125 217.999023438 c 0
 263.668945312 217.999023438 268.168945312 219.166015625 274.501953125 221.499023438 c 0
 280.834960938 223.83203125 284.501953125 226.83203125 285.501953125 230.499023438 c 0
 286.501953125 234.166015625 287.001953125 240.666015625 287.001953125 249.999023438 c 2
 287.001953125 284.999023438 l 2
 287.001953125 318.33203125 282.168945312 340.999023438 272.501953125 352.999023438 c 0
 262.834960938 364.999023438 241.001953125 370.999023438 207.001953125 370.999023438 c 0
 178.334960938 371.666015625 156.834960938 364.666015625 142.501953125 349.999023438 c 0
 128.168945312 335.33203125 121.001953125 318.665039062 121.001953125 299.998046875 c 0
 121.668945312 295.331054688 123.168945312 289.498046875 125.501953125 282.498046875 c 0
 127.834960938 275.498046875 127.66796875 270.998046875 125.000976562 268.998046875 c 0
 107.000976562 256.331054688 87.66796875 249.998046875 67.0009765625 249.998046875 c 0
 57.66796875 249.998046875 53.0009765625 254.998046875 53.0009765625 264.998046875 c 0
 53.0009765625 278.998046875 57.0009765625 293.998046875 65.0009765625 309.998046875 c 0
 73.0009765625 325.998046875 85.16796875 341.831054688 101.500976562 357.498046875 c 0
 117.833984375 373.165039062 138.000976562 385.83203125 162.000976562 395.499023438 c 0
 186.000976562 405.166015625 213.000976562 408.999023438 243.000976562 406.999023438 c 0
 317.000976562 404.33203125 354.333984375 364.33203125 355.000976562 286.999023438 c 2
220.001953125 -216.001953125 m 0
 182.001953125 -216.001953125 152.336914062 -206.001953125 131.00390625 -186.001953125 c 0
 109.670898438 -166.001953125 96.00390625 -131.668945312 90.00390625 -83.001953125 c 1
 96.6708984375 -77.001953125 103.00390625 -77.001953125 109.00390625 -83.001953125 c 1
 116.336914062 -110.334960938 128.169921875 -130.501953125 144.502929688 -143.501953125 c 0
 160.8359375 -156.501953125 185.668945312 -163.001953125 219.001953125 -163.001953125 c 0
 251.001953125 -163.001953125 274.834960938 -156.501953125 290.501953125 -143.501953125 c 0
 306.168945312 -130.501953125 319.668945312 -110.334960938 331.001953125 -83.001953125 c 0
 337.668945312 -77.001953125 344.001953125 -77.001953125 350.001953125 -83.001953125 c 1
 342.001953125 -126.334960938 326.668945312 -159.334960938 304.001953125 -182.001953125 c 0
 281.334960938 -204.668945312 253.334960938 -216.001953125 220.001953125 -216.001953125 c 0
EndSplineSet
EndChar

StartChar: b
Encoding: 98 98 60
Width: 540
GlyphClass: 2
Flags: W
LayerCount: 2
Fore
SplineSet
363 367 m 2
 363 424.000976562 l 2
 363 427.333984375 365.666992188 429.666992188 371 431 c 1
 397.666992188 400.333007812 438 380.666015625 492 371.999023438 c 0
 494.666992188 371.33203125 496 368.999023438 496 364.999023438 c 0
 496 360.999023438 495 357.999023438 493 355.999023438 c 2
 484 353.999023438 l 2
 461.333007812 348.666015625 447.833007812 342.333007812 443.5 335 c 0
 439.166992188 327.666992188 437 311.666992188 437 287 c 2
 437 111 l 2
 437 73.6669921875 438.833007812 50.5 442.5 41.5 c 0
 446.166992188 32.5 457 27 475 25 c 2
 504 22 l 2
 508 20 509.666992188 15.8330078125 509 9.5 c 0
 508.333007812 3.1669921875 506 -1 502 -3 c 0
 466 -1 432 0 400 0 c 0
 369.333007812 0 336.333007812 -1 301 -3 c 0
 297 -0.3330078125 294.666992188 3.833984375 294 9.5009765625 c 0
 293.333007812 15.16796875 295 19.3349609375 299 22.001953125 c 2
 325 25.001953125 l 2
 343 28.3349609375 353.833007812 34.16796875 357.5 42.5009765625 c 0
 361.166992188 50.833984375 363 73.6669921875 363 111 c 2
 363 265 l 2
 363 292.333007812 358 312 348 324 c 0
 330.666992188 347.333007812 302.333984375 359 263.000976562 359 c 0
 200.333984375 359 169.000976562 326 169.000976562 260 c 2
 169.000976562 111 l 2
 169.000976562 84.3330078125 169.833984375 65.8330078125 171.500976562 55.5 c 0
 173.16796875 45.1669921875 176.834960938 38 182.501953125 34 c 0
 188.168945312 30 199.001953125 27 215.001953125 25 c 2
 234.001953125 22 l 2
 238.001953125 20 239.668945312 15.8330078125 239.001953125 9.5 c 0
 238.334960938 3.1669921875 236.001953125 -1 232.001953125 -3 c 0
 197.334960938 -1 163.66796875 0 131.000976562 0 c 0
 101.000976562 0 67.0009765625 -1 29.0009765625 -3 c 0
 25.0009765625 -0.3330078125 22.66796875 3.833984375 22.0009765625 9.5009765625 c 0
 21.333984375 15.16796875 23.0009765625 19.3349609375 27.0009765625 22.001953125 c 2
 57.0009765625 25.001953125 l 2
 75.0009765625 27.001953125 85.833984375 32.501953125 89.5009765625 41.501953125 c 0
 93.16796875 50.501953125 95.0009765625 73.6689453125 95.0009765625 111.001953125 c 2
 95.0009765625 284.001953125 l 2
 95.0009765625 319.334960938 104.66796875 348.66796875 124.000976562 372.000976562 c 0
 143.333984375 395.333984375 172.666992188 407.000976562 212 407.000976562 c 0
 236 407.000976562 258.666992188 402.66796875 280 394.000976562 c 0
 301.333007812 385.333984375 325.333007812 372.666992188 352 356 c 0
 359.333007812 356 363 359.666992188 363 367 c 2
269 -96.9990234375 m 0
 293.666992188 -96.9990234375 314.330078125 -105 330.997070312 -121 c 0
 347.6640625 -137 355.997070312 -158 355.997070312 -184 c 0
 355.997070312 -208 347.330078125 -228.333007812 329.997070312 -245 c 0
 312.6640625 -261.666992188 292.331054688 -270 268.998046875 -270 c 0
 245.665039062 -270 225.33203125 -261.333007812 207.999023438 -244 c 0
 190.666015625 -226.666992188 181.999023438 -206.666992188 181.999023438 -184 c 0
 181.999023438 -159.333007812 190.33203125 -138.666015625 206.999023438 -121.999023438 c 0
 223.666015625 -105.33203125 244.333007812 -96.9990234375 269 -96.9990234375 c 0
268.99609375 -125 m 0
 252.329101562 -125 238.329101562 -130.666992188 226.99609375 -142 c 0
 215.663085938 -153.333007812 209.99609375 -167.333007812 209.99609375 -184 c 0
 209.99609375 -199.333007812 215.99609375 -213 227.99609375 -225 c 0
 239.99609375 -237 253.663085938 -243 268.99609375 -243 c 0
 284.329101562 -243 297.99609375 -237.333007812 309.99609375 -226 c 0
 321.99609375 -214.666992188 327.99609375 -200.666992188 327.99609375 -184 c 0
 327.99609375 -166 322.329101562 -151.666992188 310.99609375 -141 c 0
 299.663085938 -130.333007812 285.663085938 -125 268.99609375 -125 c 0
EndSplineSet
EndChar

StartChar: c
Encoding: 99 99 61
Width: 570
GlyphClass: 2
Flags: W
LayerCount: 2
Fore
SplineSet
90 321 m 1
 90 321.999023438 l 2
 90 335.999023438 89 344.33203125 87 346.999023438 c 0
 85 349.666015625 79 350.999023438 69 350.999023438 c 2
 41 350.999023438 l 2
 37.6669921875 352.999023438 35.833984375 356.166015625 35.5009765625 360.499023438 c 0
 35.16796875 364.83203125 36.0009765625 368.665039062 38.0009765625 371.998046875 c 0
 68.0009765625 381.331054688 89.333984375 391.6640625 102.000976562 402.997070312 c 0
 122.66796875 421.6640625 136.66796875 462.6640625 144.000976562 525.997070312 c 1
 154.000976562 529.997070312 161.000976562 528.330078125 165.000976562 520.997070312 c 1
 165.000976562 411.997070312 l 2
 165.000976562 402.6640625 165.833984375 397.1640625 167.500976562 395.497070312 c 0
 169.16796875 393.830078125 174.334960938 392.997070312 183.001953125 392.997070312 c 2
 274.001953125 392.997070312 l 1
 280.668945312 388.997070312 283.668945312 381.6640625 283.001953125 370.997070312 c 0
 282.334960938 360.330078125 279.66796875 353.663085938 275.000976562 350.99609375 c 2
 182.000976562 350.99609375 l 2
 173.333984375 350.99609375 168.166992188 349.829101562 166.5 347.49609375 c 0
 164.833007812 345.163085938 164 338.663085938 164 327.99609375 c 2
 164 168.99609375 l 2
 164 116.329101562 177.666992188 78.8291015625 205 56.49609375 c 0
 232.333007812 34.1630859375 265.5 27.6630859375 304.5 36.99609375 c 0
 343.5 46.3291015625 377.333007812 66.99609375 406 98.99609375 c 1
 390 169.663085938 378.333007812 232.330078125 371 286.997070312 c 0
 360.333007812 350.330078125 353.666015625 416.330078125 350.999023438 484.997070312 c 0
 346.33203125 561.6640625 353.33203125 618.831054688 371.999023438 656.498046875 c 0
 390.666015625 694.165039062 418.666015625 712.998046875 455.999023438 712.998046875 c 0
 483.999023438 713.665039062 506.666015625 705.165039062 523.999023438 687.498046875 c 0
 541.33203125 669.831054688 548.999023438 647.998046875 546.999023438 621.998046875 c 0
 546.999023438 608.665039062 543.499023438 597.83203125 536.499023438 589.499023438 c 0
 529.499023438 581.166015625 521.666015625 578.333007812 512.999023438 581 c 0
 498.33203125 584.333007812 489.33203125 589.666015625 485.999023438 596.999023438 c 0
 482.666015625 604.33203125 481.333007812 614.499023438 482 627.499023438 c 0
 482.666992188 640.499023438 480.666992188 650.166015625 476 656.499023438 c 0
 471.333007812 662.83203125 461 665.999023438 445 665.999023438 c 0
 428.333007812 666.666015625 417.166015625 655.666015625 411.499023438 632.999023438 c 0
 405.83203125 610.33203125 403.999023438 591.33203125 405.999023438 575.999023438 c 0
 407.999023438 541.999023438 411.499023438 510.33203125 416.499023438 480.999023438 c 0
 421.499023438 451.666015625 427.499023438 420.999023438 434.499023438 388.999023438 c 0
 441.499023438 356.999023438 448.166015625 326.83203125 454.499023438 298.499023438 c 0
 460.83203125 270.166015625 466.999023438 240.999023438 472.999023438 210.999023438 c 0
 484.999023438 146.999023438 492.666015625 100.83203125 495.999023438 72.4990234375 c 0
 499.33203125 44.166015625 503.33203125 7.666015625 507.999023438 -37.0009765625 c 0
 511.999023438 -108.333984375 507.33203125 -164.833984375 493.999023438 -206.500976562 c 0
 480.666015625 -248.16796875 450.333007812 -270.334960938 403 -273.001953125 c 0
 386.333007812 -273.668945312 370.833007812 -270.168945312 356.5 -262.501953125 c 0
 342.166992188 -254.834960938 331.333984375 -243.66796875 324.000976562 -229.000976562 c 0
 316.66796875 -214.333984375 313.334960938 -199.000976562 314.001953125 -183.000976562 c 0
 317.334960938 -157.66796875 328.001953125 -144.000976562 346.001953125 -142.000976562 c 0
 362.668945312 -140.000976562 373.668945312 -143.000976562 379.001953125 -151.000976562 c 0
 384.334960938 -159.000976562 386.66796875 -170.000976562 386.000976562 -184.000976562 c 0
 385.333984375 -198.000976562 386.166992188 -208.16796875 388.5 -214.500976562 c 0
 390.833007812 -220.833984375 398.333007812 -224.333984375 411 -225.000976562 c 0
 429 -227.000976562 440.666992188 -216.66796875 446 -194.000976562 c 0
 451.333007812 -171.333984375 453 -152.666992188 451 -138 c 0
 448.333007812 -102.666992188 437.333007812 -41 418 47 c 1
 394 25 371.166992188 9.5 349.5 0.5 c 0
 327.833007812 -8.5 303 -13.6669921875 275 -15 c 0
 151.666992188 -17 90 38.3330078125 90 151 c 2
 90 321 l 1
EndSplineSet
EndChar

StartChar: d
Encoding: 100 100 62
Width: 543
GlyphClass: 2
Flags: W
LayerCount: 2
Fore
SplineSet
352 174 m 1
 254.998046875 174 l 1
 254.998046875 219 l 1
 351.998046875 219 l 1
 351.998046875 295 l 2
 351.998046875 308.333007812 347.665039062 321.333007812 338.998046875 334 c 0
 318.998046875 362 290.998046875 376 254.998046875 376 c 0
 211.665039062 376 177.83203125 359.833007812 153.499023438 327.5 c 0
 129.166015625 295.166992188 116.999023438 256 116.999023438 210 c 0
 116.999023438 162 130.33203125 120.666992188 156.999023438 86 c 0
 183.666015625 51.3330078125 219.999023438 34 265.999023438 34 c 0
 298.666015625 34 324.333007812 43.3330078125 343 62 c 0
 349 68 352 80.3330078125 352 99 c 2
 352 174 l 1
349.998046875 600 m 2
 349.998046875 620.666992188 345.665039062 633.334960938 336.998046875 638.001953125 c 0
 328.331054688 642.668945312 311.998046875 645.668945312 287.998046875 647.001953125 c 2
 269.998046875 649.001953125 l 2
 267.998046875 652.334960938 266.998046875 656.16796875 266.998046875 660.500976562 c 0
 266.998046875 664.833984375 268.331054688 667.666992188 270.998046875 669 c 0
 316.331054688 684.333007812 362.998046875 704.666015625 410.998046875 729.999023438 c 1
 424.998046875 727.33203125 431.998046875 724.33203125 431.998046875 720.999023438 c 2
 423.998046875 645.999023438 l 1
 423.998046875 218.999023438 l 1
 487.998046875 218.999023438 l 1
 487.998046875 173.999023438 l 1
 423.998046875 173.999023438 l 1
 423.998046875 145.999023438 l 2
 423.998046875 99.9990234375 425.665039062 68.9990234375 428.998046875 52.9990234375 c 0
 432.331054688 36.9990234375 440.331054688 28.9990234375 452.998046875 28.9990234375 c 0
 459.665039062 28.9990234375 473.998046875 32.666015625 495.998046875 39.9990234375 c 0
 499.998046875 39.33203125 501.998046875 34.4990234375 501.998046875 25.4990234375 c 0
 501.998046875 16.4990234375 499.665039062 10.666015625 494.998046875 7.9990234375 c 0
 442.331054688 0.666015625 398.331054688 -10.0009765625 362.998046875 -24.0009765625 c 0
 355.665039062 -24.0009765625 351.998046875 -21.333984375 351.998046875 -16.0009765625 c 2
 351.998046875 0.9990234375 l 2
 351.998046875 18.9990234375 351.331054688 28.9990234375 349.998046875 30.9990234375 c 2
 345.998046875 30.9990234375 l 1
 318.665039062 13.666015625 296.665039062 1.666015625 279.998046875 -5.0009765625 c 0
 263.331054688 -11.66796875 243.331054688 -15.0009765625 219.998046875 -15.0009765625 c 0
 165.331054688 -15.0009765625 120.831054688 3.83203125 86.498046875 41.4990234375 c 0
 52.1650390625 79.166015625 34.998046875 124.333007812 34.998046875 177 c 0
 34.998046875 245.666992188 57.998046875 301.166992188 103.998046875 343.5 c 0
 149.998046875 385.833007812 207.665039062 407 276.998046875 407 c 0
 304.998046875 407 327.331054688 404 343.998046875 398 c 0
 347.998046875 398 349.998046875 402.666992188 349.998046875 412 c 2
 349.998046875 600 l 2
EndSplineSet
EndChar

StartChar: e
Encoding: 101 101 63
Width: 408
GlyphClass: 2
Flags: W
LayerCount: 2
Fore
SplineSet
244 28 m 0
 260.666992188 31.3330078125 274.165039062 36.3388671875 284.498046875 43.005859375 c 0
 294.831054688 49.6728515625 300.6640625 57.33984375 301.997070312 66.0068359375 c 0
 306.6640625 87.33984375 319.331054688 97.6728515625 339.998046875 97.005859375 c 0
 348.665039062 97.005859375 355.165039062 93.6728515625 359.498046875 87.005859375 c 0
 363.831054688 80.3388671875 365.331054688 73.3388671875 363.998046875 66.005859375 c 0
 363.331054688 43.3388671875 333.6640625 20.3388671875 274.997070312 -2.994140625 c 0
 254.330078125 -10.994140625 223.997070312 -14.994140625 183.997070312 -14.994140625 c 0
 143.330078125 -14.994140625 110.163085938 -6.3271484375 84.49609375 11.005859375 c 0
 58.8291015625 28.3388671875 45.3291015625 52.005859375 43.99609375 82.005859375 c 0
 45.3291015625 108.672851562 53.3291015625 132.505859375 67.99609375 153.505859375 c 0
 82.6630859375 174.505859375 113.663085938 190.672851562 160.99609375 202.005859375 c 1
 130.329101562 205.338867188 104.162109375 215.505859375 82.4951171875 232.505859375 c 0
 60.828125 249.505859375 51.328125 269.338867188 53.9951171875 292.005859375 c 0
 56.662109375 314.672851562 62.4951171875 332.005859375 71.4951171875 344.005859375 c 0
 80.4951171875 356.005859375 95.662109375 369.672851562 116.995117188 385.005859375 c 0
 142.995117188 398.338867188 170.328125 405.838867188 198.995117188 407.505859375 c 0
 227.662109375 409.172851562 250.329101562 407.672851562 266.99609375 403.005859375 c 0
 288.99609375 398.338867188 309.329101562 390.171875 327.99609375 378.504882812 c 0
 346.663085938 366.837890625 355.99609375 354.670898438 355.99609375 342.00390625 c 0
 357.329101562 335.336914062 355.99609375 328.669921875 351.99609375 322.002929688 c 0
 347.99609375 315.3359375 341.329101562 311.668945312 331.99609375 311.001953125 c 0
 311.99609375 310.334960938 299.329101562 320.66796875 293.99609375 342.000976562 c 0
 292.663085938 349.333984375 285.830078125 357.166992188 273.497070312 365.5 c 0
 261.1640625 373.833007812 249.331054688 378 237.998046875 378 c 0
 209.331054688 379.333007812 182.998046875 373 158.998046875 359 c 0
 134.998046875 345 120.665039062 323.333007812 115.998046875 294 c 0
 112.665039062 270 118.83203125 250.666992188 134.499023438 236 c 0
 150.166015625 221.333007812 173.999023438 216 205.999023438 220 c 0
 223.999023438 224.666992188 237.166015625 223.666992188 245.499023438 217 c 0
 253.83203125 210.333007812 256.499023438 202.166015625 253.499023438 192.499023438 c 0
 250.499023438 182.83203125 243.33203125 177.33203125 231.999023438 175.999023438 c 0
 222.666015625 175.33203125 213.666015625 175.83203125 204.999023438 177.499023438 c 0
 196.33203125 179.166015625 187.999023438 179.333007812 179.999023438 178 c 0
 166.666015625 176.666992188 154.333007812 167.166992188 143 149.5 c 0
 131.666992188 131.833007812 126 113.333007812 126 94 c 0
 126.666992188 72.6669921875 135 55.6669921875 151 43 c 0
 167 30.3330078125 186.333007812 24 209 24 c 0
 222.333007812 24 234 25.3330078125 244 28 c 0
209.998046875 -222.994140625 m 0
 193.331054688 -222.994140625 179.997070312 -217.494140625 169.997070312 -206.494140625 c 0
 159.997070312 -195.494140625 154.997070312 -181.661132812 154.997070312 -164.994140625 c 0
 154.997070312 -146.994140625 160.497070312 -133.161132812 171.497070312 -123.494140625 c 0
 182.497070312 -113.827148438 196.330078125 -108.994140625 212.997070312 -108.994140625 c 0
 229.6640625 -108.994140625 243.331054688 -114.327148438 253.998046875 -124.994140625 c 0
 264.665039062 -135.661132812 269.998046875 -148.328125 269.998046875 -162.995117188 c 0
 269.998046875 -180.328125 263.998046875 -194.661132812 251.998046875 -205.994140625 c 0
 239.998046875 -217.327148438 225.998046875 -222.994140625 209.998046875 -222.994140625 c 0
EndSplineSet
EndChar

StartChar: f
Encoding: 102 102 64
Width: 305
GlyphClass: 2
Flags: W
LayerCount: 2
Fore
SplineSet
144 -216 m 0
 106 -216 76.3349609375 -206 55.001953125 -186 c 0
 33.6689453125 -166 20.001953125 -131.666992188 14.001953125 -83 c 1
 20.6689453125 -77 27.001953125 -77 33.001953125 -83 c 1
 40.3349609375 -110.333007812 52.16796875 -130.5 68.5009765625 -143.5 c 0
 84.833984375 -156.5 109.666992188 -163 143 -163 c 0
 175 -163 198.833007812 -156.5 214.5 -143.5 c 0
 230.166992188 -130.5 243.666992188 -110.333007812 255 -83 c 0
 261.666992188 -77 268 -77 274 -83 c 1
 266 -126.333007812 250.666992188 -159.333007812 228 -182 c 0
 205.333007812 -204.666992188 177.333007812 -216 144 -216 c 0
179.001953125 351 m 1
 186.00390625 350.997070312 l 1
 177.336914062 350.997070312 172.336914062 349.6640625 171.00390625 346.997070312 c 0
 169.670898438 344.330078125 169.00390625 335.997070312 169.00390625 321.997070312 c 2
 169.00390625 110.997070312 l 2
 169.00390625 75.6640625 171.00390625 52.6640625 175.00390625 41.9970703125 c 0
 179.00390625 31.330078125 189.670898438 25.6630859375 207.00390625 24.99609375 c 2
 251.00390625 21.99609375 l 2
 255.00390625 19.99609375 256.670898438 15.8291015625 256.00390625 9.49609375 c 0
 255.336914062 3.1630859375 253.00390625 -1.00390625 249.00390625 -3.00390625 c 0
 196.336914062 -1.00390625 157.336914062 -0.00390625 132.00390625 -0.00390625 c 0
 100.670898438 -0.00390625 66.00390625 -1.00390625 28.00390625 -3.00390625 c 0
 24.00390625 -0.3369140625 21.6708984375 3.830078125 21.00390625 9.4970703125 c 0
 20.3369140625 15.1640625 22.00390625 19.3310546875 26.00390625 21.998046875 c 2
 57.00390625 24.998046875 l 2
 75.00390625 26.998046875 85.8369140625 32.498046875 89.50390625 41.498046875 c 0
 93.1708984375 50.498046875 95.00390625 73.6650390625 95.00390625 110.998046875 c 2
 95.00390625 321.998046875 l 2
 95.00390625 335.998046875 94.1708984375 344.331054688 92.50390625 346.998046875 c 0
 90.8369140625 349.665039062 85.00390625 350.998046875 75.00390625 350.998046875 c 2
 25.00390625 350.998046875 l 1
 17.6708984375 355.665039062 16.6708984375 361.998046875 22.00390625 369.998046875 c 1
 80.00390625 390.998046875 l 2
 91.3369140625 396.998046875 97.00390625 403.665039062 97.00390625 410.998046875 c 0
 97.00390625 440.331054688 97.1708984375 470.998046875 97.50390625 502.998046875 c 0
 97.8369140625 534.998046875 99.669921875 563.498046875 103.002929688 588.498046875 c 0
 106.3359375 613.498046875 113.002929688 635.331054688 123.002929688 653.998046875 c 0
 143.669921875 689.998046875 172.002929688 709.665039062 208.002929688 712.998046875 c 0
 252.002929688 716.998046875 279.002929688 707.331054688 289.002929688 683.998046875 c 0
 295.002929688 668.665039062 294.002929688 656.33203125 286.002929688 646.999023438 c 0
 278.002929688 637.666015625 268.3359375 633.333007812 257.002929688 634 c 0
 245.669921875 634.666992188 241.002929688 639 243.002929688 647 c 0
 246.3359375 666.333007812 241.668945312 679.833007812 229.001953125 687.5 c 0
 216.334960938 695.166992188 202.001953125 690 186.001953125 672 c 0
 181.334960938 667.333007812 177.501953125 657.833007812 174.501953125 643.5 c 0
 171.501953125 629.166992188 169.834960938 612.666992188 169.501953125 594 c 0
 169.168945312 575.333007812 169.001953125 553.5 169.001953125 528.5 c 2
 169.001953125 449 l 1
 169.001953125 421 l 2
 169.001953125 407.666992188 169.668945312 399.666992188 171.001953125 397 c 0
 172.334960938 394.333007812 177.334960938 393 186.001953125 393 c 2
 262.001953125 393 l 1
 268.001953125 389 270.001953125 381.5 268.001953125 370.5 c 0
 266.001953125 359.5 262.334960938 353 257.001953125 351 c 2
 179.001953125 351 l 1
EndSplineSet
EndChar

StartChar: g
Encoding: 103 103 65
Width: 508
GlyphClass: 2
Flags: W
LayerCount: 2
Fore
SplineSet
412 -120 m 1
 397.333007812 -170 372.827148438 -207.168945312 338.494140625 -231.501953125 c 0
 304.161132812 -255.834960938 268.328125 -268.66796875 230.995117188 -270.000976562 c 0
 176.328125 -270.66796875 129.995117188 -257.66796875 91.9951171875 -231.000976562 c 0
 86.662109375 -228.333984375 81.8291015625 -221.000976562 77.49609375 -209.000976562 c 0
 73.1630859375 -197.000976562 73.6630859375 -183.66796875 78.99609375 -169.000976562 c 0
 84.3291015625 -156.333984375 96.3291015625 -149.666992188 114.99609375 -149 c 0
 133.663085938 -148.333007812 144.330078125 -153.333007812 146.997070312 -164 c 0
 148.997070312 -175.333007812 151.330078125 -187.5 153.997070312 -200.5 c 0
 156.6640625 -213.5 164.831054688 -223.666992188 178.498046875 -231 c 0
 192.165039062 -238.333007812 215.665039062 -240 248.998046875 -236 c 0
 269.665039062 -233.333007812 289.498046875 -223.5 308.498046875 -206.5 c 0
 327.498046875 -189.5 340.331054688 -160.666992188 346.998046875 -120 c 1
 249.998046875 -120 l 1
 249.998046875 -87 l 1
 348.998046875 -87 l 1
 348.998046875 -13 l 2
 349.665039062 3 346.665039062 11 339.998046875 11 c 0
 309.998046875 -6.3330078125 275.998046875 -15 237.998046875 -15 c 0
 171.331054688 -15 120.831054688 6.1669921875 86.498046875 48.5 c 0
 52.1650390625 90.8330078125 34.998046875 135.333007812 34.998046875 182 c 0
 34.998046875 228.666992188 45.8310546875 269 67.498046875 303 c 0
 89.1650390625 337 118.33203125 362.833007812 154.999023438 380.5 c 0
 191.666015625 398.166992188 231.666015625 407 274.999023438 407 c 0
 306.999023438 407 334.666015625 403.666992188 357.999023438 397 c 0
 375.33203125 392.333007812 386.999023438 390 392.999023438 390 c 0
 399.666015625 390 410.333007812 398.333007812 425 415 c 0
 429.666992188 415 433.333984375 412 436.000976562 406 c 1
 427.333984375 380.666992188 423.000976562 337.666992188 423.000976562 277 c 2
 423.000976562 85 l 2
 424.333984375 1 422.666992188 -56.3330078125 418 -87 c 1
 475 -87 l 1
 475 -120 l 1
 412 -120 l 1
350.994140625 81.998046875 m 2
 350.993164062 229.999023438 l 2
 350.993164062 287.999023438 348.66015625 321.33203125 343.993164062 329.999023438 c 0
 337.326171875 342.666015625 325.493164062 353.499023438 308.493164062 362.499023438 c 0
 291.493164062 371.499023438 271.993164062 375.999023438 249.993164062 375.999023438 c 0
 211.326171875 375.999023438 179.826171875 360.499023438 155.493164062 329.499023438 c 0
 131.16015625 298.499023438 118.993164062 259.666015625 118.993164062 212.999023438 c 0
 118.993164062 158.33203125 133.826171875 113.499023438 163.493164062 78.4990234375 c 0
 193.16015625 43.4990234375 230.993164062 25.9990234375 276.993164062 25.9990234375 c 0
 311.66015625 25.9990234375 333.327148438 31.33203125 341.994140625 41.9990234375 c 0
 347.994140625 49.33203125 350.994140625 62.6650390625 350.994140625 81.998046875 c 2
EndSplineSet
EndChar

StartChar: h
Encoding: 104 104 66
Width: 360
GlyphClass: 2
Flags: W
LayerCount: 2
Fore
SplineSet
213 556 m 1
 213.001953125 390 l 1
 228.334960938 395.333007812 243.16796875 395.5 257.500976562 390.5 c 0
 271.833984375 385.5 282.333984375 378.333007812 289.000976562 369 c 0
 317.000976562 337 329.66796875 310.666992188 327.000976562 290 c 0
 327.000976562 286.666992188 324.833984375 284 320.500976562 282 c 0
 316.16796875 280 312.66796875 281 310.000976562 285 c 0
 280.66796875 329 252.334960938 345.333007812 225.001953125 334 c 2
 213.001953125 330 l 1
 213.001953125 175 l 1
 213.001953125 111 l 2
 213.001953125 75 215.001953125 52.1669921875 219.001953125 42.5 c 0
 223.001953125 32.8330078125 233.668945312 27 251.001953125 25 c 2
 283.001953125 22 l 2
 287.001953125 20 288.668945312 15.8330078125 288.001953125 9.5 c 0
 287.334960938 3.1669921875 285.001953125 -1 281.001953125 -3 c 0
 240.334960938 -1 205.334960938 0 176.001953125 0 c 0
 144.668945312 0 110.001953125 -1 72.001953125 -3 c 0
 68.001953125 -0.3330078125 65.6689453125 3.833984375 65.001953125 9.5009765625 c 0
 64.3349609375 15.16796875 66.001953125 19.3349609375 70.001953125 22.001953125 c 2
 101.001953125 25.001953125 l 2
 119.001953125 27.001953125 129.834960938 32.501953125 133.501953125 41.501953125 c 0
 137.168945312 50.501953125 139.001953125 73.6689453125 139.001953125 111.001953125 c 2
 139.001953125 171.001953125 l 1
 139.001953125 299.001953125 l 1
 105.001953125 287.001953125 77.3349609375 293.334960938 56.001953125 318.001953125 c 0
 37.3349609375 339.334960938 29.001953125 366.334960938 31.001953125 399.001953125 c 0
 32.3349609375 404.334960938 34.8349609375 407.334960938 38.501953125 408.001953125 c 0
 42.1689453125 408.668945312 45.3359375 407.001953125 48.0029296875 403.001953125 c 0
 63.3359375 377.001953125 75.6689453125 360.334960938 85.001953125 353.001953125 c 0
 94.3349609375 345.668945312 107.66796875 345.668945312 125.000976562 353.001953125 c 2
 139.000976562 359.001953125 l 1
 140.000976562 561.001953125 l 1
 140.000976562 624.001953125 l 1
 132.000976562 721.001953125 l 2
 132.000976562 724.334960938 139.000976562 727.334960938 153.000976562 730.001953125 c 1
 197.66796875 706.001953125 243.66796875 685.668945312 291.000976562 669.001953125 c 0
 293.66796875 668.334960938 295.000976562 665.66796875 295.000976562 661.000976562 c 0
 295.000976562 656.333984375 294.000976562 652.333984375 292.000976562 649.000976562 c 2
 274.000976562 648.000976562 l 2
 251.333984375 646.66796875 235.666992188 643.66796875 227 639.000976562 c 0
 218.333007812 634.333984375 214 621.666992188 214 601 c 2
 213 556 l 1
EndSplineSet
EndChar

